<?xml version="1.0" standalone="no"?>
<!DOCTYPE svg PUBLIC "-//W3C//DTD SVG 1.1//EN" "http://www.w3.org/Graphics/SVG/1.1/DTD/svg11.dtd" >
<svg xmlns="http://www.w3.org/2000/svg" xmlns:xlink="http://www.w3.org/1999/xlink" version="1.1">
<metadata>
Created by FontForge 20160407 at Thu Aug 25 20:01:24 2016
 By Jimmy Warting
Copyright (c) 2009 by Kris Sowersby. All rights reserved.
</metadata>
<defs>
<font id="TiemposText-Regular" horiz-adv-x="600" >
  <font-face 
    font-family="Tiempos Text Regular"
    font-weight="400"
    font-stretch="normal"
    units-per-em="1000"
    panose-1="2 2 5 3 6 3 3 6 4 3"
    ascent="761"
    descent="-239"
    x-height="530"
    cap-height="702"
    bbox="-113 -230 1274 1026"
    underline-thickness="30"
    underline-position="-110"
    stemh="46"
    stemv="92"
    unicode-range="U+0020-FB04"
  />
<missing-glyph horiz-adv-x="960" 
 />
    <glyph glyph-name="fi" unicode="fi" horiz-adv-x="649" 
d="M286 0h-246v35c44 6 77 11 77 57v385h-74v33l74 26v14c0 127 85 216 216 216c82 0 142 -25 142 -78c0 -25 -15 -45 -34 -56h-58v25c0 51 -21 70 -69 70c-57 0 -105 -49 -105 -153v-46h278l28 12h22v-448c0 -46 32 -51 77 -57v-35h-246v35c44 6 77 11 77 57v385h-236v-385
c0 -46 32 -51 77 -57v-35z" />
    <glyph glyph-name="fl" unicode="fl" horiz-adv-x="648" 
d="M117 92v385h-74v33l74 26v18c0 123 85 212 203 212c49 0 92 -15 121 -37l71 32h25v-669c0 -46 33 -51 77 -57v-35h-247v35c45 6 78 11 78 57v547c-25 51 -69 88 -129 88c-71 0 -107 -57 -107 -147v-50h132v-53h-132v-385c0 -46 32 -51 77 -57v-35h-246v35
c44 6 77 11 77 57z" />
    <glyph glyph-name="ff" unicode="ff" horiz-adv-x="689" 
d="M330 754c71 0 126 -26 157 -57c32 43 82 69 148 69c68 0 114 -28 114 -78c0 -23 -14 -42 -32 -52h-50v26c0 38 -13 64 -55 64c-51 0 -75 -52 -75 -146v-52h131v-51h-131v-381c0 -50 25 -53 97 -61v-35h-266v35c44 6 77 11 77 57v385h-236v-385c0 -46 32 -51 77 -57v-35
h-246v35c44 6 77 11 77 57v385h-74v33l74 26v12c0 123 95 206 213 206zM445 554c0 24 2 47 8 69c-23 49 -70 90 -127 90c-71 0 -117 -49 -117 -139v-46h236v26z" />
    <glyph glyph-name="ffi" unicode="ffi" horiz-adv-x="977" 
d="M330 754c75 0 132 -29 162 -62c37 46 96 74 169 74c82 0 142 -25 142 -78c0 -25 -15 -45 -34 -56h-58v25c0 51 -21 70 -69 70c-57 0 -105 -49 -105 -153v-46h278l28 12h22v-448c0 -46 32 -51 77 -57v-35h-246v35c44 6 77 11 77 57v385h-236v-385c0 -46 32 -51 77 -57v-35
h-246v35c44 6 77 11 77 57v385h-236v-385c0 -46 32 -51 77 -57v-35h-246v35c44 6 77 11 77 57v385h-74v33l74 26v12c0 123 95 206 213 206zM209 574v-46h236v22c0 24 3 47 9 69c-22 51 -70 94 -128 94c-71 0 -117 -49 -117 -139z" />
    <glyph glyph-name="ffl" unicode="ffl" horiz-adv-x="976" 
d="M117 536v12c0 123 95 206 213 206c74 0 131 -28 161 -61c36 46 91 73 157 73c49 0 92 -15 121 -37l71 32h25v-669c0 -46 33 -51 77 -57v-35h-247v35c45 6 78 11 78 57v547c-25 51 -69 88 -129 88c-71 0 -107 -57 -107 -147v-50h132v-53h-132v-385c0 -46 32 -51 77 -57
v-35h-246v35c44 6 77 11 77 57v385h-236v-385c0 -46 32 -51 77 -57v-35h-246v35c44 6 77 11 77 57v385h-74v33zM445 554c0 23 3 45 9 66c-22 51 -70 93 -128 93c-71 0 -117 -49 -117 -139v-46h236v26z" />
    <glyph glyph-name="f_b" unicode="fb" horiz-adv-x="955" 
d="M445 57v582c-25 51 -69 88 -129 88c-71 0 -107 -57 -107 -147v-50h132v-53h-132v-385c0 -46 32 -51 77 -57v-35h-246v35c44 6 77 11 77 57v385h-74v33l74 26v18c0 123 85 212 203 212c49 0 92 -15 121 -37l71 32h25v-308c41 53 97 87 170 87c137 0 208 -112 208 -250
c0 -185 -115 -300 -256 -300c-99 0 -173 32 -214 67zM666 36c93 0 157 83 157 212c0 113 -44 225 -156 225c-50 0 -100 -17 -130 -49v-249c0 -102 51 -139 129 -139z" />
    <glyph glyph-name="f_f_b" unicode="ffb" horiz-adv-x="1283" 
d="M773 57v582c-25 51 -69 88 -129 88c-71 0 -107 -57 -107 -147v-50h132v-53h-132v-385c0 -46 32 -51 77 -57v-35h-246v35c44 6 77 11 77 57v385h-236v-385c0 -46 32 -51 77 -57v-35h-246v35c44 6 77 11 77 57v385h-74v33l74 26v12c0 123 95 206 213 206
c74 0 131 -28 161 -61c36 46 91 73 157 73c49 0 92 -15 121 -37l71 32h25v-308c41 53 97 87 170 87c137 0 208 -112 208 -250c0 -185 -115 -300 -256 -300c-99 0 -173 32 -214 67zM994 36c93 0 157 83 157 212c0 113 -44 225 -156 225c-50 0 -100 -17 -130 -49v-249
c0 -102 51 -139 129 -139zM445 554c0 23 3 45 9 66c-22 51 -70 93 -128 93c-71 0 -117 -49 -117 -139v-46h236v26z" />
    <glyph glyph-name="f_h" unicode="fh" horiz-adv-x="971" 
d="M445 92v547c-25 51 -69 88 -129 88c-71 0 -107 -57 -107 -147v-50h132v-53h-132v-385c0 -46 32 -51 77 -57v-35h-246v35c44 6 77 11 77 57v385h-74v33l74 26v18c0 123 85 212 203 212c49 0 92 -15 121 -37l71 32h25v-319c49 48 108 98 191 98c87 0 140 -47 140 -164v-284
c0 -46 33 -51 78 -57v-35h-247v35c44 6 77 11 77 57v277c0 72 -29 97 -93 97c-52 0 -107 -23 -146 -53v-321c0 -46 33 -51 77 -57v-35h-247v35c45 6 78 11 78 57z" />
    <glyph glyph-name="f_f_h" unicode="ffh" horiz-adv-x="1299" 
d="M773 92v547c-25 51 -69 88 -129 88c-71 0 -107 -57 -107 -147v-50h132v-53h-132v-385c0 -46 32 -51 77 -57v-35h-246v35c44 6 77 11 77 57v385h-236v-385c0 -46 32 -51 77 -57v-35h-246v35c44 6 77 11 77 57v385h-74v33l74 26v12c0 123 95 206 213 206
c74 0 131 -28 161 -61c36 46 91 73 157 73c49 0 92 -15 121 -37l71 32h25v-319c49 48 108 98 191 98c87 0 140 -47 140 -164v-284c0 -46 33 -51 78 -57v-35h-247v35c44 6 77 11 77 57v277c0 72 -29 97 -93 97c-52 0 -107 -23 -146 -53v-321c0 -46 33 -51 77 -57v-35h-247v35
c45 6 78 11 78 57zM445 554c0 23 3 45 9 66c-22 51 -70 93 -128 93c-71 0 -117 -49 -117 -139v-46h236v26z" />
    <glyph glyph-name="f_idieresis" unicode="f&#xef;" horiz-adv-x="649" 
d="M523 677c0 33 27 60 61 60s61 -27 61 -60c0 -35 -27 -62 -61 -62s-61 27 -61 62zM117 536v18c0 123 80 212 202 212c77 0 122 -28 122 -78c0 -23 -14 -46 -32 -56h-65v26c0 38 -10 68 -48 68c-51 0 -87 -52 -87 -146v-52h278l28 12h22v-448c0 -46 32 -51 77 -57v-35h-246
v35c44 6 77 11 77 57v385h-236v-385c0 -46 32 -51 77 -57v-35h-246v35c44 6 77 11 77 57v385h-74v33z" />
    <glyph glyph-name="f_f_idieresis" unicode="ff&#xef;" horiz-adv-x="977" 
d="M330 754c73 0 130 -28 160 -60c35 45 90 72 157 72c77 0 122 -28 122 -78c0 -23 -14 -46 -32 -56h-65v26c0 38 -10 68 -48 68c-51 0 -87 -52 -87 -146v-52h278l28 12h22v-448c0 -46 32 -51 77 -57v-35h-246v35c44 6 77 11 77 57v385h-236v-385c0 -46 32 -51 77 -57v-35
h-246v35c44 6 77 11 77 57v385h-236v-385c0 -46 32 -51 77 -57v-35h-246v35c44 6 77 11 77 57v385h-74v33l74 26v12c0 123 95 206 213 206zM445 528v26c0 24 3 46 8 67c-22 50 -70 92 -127 92c-71 0 -117 -49 -117 -139v-46h236zM851 677c0 33 27 60 61 60s61 -27 61 -60
c0 -35 -27 -62 -61 -62s-61 27 -61 62z" />
    <glyph glyph-name="f_j" unicode="fj" horiz-adv-x="616" 
d="M445 477h-236v-385c0 -46 32 -51 77 -57v-35h-246v35c44 6 77 11 77 57v385h-74v33l74 26v14c0 127 85 216 216 216c82 0 142 -25 142 -78c0 -25 -15 -45 -34 -56h-58v25c0 51 -21 70 -69 70c-57 0 -105 -49 -105 -153v-46h278l28 12h22v-454c0 -73 -2 -114 -25 -161
c-27 -53 -76 -92 -133 -133l-23 25l32 41c51 65 57 115 57 212v407z" />
    <glyph glyph-name="f_f_j" unicode="ffj" horiz-adv-x="944" 
d="M773 477h-236v-385c0 -46 32 -51 77 -57v-35h-246v35c44 6 77 11 77 57v385h-236v-385c0 -46 32 -51 77 -57v-35h-246v35c44 6 77 11 77 57v385h-74v33l74 26v12c0 123 95 206 213 206c75 0 132 -29 162 -62c37 46 96 74 169 74c82 0 142 -25 142 -78
c0 -25 -15 -45 -34 -56h-58v25c0 51 -21 70 -69 70c-57 0 -105 -49 -105 -153v-46h278l28 12h22v-454c0 -73 -2 -114 -25 -161c-27 -53 -76 -92 -133 -133l-23 25l32 41c51 65 57 115 57 212v407zM445 550c0 24 3 47 9 69c-22 51 -70 94 -128 94c-71 0 -117 -49 -117 -139
v-46h236v22z" />
    <glyph glyph-name="f_k" unicode="fk" horiz-adv-x="903" 
d="M547 283l166 158c10 10 16 17 16 27c0 16 -16 19 -76 27v35h227v-35c-40 -9 -57 -17 -80 -38l-158 -147l257 -283v-27h-101zM445 92v547c-25 51 -69 88 -129 88c-71 0 -107 -57 -107 -147v-50h132v-53h-132v-385c0 -46 32 -51 77 -57v-35h-246v35c44 6 77 11 77 57v385
h-74v33l74 26v18c0 123 85 212 203 212c49 0 92 -15 121 -37l71 32h25v-669c0 -46 33 -51 77 -57v-35h-247v35c45 6 78 11 78 57z" />
    <glyph glyph-name="f_f_k" unicode="ffk" horiz-adv-x="1231" 
d="M773 92v547c-25 51 -69 88 -129 88c-71 0 -107 -57 -107 -147v-50h132v-53h-132v-385c0 -46 32 -51 77 -57v-35h-246v35c44 6 77 11 77 57v385h-236v-385c0 -46 32 -51 77 -57v-35h-246v35c44 6 77 11 77 57v385h-74v33l74 26v12c0 123 95 206 213 206
c74 0 131 -28 161 -61c36 46 91 73 157 73c49 0 92 -15 121 -37l71 32h25v-669c0 -46 33 -51 77 -57v-35h-247v35c45 6 78 11 78 57zM875 283l166 158c10 10 16 17 16 27c0 16 -16 19 -76 27v35h227v-35c-40 -9 -57 -17 -80 -38l-158 -147l257 -283v-27h-101zM445 554
c0 23 3 45 9 66c-22 51 -70 93 -128 93c-71 0 -117 -49 -117 -139v-46h236v26z" />
    <glyph glyph-name=".notdef" horiz-adv-x="960" 
 />
    <glyph glyph-name="space" unicode=" " horiz-adv-x="225" 
 />
    <glyph glyph-name="exclam" unicode="!" horiz-adv-x="292" 
d="M73 63c0 41 32 73 73 73s73 -32 73 -73s-32 -73 -73 -73s-73 32 -73 73zM211 702l-43 -499h-45l-43 499h131z" />
    <glyph glyph-name="quotedbl" unicode="&#x22;" horiz-adv-x="390" 
d="M120 472h-22l-28 144c-5 27 -15 69 -15 85c0 38 20 61 54 61s54 -23 54 -61c0 -16 -10 -58 -15 -85zM292 472h-22l-28 144c-5 27 -15 69 -15 85c0 38 20 61 54 61s54 -23 54 -61c0 -16 -10 -58 -15 -85z" />
    <glyph glyph-name="numbersign" unicode="#" horiz-adv-x="584" 
d="M483 210h-116l-70 -220l-51 18l64 202h-127l-70 -220l-51 18l64 202h-96v53h113l57 177h-99v53h116l70 220l51 -18l-65 -202h128l70 220l51 -18l-65 -202h97v-53h-114l-56 -177h99v-53zM256 440l-56 -177h127l57 177h-128z" />
    <glyph glyph-name="dollar" unicode="$" horiz-adv-x="537" 
d="M166 -113l18 108c-57 9 -106 29 -137 56l-7 168h33c20 -74 58 -138 121 -164l44 263l-39 17c-83 35 -152 76 -152 188c0 106 82 189 217 189c13 0 27 -1 40 -2l18 104h45l-19 -111c48 -10 92 -27 120 -50v-153h-32c-16 68 -46 118 -98 143l-41 -241l36 -15
c96 -39 164 -80 164 -196c0 -129 -110 -201 -247 -201c-8 0 -15 0 -22 1l-17 -104h-45zM292 296l-12 5l-43 -257c7 -1 14 -1 22 -1c93 0 151 47 151 119c0 74 -47 104 -118 134zM133 552c0 -62 34 -96 100 -123l22 -10l40 237c-11 2 -23 3 -36 3c-81 0 -126 -44 -126 -107z
" />
    <glyph glyph-name="percent" unicode="%" horiz-adv-x="865" 
d="M121 530c0 -74 25 -141 93 -141c69 0 94 67 94 141s-25 141 -94 141c-68 0 -93 -67 -93 -141zM178 -19l450 741h59l-450 -741h-59zM40 530c0 113 83 182 174 182c92 0 175 -69 175 -182s-83 -182 -175 -182c-91 0 -174 69 -174 182zM744 173c0 74 -25 141 -93 141
c-69 0 -94 -67 -94 -141s25 -141 94 -141c68 0 93 67 93 141zM825 173c0 -113 -83 -182 -174 -182c-92 0 -175 69 -175 182s83 182 175 182c91 0 174 -69 174 -182z" />
    <glyph glyph-name="ampersand" unicode="&#x26;" horiz-adv-x="691" 
d="M28 184c0 104 69 162 160 200c-29 35 -66 89 -66 159c0 96 72 169 178 169c114 0 174 -61 174 -145c0 -80 -69 -139 -173 -181l188 -215c17 36 26 76 26 119c0 50 -12 68 -51 68v39h200v-39c-79 0 -89 -13 -99 -72c-9 -55 -25 -105 -48 -147l41 -46
c32 -36 64 -55 106 -55v-38h-121c-27 13 -50 35 -80 67c-49 -49 -116 -77 -200 -77c-116 0 -235 61 -235 194zM283 40c62 0 114 22 153 58l-222 257c-58 -26 -88 -84 -88 -157c0 -96 70 -158 157 -158zM198 570c0 -61 36 -108 73 -150l4 -5c78 32 118 74 118 152
c0 62 -36 103 -98 103c-58 0 -97 -36 -97 -100z" />
    <glyph glyph-name="quoteright" unicode="&#x2019;" horiz-adv-x="268" 
d="M154 640h-38c-28 6 -45 25 -45 58c0 38 29 63 66 63c50 0 75 -40 75 -92c0 -82 -46 -150 -162 -158v40c73 11 104 41 104 89z" />
    <glyph glyph-name="parenleft" unicode="(" horiz-adv-x="338" 
d="M60 314c0 166 67 342 198 456h50c-128 -137 -165 -294 -165 -456s37 -318 165 -455h-50c-131 114 -198 289 -198 455z" />
    <glyph glyph-name="parenright" unicode=")" horiz-adv-x="338" 
d="M278 314c0 -166 -67 -341 -198 -455h-50c128 137 164 293 164 455s-36 319 -164 456h50c131 -114 198 -290 198 -456z" />
    <glyph glyph-name="asterisk" unicode="*" horiz-adv-x="436" 
d="M368 462l-135 92l13 -162h-56l13 163l-135 -93l-28 49l147 70l-147 70l28 49l135 -93l-13 163h56l-13 -163l135 93l28 -49l-148 -70l148 -70z" />
    <glyph glyph-name="plus" unicode="+" horiz-adv-x="564" 
d="M251 590h61v-188h189v-62h-189v-188h-61v188h-188v62h188v188z" />
    <glyph glyph-name="comma" unicode="," horiz-adv-x="284" 
d="M154 6h-38c-28 6 -45 25 -45 58c0 38 29 63 66 63c50 0 75 -40 75 -92c0 -82 -46 -150 -162 -158v40c73 11 104 41 104 89z" />
    <glyph glyph-name="hyphen" unicode="-" horiz-adv-x="360" 
d="M310 267h-260v76h260v-76z" />
    <glyph glyph-name="period" unicode="." horiz-adv-x="284" 
d="M69 63c0 41 32 73 73 73s73 -32 73 -73s-32 -73 -73 -73s-73 32 -73 73z" />
    <glyph glyph-name="slash" unicode="/" horiz-adv-x="397" 
d="M359 770l-277 -911h-62l277 911h62z" />
    <glyph glyph-name="zero" unicode="0" horiz-adv-x="635" 
d="M318 712c178 0 272 -160 272 -361s-94 -361 -272 -361c-179 0 -273 160 -273 361s94 361 273 361zM318 662c-128 0 -161 -154 -161 -311s33 -312 161 -312c127 0 160 155 160 312s-33 311 -160 311z" />
    <glyph glyph-name="one" unicode="1" horiz-adv-x="419" 
d="M250 711h22v-599c0 -61 21 -65 129 -72v-40h-365v40c108 7 138 11 138 72v464h-138v31l31 4c96 14 134 32 183 100z" />
    <glyph glyph-name="two" unicode="2" horiz-adv-x="516" 
d="M134 85h163c84 0 115 9 164 103h29l-41 -188h-438v22l175 184c134 141 166 204 166 287c0 88 -48 137 -134 137c-76 0 -127 -47 -169 -94l-23 23c41 77 114 153 227 153c128 0 202 -80 202 -201c0 -146 -152 -254 -321 -426z" />
    <glyph glyph-name="three" unicode="3" horiz-adv-x="527" 
d="M285 397c125 -13 206 -88 206 -189c0 -138 -113 -218 -245 -218c-147 0 -224 68 -224 140c0 35 23 60 44 71h54v-34c0 -83 47 -132 132 -132c89 0 137 55 137 142c0 106 -86 158 -203 158h-35l-7 34c116 29 207 68 207 166c0 64 -46 100 -110 100
c-68 0 -121 -40 -152 -94l-25 20c34 80 104 151 213 151s172 -65 172 -153c0 -93 -90 -145 -164 -162z" />
    <glyph glyph-name="four" unicode="4" horiz-adv-x="605" 
d="M91 232h271v331zM362 112v68h-344v38l391 484h48v-470h121v-52h-121v-68c0 -61 36 -71 104 -73v-39h-303v39c68 2 104 12 104 73z" />
    <glyph glyph-name="five" unicode="5" horiz-adv-x="515" 
d="M441 702v-95h-278l-24 -153c189 -9 335 -75 335 -242c0 -130 -92 -222 -229 -222c-143 0 -218 68 -218 140c0 35 22 60 42 71h58v-34c0 -83 41 -132 123 -132c90 0 137 57 137 142c0 134 -133 191 -311 192l53 333h312z" />
    <glyph glyph-name="six" unicode="6" horiz-adv-x="576" 
d="M472 679c-193 -56 -302 -180 -320 -317c43 49 110 81 179 81c120 0 204 -76 204 -207c0 -149 -101 -246 -239 -246c-160 0 -251 125 -251 287c0 230 154 392 407 434zM278 377c-50 0 -100 -21 -128 -42c-2 -17 -3 -44 -3 -57c0 -147 64 -241 155 -241
c88 0 134 65 134 168c0 109 -57 172 -158 172z" />
    <glyph glyph-name="seven" unicode="7" horiz-adv-x="496" 
d="M410 607h-262c-50 0 -69 -13 -96 -65h-36l42 160h425v-28l-285 -674h-109z" />
    <glyph glyph-name="eight" unicode="8" horiz-adv-x="552" 
d="M485 544c0 -81 -70 -139 -138 -161l35 -17c76 -38 130 -92 130 -180c0 -105 -72 -196 -236 -196c-140 0 -236 75 -236 188c0 88 67 147 153 176l-12 6c-68 34 -114 82 -114 168c0 102 73 184 209 184c127 0 209 -68 209 -168zM325 291l-106 50c-64 -39 -89 -98 -89 -163
c0 -84 58 -141 146 -141c89 0 149 48 149 128c0 64 -45 100 -100 126zM245 436l76 -39c60 36 81 84 81 147c0 75 -51 121 -126 121c-78 0 -123 -46 -123 -111c0 -59 32 -87 92 -118z" />
    <glyph glyph-name="nine" unicode="9" horiz-adv-x="576" 
d="M104 23c193 56 302 180 320 317c-43 -49 -110 -81 -179 -81c-120 0 -204 76 -204 207c0 149 101 246 239 246c160 0 251 -125 251 -287c0 -230 -154 -392 -407 -434zM298 325c50 0 100 21 128 42c2 17 3 44 3 57c0 147 -64 241 -155 241c-88 0 -134 -65 -134 -168
c0 -109 57 -172 158 -172z" />
    <glyph glyph-name="colon" unicode=":" horiz-adv-x="284" 
d="M69 63c0 41 32 73 73 73s73 -32 73 -73s-32 -73 -73 -73s-73 32 -73 73zM69 383c0 41 32 73 73 73s73 -32 73 -73s-32 -73 -73 -73s-73 32 -73 73z" />
    <glyph glyph-name="semicolon" unicode=";" horiz-adv-x="284" 
d="M69 383c0 41 32 73 73 73s73 -32 73 -73s-32 -73 -73 -73s-73 32 -73 73zM154 6h-38c-28 6 -45 25 -45 58c0 38 29 63 66 63c50 0 75 -40 75 -92c0 -82 -46 -150 -162 -158v40c73 11 104 41 104 89z" />
    <glyph glyph-name="less" unicode="&#x3c;" horiz-adv-x="413" 
d="M40 364v10l310 189v-76l-199 -117l199 -119v-76z" />
    <glyph glyph-name="equal" unicode="=" horiz-adv-x="574" 
d="M68 271v61h438v-61h-438zM68 409v62h438v-62h-438z" />
    <glyph glyph-name="greater" unicode="&#x3e;" horiz-adv-x="413" 
d="M373 374v-10l-310 -189v76l200 119l-200 117v76z" />
    <glyph glyph-name="question" unicode="?" horiz-adv-x="438" 
d="M318 569c0 59 -38 96 -102 96c-62 0 -88 -36 -88 -94v-37h-80c-13 12 -21 27 -21 48c0 74 85 130 187 130c117 0 197 -55 197 -167c0 -83 -48 -136 -121 -190c-54 -39 -77 -70 -77 -130v-32h-29c-9 16 -29 54 -29 90c0 56 22 99 79 146c47 39 84 69 84 140zM125 63
c0 41 32 73 73 73s73 -32 73 -73s-32 -73 -73 -73s-73 32 -73 73z" />
    <glyph glyph-name="at" unicode="@" horiz-adv-x="892" 
d="M606 75c-101 0 -111 98 -82 188h-6c-45 -107 -115 -187 -180 -187c-56 0 -93 45 -93 124c0 154 123 302 243 302c36 0 68 -11 90 -32l47 38h37l-27 -89l-50 -208c-9 -38 -14 -96 33 -96c79 0 161 95 161 243c0 171 -103 294 -300 294c-206 0 -361 -183 -361 -405
c0 -200 144 -337 349 -337c97 0 176 22 262 73l14 -30c-64 -55 -173 -90 -286 -90c-239 0 -407 152 -407 385c0 244 185 444 429 444c224 0 363 -139 363 -334c0 -175 -118 -283 -236 -283zM371 134c57 0 138 118 185 294c-13 26 -35 37 -60 37c-99 0 -167 -157 -167 -263
c0 -44 15 -68 42 -68z" />
    <glyph glyph-name="A" unicode="A" horiz-adv-x="723" 
d="M532 122l-47 110h-295l-44 -109c-6 -15 -11 -29 -11 -40c0 -31 25 -42 94 -44v-39h-224v39c27 4 50 10 61 37l237 569l-31 66h111l275 -635c11 -27 31 -33 60 -37v-39h-268v39c69 2 93 12 93 43c0 12 -5 25 -11 40zM335 589l-127 -313h259z" />
    <glyph glyph-name="B" unicode="B" horiz-adv-x="662" 
d="M34 0v39c67 2 102 12 102 73v478c0 61 -35 71 -102 73v39h305c155 0 243 -59 243 -176c0 -101 -84 -147 -175 -163c136 -11 211 -75 211 -175c0 -112 -94 -188 -258 -188h-326zM332 336h-100v-224c0 -54 30 -67 101 -67h13c115 0 166 46 166 143c0 82 -49 148 -180 148z
M310 656h-78v-275h78c114 0 167 45 167 145c0 69 -50 130 -167 130z" />
    <glyph glyph-name="C" unicode="C" horiz-adv-x="673" 
d="M394 41c100 0 158 59 197 174h37l-23 -170c-65 -33 -127 -55 -233 -55c-198 0 -329 145 -329 346c0 234 152 376 345 376c105 0 170 -27 216 -63v-153h-36c-27 116 -94 165 -186 165c-161 0 -232 -134 -232 -297c0 -182 82 -323 244 -323z" />
    <glyph glyph-name="D" unicode="D" horiz-adv-x="755" 
d="M322 656h-90v-539c0 -59 32 -71 102 -71h22c154 0 249 106 249 303c0 156 -77 307 -283 307zM34 663v39h307c260 0 371 -157 371 -331c0 -241 -160 -371 -356 -371h-322v39c67 2 102 12 102 73v478c0 61 -35 71 -102 73z" />
    <glyph glyph-name="E" unicode="E" horiz-adv-x="670" 
d="M508 246h-34c-10 60 -28 90 -72 90h-170v-222c0 -54 30 -68 101 -68h100c88 0 105 29 169 134h28l-30 -180h-566v39c67 2 102 12 102 73v478c0 61 -35 71 -102 73v39h561v-167h-27c-36 87 -64 121 -145 121h-191v-274h170c44 0 62 30 72 90h34v-226z" />
    <glyph glyph-name="F" unicode="F" horiz-adv-x="607" 
d="M361 0h-327v39c67 2 102 12 102 73v478c0 61 -35 71 -102 73v39h543v-173h-26c-37 87 -65 127 -145 127h-174v-289h152c44 0 62 30 73 90h33v-226h-33c-11 60 -29 90 -73 90h-152v-209c0 -61 49 -69 129 -73v-39z" />
    <glyph glyph-name="G" unicode="G" horiz-adv-x="735" 
d="M43 336c0 234 157 376 350 376c105 0 175 -27 221 -63v-153h-36c-27 116 -99 165 -191 165c-161 0 -237 -134 -237 -297c0 -182 82 -323 244 -323c63 0 102 11 138 44v140c0 60 -34 70 -98 73v38h281v-38c-63 -3 -90 -13 -90 -73v-163c-64 -45 -143 -72 -240 -72
c-211 0 -342 143 -342 346z" />
    <glyph glyph-name="H" unicode="H" horiz-adv-x="835" 
d="M603 112v224h-371v-224c0 -61 37 -71 102 -73v-39h-300v39c67 2 102 12 102 73v478c0 61 -35 71 -102 73v39h300v-39c-65 -2 -102 -12 -102 -73v-208h371v208c0 61 -37 71 -102 73v39h300v-39c-67 -2 -102 -12 -102 -73v-478c0 -61 35 -71 102 -73v-39h-300v39
c65 2 102 12 102 73z" />
    <glyph glyph-name="I" unicode="I" horiz-adv-x="368" 
d="M334 0h-300v39c67 2 102 12 102 73v478c0 61 -35 71 -102 73v39h300v-39c-67 -2 -102 -12 -102 -73v-478c0 -61 35 -71 102 -73v-39z" />
    <glyph glyph-name="J" unicode="J" horiz-adv-x="520" 
d="M405 590v-390c0 -142 -77 -209 -205 -209c-115 0 -190 49 -190 124c0 27 12 51 27 64h71v-45c0 -68 41 -100 98 -100c60 0 102 39 102 150v406c0 61 -35 71 -101 73v39h300v-39c-67 -2 -102 -12 -102 -73z" />
    <glyph glyph-name="K" unicode="K" horiz-adv-x="714" 
d="M343 384l238 -266c57 -63 84 -75 129 -79v-39h-135c-33 18 -61 44 -99 87l-233 270l251 241c11 10 22 22 22 37c0 18 -11 23 -80 28v39h255v-39c-47 -2 -77 -19 -110 -51zM136 112v478c0 61 -35 71 -102 73v39h300v-39c-65 -2 -101 -12 -101 -73v-478
c0 -61 36 -71 101 -73v-39h-300v39c67 2 102 12 102 73z" />
    <glyph glyph-name="L" unicode="L" horiz-adv-x="614" 
d="M233 590v-476c0 -54 30 -68 101 -68h58c88 0 110 45 166 149h32l-32 -195h-524v39c67 2 102 12 102 73v478c0 61 -35 71 -102 73v39h300v-39c-65 -2 -101 -12 -101 -73z" />
    <glyph glyph-name="M" unicode="M" horiz-adv-x="931" 
d="M734 127l-54 426l-211 -553h-34l-224 556l-53 -429c-1 -7 -2 -21 -2 -24c0 -49 24 -61 95 -64v-39h-236v39c57 2 78 13 84 60l63 491c0 53 -18 71 -85 73v39h183c2 -23 6 -35 15 -56l198 -502l188 502c8 21 14 33 16 56h177v-39c-66 -2 -84 -20 -84 -73l63 -491
c6 -47 27 -58 83 -60v-39h-275v39c70 3 95 15 95 64c0 3 -1 17 -2 24z" />
    <glyph glyph-name="N" unicode="N" horiz-adv-x="806" 
d="M136 112v488c-40 47 -53 62 -102 63v39h171l416 -527v415c0 61 -35 71 -102 73v39h262v-39c-67 -2 -102 -12 -102 -73v-590h-41l-444 555v-443c0 -61 35 -71 102 -73v-39h-262v39c67 2 102 12 102 73z" />
    <glyph glyph-name="O" unicode="O" horiz-adv-x="748" 
d="M385 45c142 0 213 132 213 303c0 153 -69 309 -235 309c-142 0 -213 -132 -213 -303c0 -153 69 -309 235 -309zM377 712c207 0 328 -161 328 -347c0 -229 -152 -375 -334 -375c-207 0 -328 161 -328 347c0 229 152 375 334 375z" />
    <glyph glyph-name="P" unicode="P" horiz-adv-x="613" 
d="M349 287h-116v-175c0 -61 48 -69 128 -73v-39h-327v39c67 2 102 12 102 73v478c0 61 -35 71 -102 73v39h298c192 0 262 -101 262 -205c0 -117 -75 -210 -245 -210zM233 656v-323h79c123 0 175 50 175 160c0 95 -52 163 -175 163h-79z" />
    <glyph glyph-name="Q" unicode="Q" horiz-adv-x="748" 
d="M377 712c207 0 328 -161 328 -347c0 -194 -109 -328 -252 -365l26 -28c67 -72 113 -118 169 -125v-19c-21 -7 -50 -11 -67 -11c-73 0 -122 25 -163 81l-66 93c-196 9 -309 165 -309 346c0 229 152 375 334 375zM385 45c142 0 213 132 213 303c0 153 -69 309 -235 309
c-142 0 -213 -132 -213 -303c0 -153 69 -309 235 -309z" />
    <glyph glyph-name="R" unicode="R" horiz-adv-x="704" 
d="M298 656h-66v-306h70c119 0 176 52 176 155c0 85 -53 151 -180 151zM34 702h294c178 0 256 -81 256 -197c0 -113 -98 -177 -193 -186l168 -209c32 -40 75 -68 129 -71v-39h-143c-37 23 -58 45 -91 88l-169 218h-53v-194c0 -61 36 -71 101 -73v-39h-299v39
c67 2 102 12 102 73v478c0 61 -35 71 -102 73v39z" />
    <glyph glyph-name="S" unicode="S" horiz-adv-x="556" 
d="M265 -10c-94 0 -174 32 -218 69l-7 164h35c30 -105 91 -183 193 -183c94 0 151 46 151 128c0 69 -45 101 -166 146c-133 49 -205 97 -205 210c0 106 79 188 219 188c81 0 154 -27 208 -63v-153h-33c-23 97 -83 166 -180 166c-84 0 -127 -48 -127 -112
c0 -68 34 -99 158 -145c147 -54 217 -106 217 -217c0 -128 -112 -198 -245 -198z" />
    <glyph glyph-name="T" unicode="T" horiz-adv-x="663" 
d="M30 702h602l16 -209h-32c-59 137 -70 164 -161 164h-76v-545c0 -61 39 -71 106 -73v-39h-308v39c67 2 105 12 105 73v545h-74c-91 0 -102 -27 -162 -164h-31z" />
    <glyph glyph-name="U" unicode="U" horiz-adv-x="766" 
d="M207 590v-344c0 -125 69 -193 183 -193c135 0 209 57 209 201v336c0 61 -36 71 -102 73v39h261v-39c-66 -2 -101 -12 -101 -73v-355c0 -166 -126 -244 -269 -244c-168 0 -278 77 -278 246v353c0 61 -36 71 -102 73v39h300v-39c-66 -2 -101 -12 -101 -73z" />
    <glyph glyph-name="V" unicode="V" horiz-adv-x="714" 
d="M388 133l177 446c6 15 11 28 11 40c0 31 -24 42 -94 44v39h227v-39c-29 -4 -49 -10 -61 -37l-265 -635h-30l-287 635c-12 27 -33 33 -61 37v39h267v-39c-69 -2 -93 -12 -93 -43c0 -12 4 -24 11 -40z" />
    <glyph glyph-name="W" unicode="W" horiz-adv-x="961" 
d="M669 148l152 431c5 15 11 28 11 40c0 31 -24 42 -94 44v39h218v-39c-27 -4 -50 -8 -60 -37l-230 -635h-29l-153 431l-152 -431h-29l-237 635c-11 27 -34 33 -61 37v39h266v-39c-69 -2 -93 -12 -93 -43c0 -12 5 -25 10 -40l153 -432l118 346l-45 132c-11 30 -34 33 -61 37
v39h256v-39c-70 -2 -94 -12 -94 -43c0 -12 5 -25 10 -40z" />
    <glyph glyph-name="X" unicode="X" horiz-adv-x="711" 
d="M599 613l-192 -244l206 -280c26 -36 52 -50 93 -50v-39h-292v39c80 0 88 9 88 31c0 14 -13 33 -27 52l-136 188l-147 -185c-16 -20 -27 -37 -27 -54c0 -22 8 -32 90 -32v-39h-250v39c40 0 61 10 92 50l210 265l-191 259c-27 37 -52 50 -92 50v39h295v-39
c-77 0 -90 -8 -90 -30c0 -17 13 -36 28 -56l117 -164l130 164c15 20 27 39 27 56c0 22 -13 30 -90 30v39h250v-39c-40 0 -61 -10 -92 -50z" />
    <glyph glyph-name="Y" unicode="Y" horiz-adv-x="663" 
d="M350 334l157 246c10 17 17 30 17 46c0 27 -21 35 -91 37v39h225v-39c-29 -4 -45 -11 -61 -37l-221 -343v-171c0 -61 36 -71 101 -73v-39h-298v39c67 2 102 12 102 73v170l-215 344c-16 26 -33 33 -61 37v39h265v-39c-69 -2 -91 -10 -91 -37c0 -16 7 -29 18 -46z" />
    <glyph glyph-name="Z" unicode="Z" horiz-adv-x="620" 
d="M155 47h242c88 0 111 47 166 151h33l-33 -198h-538v25l427 629h-223c-80 0 -95 -30 -142 -137h-29v185h521v-26z" />
    <glyph glyph-name="bracketleft" unicode="[" horiz-adv-x="312" 
d="M154 678v-727c0 -52 33 -55 113 -60v-32h-182v911h182v-32c-80 -5 -113 -8 -113 -60z" />
    <glyph glyph-name="backslash" unicode="\" horiz-adv-x="397" 
d="M316 -141l-278 911h62l278 -911h-62z" />
    <glyph glyph-name="bracketright" unicode="]" horiz-adv-x="312" 
d="M158 -49v727c0 52 -33 55 -113 60v32h182v-911h-182v32c80 5 113 8 113 60z" />
    <glyph glyph-name="asciicircum" unicode="^" horiz-adv-x="462" 
d="M195 770h72l155 -290h-67l-124 235l-124 -235h-67z" />
    <glyph glyph-name="underscore" unicode="_" horiz-adv-x="440" 
d="M420 -120h-400v54h400v-54z" />
    <glyph glyph-name="quoteleft" unicode="&#x2018;" horiz-adv-x="268" 
d="M117 632h38c28 -6 45 -25 45 -58c0 -38 -29 -63 -66 -63c-50 0 -75 40 -75 92c0 82 46 150 162 158v-40c-73 -11 -104 -41 -104 -89z" />
    <glyph glyph-name="a" unicode="a" horiz-adv-x="535" 
d="M219 60c47 0 81 14 123 45v179l-142 -54c-37 -14 -61 -43 -61 -81c0 -57 29 -89 80 -89zM435 372c0 -33 -3 -206 -3 -248c0 -44 17 -68 46 -68c9 0 32 2 47 6l5 -24c-34 -34 -65 -48 -100 -48c-51 0 -76 37 -85 91c-36 -41 -93 -91 -167 -91c-91 0 -133 62 -133 135
c0 93 74 125 139 148l158 57v49c0 60 -21 113 -99 113c-54 0 -82 -23 -82 -74c0 -17 2 -32 7 -52l-75 -10c-14 14 -21 30 -21 54c0 82 81 130 190 130c115 0 173 -59 173 -168z" />
    <glyph glyph-name="b" unicode="b" horiz-adv-x="593" 
d="M83 655l-73 35v21l140 50h25v-308c41 53 97 87 170 87c137 0 208 -112 208 -250c0 -185 -115 -300 -256 -300c-99 0 -173 32 -214 67v598zM304 36c93 0 157 83 157 212c0 113 -44 225 -156 225c-50 0 -100 -17 -130 -49v-249c0 -102 51 -139 129 -139z" />
    <glyph glyph-name="c" unicode="c" horiz-adv-x="506" 
d="M124 286c0 -131 64 -220 177 -220c69 0 114 31 152 85l18 -10c-29 -101 -102 -151 -203 -151c-137 0 -228 108 -228 258c0 158 102 292 256 292c106 0 169 -47 169 -123c0 -35 -18 -50 -40 -60h-51v34c0 56 -28 99 -91 99c-95 0 -159 -88 -159 -204z" />
    <glyph glyph-name="d" unicode="d" horiz-adv-x="619" 
d="M418 -10v89c-41 -53 -91 -89 -165 -89c-136 0 -213 112 -213 250c0 185 111 300 252 300c54 0 102 -21 126 -55v170l-73 35v21l141 50h24v-653c0 -34 11 -41 57 -46l26 -3v-34l-160 -35h-15zM289 494c-94 0 -157 -88 -157 -217c0 -113 49 -218 156 -218
c50 0 100 19 130 51v245c0 95 -51 139 -129 139z" />
    <glyph glyph-name="e" unicode="e" horiz-adv-x="522" 
d="M280 540c132 0 201 -92 201 -223v-31h-358c0 -131 70 -220 183 -220c75 0 122 37 159 86l17 -9c-24 -89 -98 -153 -210 -153c-146 0 -232 115 -232 258c0 175 102 292 240 292zM265 491c-79 0 -130 -74 -138 -157h262c0 96 -42 157 -124 157z" />
    <glyph glyph-name="f" unicode="f" horiz-adv-x="361" 
d="M209 477v-381c0 -50 25 -53 97 -61v-35h-266v35c44 6 77 11 77 57v385h-74v33l74 26v18c0 123 68 212 190 212c68 0 114 -28 114 -78c0 -23 -14 -42 -32 -52h-50v26c0 38 -13 64 -55 64c-51 0 -75 -52 -75 -146v-50h132v-53h-132z" />
    <glyph glyph-name="g" unicode="g" horiz-adv-x="544" 
d="M255 189c-32 0 -63 5 -91 15c-32 -33 -42 -51 -42 -74s13 -32 37 -32h226c90 0 144 -31 144 -117c0 -112 -122 -188 -292 -188c-140 0 -222 41 -222 124c0 57 46 82 93 104c-39 14 -57 37 -57 73c0 49 40 88 92 120c-53 27 -88 76 -88 145c0 112 86 181 202 181
c35 0 65 -8 89 -18l181 13v-68h-37l-103 23v-5c39 -25 69 -68 69 -121c0 -106 -80 -175 -201 -175zM367 12h-244c-19 -20 -26 -42 -26 -64c0 -77 67 -107 159 -107c115 0 195 39 195 112c0 49 -31 59 -84 59zM265 228c68 0 102 53 102 128c0 78 -44 142 -119 142
c-68 0 -101 -53 -101 -128c0 -77 42 -142 118 -142z" />
    <glyph glyph-name="h" unicode="h" horiz-adv-x="636" 
d="M202 761v-319c49 48 108 98 191 98c87 0 140 -47 140 -164v-284c0 -46 33 -51 78 -57v-35h-247v35c44 6 77 11 77 57v277c0 72 -29 97 -93 97c-52 0 -107 -23 -146 -53v-321c0 -46 33 -51 77 -57v-35h-247v35c45 6 78 11 78 57v563l-73 35v21l140 50h25z" />
    <glyph glyph-name="i" unicode="i" horiz-adv-x="321" 
d="M209 540v-448c0 -46 32 -51 77 -57v-35h-246v35c44 6 77 11 77 57v342l-72 35v21l139 50h25zM159 611c-36 0 -65 30 -65 67s29 67 65 67s65 -30 65 -67s-29 -67 -65 -67z" />
    <glyph glyph-name="j" unicode="j" horiz-adv-x="270" 
d="M191 540v-454c0 -73 -2 -114 -25 -161c-27 -53 -76 -92 -133 -133l-23 25l32 41c51 65 57 115 57 212v364l-73 35v21l141 50h24zM141 611c-36 0 -65 30 -65 67s29 67 65 67s65 -30 65 -67s-29 -67 -65 -67z" />
    <glyph glyph-name="k" unicode="k" horiz-adv-x="568" 
d="M212 283l166 158c10 10 16 17 16 27c0 16 -16 19 -76 27v35h227v-35c-40 -9 -57 -17 -80 -38l-158 -147l257 -283v-27h-101zM202 761v-669c0 -46 33 -51 77 -57v-35h-247v35c45 6 78 11 78 57v563l-73 35v21l140 50h25z" />
    <glyph glyph-name="l" unicode="l" horiz-adv-x="313" 
d="M202 761v-669c0 -46 33 -51 77 -57v-35h-247v35c45 6 78 11 78 57v563l-73 35v21l140 50h25z" />
    <glyph glyph-name="m" unicode="m" horiz-adv-x="948" 
d="M923 0h-247v35c45 6 78 11 78 57v277c0 72 -24 97 -86 97c-52 0 -102 -23 -140 -53v-321c0 -46 33 -51 77 -57v-35h-247v35c45 6 78 11 78 57v277c0 72 -24 97 -86 97c-52 0 -103 -23 -141 -53v-321c0 -46 32 -51 77 -57v-35h-246v35c44 6 77 11 77 57v342l-72 35v21
l139 50h25v-98c49 48 106 98 186 98c69 0 112 -31 127 -101c49 48 111 101 191 101c87 0 133 -50 133 -164v-284c0 -46 33 -51 77 -57v-35z" />
    <glyph glyph-name="n" unicode="n" horiz-adv-x="644" 
d="M449 92v277c0 72 -29 97 -93 97c-52 0 -109 -23 -147 -53v-321c0 -46 32 -51 77 -57v-35h-246v35c44 6 77 11 77 57v342l-72 35v21l139 50h25v-98c49 48 109 98 192 98c87 0 140 -47 140 -164v-284c0 -46 33 -51 78 -57v-35h-247v35c44 6 77 11 77 57z" />
    <glyph glyph-name="o" unicode="o" horiz-adv-x="572" 
d="M295 42c94 0 141 86 141 215c0 125 -58 231 -159 231c-94 0 -141 -86 -141 -215c0 -125 58 -231 159 -231zM283 -10c-148 0 -243 111 -243 265c0 172 113 285 249 285c148 0 243 -111 243 -265c0 -172 -113 -285 -249 -285z" />
    <glyph glyph-name="p" unicode="p" horiz-adv-x="612" 
d="M194 45v-150c0 -46 33 -51 78 -57v-35h-248v35c45 6 78 11 78 57v539l-73 35v21l141 50h24v-87c42 53 97 87 171 87c136 0 207 -112 207 -250c0 -185 -115 -300 -247 -300c-62 0 -109 23 -131 55zM323 36c93 0 157 83 157 212c0 113 -44 225 -156 225
c-49 0 -100 -17 -130 -49v-249c0 -92 51 -139 129 -139z" />
    <glyph glyph-name="q" unicode="q" horiz-adv-x="591" 
d="M296 540c57 0 113 -19 145 -56l52 64h25l-8 -112v-541c0 -46 33 -51 78 -57v-35h-247v35c44 6 77 11 77 57v184c-41 -53 -91 -89 -165 -89c-136 0 -213 112 -213 250c0 185 111 300 256 300zM289 494c-94 0 -157 -88 -157 -217c0 -113 49 -218 156 -218
c50 0 100 19 130 51v245c0 102 -51 139 -129 139z" />
    <glyph glyph-name="r" unicode="r" horiz-adv-x="412" 
d="M209 540v-158c65 116 89 158 151 158c17 0 30 -6 37 -14v-89h-21c-62 0 -102 -9 -167 -87v-254c0 -50 25 -53 97 -61v-35h-266v35c44 6 77 11 77 57v342l-72 35v21l138 50h26z" />
    <glyph glyph-name="s" unicode="s" horiz-adv-x="451" 
d="M227 -10c-65 0 -132 12 -181 49l-6 133h37c20 -85 69 -137 151 -137c64 0 102 30 102 82c0 65 -46 87 -136 115c-89 28 -148 66 -148 157c0 88 67 151 172 151c67 0 121 -17 165 -42v-124h-38c-14 80 -59 120 -130 120c-54 0 -87 -34 -87 -79c0 -55 41 -84 118 -108
c100 -31 167 -61 167 -162c0 -88 -71 -155 -186 -155z" />
    <glyph glyph-name="t" unicode="t" horiz-adv-x="370" 
d="M180 644v-114h153v-53h-153v-350c0 -55 24 -74 79 -74c30 0 65 9 91 22l10 -22c-34 -37 -86 -63 -152 -63c-69 0 -119 33 -119 118v369h-74v30c51 32 95 73 139 137h26z" />
    <glyph glyph-name="u" unicode="u" horiz-adv-x="629" 
d="M425 -10v98c-50 -48 -104 -98 -186 -98c-88 0 -141 47 -141 164v275c0 36 -12 46 -60 52l-16 2v34l153 23h15v-372c0 -73 29 -104 93 -104c53 0 103 23 142 53v312c0 36 -12 46 -60 52l-16 2v34l152 23h16v-432c0 -34 11 -41 56 -46l26 -3v-34l-160 -35h-14z" />
    <glyph glyph-name="v" unicode="v" horiz-adv-x="553" 
d="M548 530v-35c-46 -17 -49 -18 -59 -40l-198 -465h-22l-205 465c-10 21 -14 23 -59 40v35h234v-35c-52 -7 -72 -12 -72 -36c0 -8 2 -15 7 -27l122 -305l125 305c5 13 7 19 7 27c0 24 -21 29 -72 36v35h192z" />
    <glyph glyph-name="w" unicode="w" horiz-adv-x="793" 
d="M558 137l106 295c4 12 6 19 6 27c0 24 -19 29 -70 36v35h188v-35c-45 -16 -50 -18 -58 -40l-174 -465h-25l-132 353l-134 -353h-24l-179 465c-8 22 -13 25 -57 40v35h226v-35c-50 -7 -70 -12 -70 -36c0 -8 3 -19 7 -30l106 -290l99 268l-17 48c-8 22 -14 25 -59 40v35
h223v-35c-52 -7 -71 -12 -71 -36c0 -8 3 -19 7 -30z" />
    <glyph glyph-name="x" unicode="x" horiz-adv-x="542" 
d="M75 75l149 192l-138 188c-17 23 -30 35 -67 40v35h232v-35c-53 -6 -61 -10 -61 -27c0 -8 9 -21 17 -32l86 -118l83 118c9 11 14 19 14 29c0 18 -10 20 -57 30v35h187v-35c-31 -8 -51 -17 -70 -40l-131 -173l151 -207c18 -23 31 -35 67 -40v-35h-231v35c53 6 61 10 61 27
c0 8 -9 21 -17 32l-100 137l-98 -137c-7 -11 -13 -19 -13 -29c0 -18 9 -20 57 -30v-35h-191v35c31 8 54 21 70 40z" />
    <glyph glyph-name="y" unicode="y" horiz-adv-x="561" 
d="M262 -3l-198 458c-10 21 -14 23 -59 40v35h234v-35c-52 -7 -72 -12 -72 -36c0 -8 1 -14 7 -27l132 -326l123 326c5 13 7 19 7 27c0 24 -21 29 -72 36v35h192v-35c-45 -16 -51 -18 -59 -40l-221 -557c-25 -64 -56 -105 -117 -105c-33 0 -61 15 -77 36v46h52
c63 0 88 14 108 69z" />
    <glyph glyph-name="z" unicode="z" horiz-adv-x="500" 
d="M37 0v22l310 463h-162c-50 0 -66 -27 -92 -118h-41v163h406v-26l-305 -459h155c53 0 95 31 120 129h41l-18 -174h-414z" />
    <glyph glyph-name="braceleft" unicode="{" horiz-adv-x="341" 
d="M50 307v16c48 10 83 36 83 100v219c0 79 68 128 163 128v-27c-47 -6 -91 -31 -91 -98v-218c0 -68 -24 -92 -91 -112c67 -20 91 -44 91 -112v-218c0 -67 44 -92 91 -98v-27c-95 0 -163 49 -163 128v219c0 64 -35 90 -83 100z" />
    <glyph glyph-name="bar" unicode="|" horiz-adv-x="257" 
d="M157 770v-911h-57v911h57z" />
    <glyph glyph-name="braceright" unicode="}" horiz-adv-x="341" 
d="M291 323v-16c-48 -10 -83 -36 -83 -100v-219c0 -79 -68 -128 -163 -128v27c47 6 91 31 91 98v218c0 68 24 92 91 112c-67 20 -91 44 -91 112v218c0 67 -44 92 -91 98v27c95 0 163 -49 163 -128v-219c0 -64 35 -90 83 -100z" />
    <glyph glyph-name="asciitilde" unicode="~" horiz-adv-x="511" 
d="M422 404l39 -6c-28 -82 -67 -123 -130 -123s-118 59 -173 59c-33 0 -46 -11 -69 -53l-39 6c28 82 67 123 130 123s118 -59 173 -59c33 0 46 11 69 53z" />
    <glyph glyph-name="exclamdown" unicode="&#xa1;" horiz-adv-x="292" 
d="M73 467c0 41 32 73 73 73s73 -32 73 -73s-32 -73 -73 -73s-73 32 -73 73zM168 327l43 -499h-131l43 499h45z" />
    <glyph glyph-name="cent" unicode="&#xa2;" horiz-adv-x="517" 
d="M166 -108l24 112c-96 35 -155 127 -155 245c0 162 99 291 267 291h1l29 132h44l-29 -135c82 -12 134 -56 134 -120c0 -35 -19 -54 -43 -64h-48v34c0 45 -15 79 -55 94l-86 -407c19 -5 39 -8 62 -8c72 0 120 31 160 85l19 -10c-31 -101 -108 -151 -214 -151
c-16 0 -31 1 -45 4l-21 -102h-44zM121 286c0 -90 31 -159 87 -194l85 398h-11c-94 0 -161 -81 -161 -204z" />
    <glyph glyph-name="sterling" unicode="&#xa3;" horiz-adv-x="656" 
d="M104 341v43h113l13 82c27 173 114 246 234 246c87 0 143 -36 143 -99c0 -30 -15 -55 -35 -64h-60v36c0 47 -13 80 -65 80c-66 0 -93 -72 -113 -194l-15 -87h165v-43h-172l-20 -124c-4 -23 -10 -49 -16 -70c57 -33 126 -63 195 -63c66 0 110 22 110 108h24
c8 -11 21 -36 21 -73c0 -94 -58 -129 -141 -129c-91 0 -180 54 -233 103c-28 -56 -69 -103 -136 -103c-70 0 -101 42 -101 96c0 61 45 104 111 104c21 0 41 -3 60 -9l24 160h-106zM109 39c32 0 56 26 68 91c-18 8 -36 13 -54 13c-40 0 -58 -26 -58 -57c0 -29 18 -47 44 -47z
" />
    <glyph glyph-name="fraction" unicode="&#x2044;" horiz-adv-x="283" 
d="M-113 0l449 741h60l-450 -741h-59z" />
    <glyph glyph-name="yen" unicode="&#xa5;" horiz-adv-x="663" 
d="M91 317v43h145l-156 266c-14 25 -33 33 -62 37v39h273v-39c-71 -2 -90 -12 -90 -39c0 -16 6 -28 15 -44l135 -241l137 241c8 14 15 28 15 44c0 27 -18 37 -90 39v39h232v-39c-29 -4 -47 -11 -62 -37l-161 -266h148v-43h-174l-20 -34v-37h194v-44h-194v-90
c0 -61 36 -71 103 -73v-39h-301v39c68 2 104 12 104 73v90h-191v44h191v36l-21 35h-170z" />
    <glyph glyph-name="florin" unicode="&#x192;" horiz-adv-x="501" 
d="M93 310l6 42h86l12 87c23 173 81 273 195 273c72 0 99 -33 99 -73c0 -33 -22 -50 -49 -58h-19c-1 52 -12 92 -51 92c-35 0 -52 -35 -60 -93l-31 -228h113l-4 -42h-115l-27 -205c-23 -173 -81 -273 -195 -273c-72 0 -99 33 -99 73c0 33 22 50 49 58h19
c1 -52 12 -92 51 -92c35 0 52 35 60 93l46 346h-86z" />
    <glyph glyph-name="section" unicode="&#xa7;" horiz-adv-x="519" 
d="M223 -202c-91 0 -148 39 -148 91c0 28 19 43 38 51h60v-16c0 -45 31 -82 84 -82c52 0 81 28 81 68c0 72 -92 160 -161 255c-71 97 -121 193 -121 308c0 146 100 239 240 239c91 0 148 -39 148 -91c0 -28 -19 -43 -38 -51h-60v16c0 45 -31 82 -84 82
c-52 0 -81 -28 -81 -68c0 -72 92 -160 161 -255c71 -97 121 -193 121 -308c0 -146 -100 -239 -240 -239zM385 -96c16 25 30 73 30 133c0 89 -46 189 -119 286c-68 91 -162 199 -162 283c-16 -25 -30 -73 -30 -133c0 -89 46 -189 119 -286c68 -91 162 -199 162 -283z" />
    <glyph glyph-name="currency" unicode="&#xa4;" horiz-adv-x="582" 
d="M60 152l72 73c-24 32 -38 73 -38 120s14 88 39 121l-73 72l39 38l72 -72c33 24 75 38 120 38s87 -14 120 -38l72 71l38 -38l-72 -72c24 -32 39 -73 39 -120s-15 -88 -39 -121l73 -71l-39 -38l-72 71c-33 -24 -75 -38 -120 -38c-46 0 -87 14 -121 38l-72 -72zM148 345
c0 -87 62 -151 143 -151s143 64 143 151s-62 151 -143 151s-143 -64 -143 -151z" />
    <glyph glyph-name="quotesingle" unicode="'" horiz-adv-x="218" 
d="M120 472h-22l-28 144c-5 27 -15 69 -15 85c0 38 20 61 54 61s54 -23 54 -61c0 -16 -10 -58 -15 -85z" />
    <glyph glyph-name="quotedblleft" unicode="&#x201c;" horiz-adv-x="465" 
d="M117 632h38c28 -6 45 -25 45 -58c0 -38 -29 -63 -66 -63c-50 0 -75 40 -75 92c0 82 46 150 162 158v-40c-73 -11 -104 -41 -104 -89zM314 632h38c28 -6 45 -25 45 -58c0 -38 -29 -63 -66 -63c-50 0 -75 40 -75 92c0 82 46 150 162 158v-40c-73 -11 -104 -41 -104 -89z
" />
    <glyph glyph-name="guillemotleft" unicode="&#xab;" horiz-adv-x="477" 
d="M45 269v10l161 190h47l-115 -195l115 -195h-47zM224 269v10l161 190h47l-115 -195l115 -195h-47z" />
    <glyph glyph-name="guilsinglleft" unicode="&#x2039;" horiz-adv-x="298" 
d="M45 269v10l161 190h47l-115 -195l115 -195h-47z" />
    <glyph glyph-name="guilsinglright" unicode="&#x203a;" horiz-adv-x="298" 
d="M253 279v-10l-161 -190h-47l115 195l-115 195h47z" />
    <glyph glyph-name="endash" unicode="&#x2013;" horiz-adv-x="580" 
d="M530 272h-480v66h480v-66z" />
    <glyph glyph-name="dagger" unicode="&#x2020;" horiz-adv-x="462" 
d="M45 605l165 -12l-12 165h65l-13 -165l167 12v-61l-167 11l13 -303h-65l13 303l-166 -11v61z" />
    <glyph glyph-name="daggerdbl" unicode="&#x2021;" horiz-adv-x="482" 
d="M222 565l-167 -11v61l165 -12l-12 155h65l-13 -155l167 12v-61l-168 11v-121l168 12v-61l-167 11l13 -154h-65l12 154l-165 -11v61l167 -12v121z" />
    <glyph glyph-name="periodcentered" unicode="&#xb7;" horiz-adv-x="256" 
d="M55 301c0 41 32 73 73 73s73 -32 73 -73s-32 -73 -73 -73s-73 32 -73 73z" />
    <glyph glyph-name="paragraph" unicode="&#xb6;" horiz-adv-x="620" 
d="M323 -197v421c-178 0 -263 108 -263 244s85 234 263 234h273v-39c-65 -2 -102 -12 -102 -73v-787h-52v861h-67v-861h-52zM323 262v402c-115 0 -154 -98 -154 -196s39 -206 154 -206z" />
    <glyph glyph-name="bullet" unicode="&#x2022;" horiz-adv-x="354" 
d="M55 300c0 67 55 122 122 122s122 -55 122 -122s-55 -122 -122 -122s-122 55 -122 122z" />
    <glyph glyph-name="quotesinglbase" unicode="&#x201a;" horiz-adv-x="268" 
d="M154 16h-38c-28 6 -45 25 -45 58c0 38 29 63 66 63c50 0 75 -40 75 -92c0 -82 -46 -150 -162 -158v40c73 11 104 41 104 89z" />
    <glyph glyph-name="quotedblbase" unicode="&#x201e;" horiz-adv-x="465" 
d="M351 16h-38c-28 6 -45 25 -45 58c0 38 29 63 66 63c50 0 75 -40 75 -92c0 -82 -46 -150 -162 -158v40c73 11 104 41 104 89zM154 16h-38c-28 6 -45 25 -45 58c0 38 29 63 66 63c50 0 75 -40 75 -92c0 -82 -46 -150 -162 -158v40c73 11 104 41 104 89z" />
    <glyph glyph-name="quotedblright" unicode="&#x201d;" horiz-adv-x="465" 
d="M351 640h-38c-28 6 -45 25 -45 58c0 38 29 63 66 63c50 0 75 -40 75 -92c0 -82 -46 -150 -162 -158v40c73 11 104 41 104 89zM154 640h-38c-28 6 -45 25 -45 58c0 38 29 63 66 63c50 0 75 -40 75 -92c0 -82 -46 -150 -162 -158v40c73 11 104 41 104 89z" />
    <glyph glyph-name="guillemotright" unicode="&#xbb;" horiz-adv-x="477" 
d="M253 279v-10l-161 -190h-47l115 195l-115 195h47zM432 279v-10l-161 -190h-47l115 195l-115 195h47z" />
    <glyph glyph-name="ellipsis" unicode="&#x2026;" horiz-adv-x="852" 
d="M69 63c0 41 32 73 73 73s73 -32 73 -73s-32 -73 -73 -73s-73 32 -73 73zM353 63c0 41 32 73 73 73s73 -32 73 -73s-32 -73 -73 -73s-73 32 -73 73zM637 63c0 41 32 73 73 73s73 -32 73 -73s-32 -73 -73 -73s-73 32 -73 73z" />
    <glyph glyph-name="perthousand" unicode="&#x2030;" horiz-adv-x="1254" 
d="M121 530c0 -74 25 -141 93 -141c69 0 94 67 94 141s-25 141 -94 141c-68 0 -93 -67 -93 -141zM178 -19l450 741h59l-450 -741h-59zM40 530c0 113 83 182 174 182c92 0 175 -69 175 -182s-83 -182 -175 -182c-91 0 -174 69 -174 182zM744 173c0 74 -25 141 -93 141
c-69 0 -94 -67 -94 -141s25 -141 94 -141c68 0 93 67 93 141zM825 173c0 -113 -83 -182 -174 -182c-92 0 -175 69 -175 182s83 182 175 182c91 0 174 -69 174 -182zM1133 173c0 74 -25 141 -93 141c-69 0 -94 -67 -94 -141s25 -141 94 -141c68 0 93 67 93 141zM1214 173
c0 -113 -83 -182 -174 -182c-92 0 -175 69 -175 182s83 182 175 182c91 0 174 -69 174 -182z" />
    <glyph glyph-name="questiondown" unicode="&#xbf;" horiz-adv-x="438" 
d="M134 -40c0 -59 38 -96 102 -96c62 0 88 36 88 94v37h80c13 -12 21 -27 21 -48c0 -74 -85 -130 -187 -130c-117 0 -197 55 -197 167c0 83 48 136 121 190c54 39 77 70 77 130v32h29c9 -16 29 -54 29 -90c0 -56 -22 -99 -79 -146c-47 -39 -84 -69 -84 -140zM327 466
c0 -41 -32 -73 -73 -73s-73 32 -73 73s32 73 73 73s73 -32 73 -73z" />
    <glyph glyph-name="grave" unicode="`" horiz-adv-x="500" 
d="M155 761h116l74 -169h-39z" />
    <glyph glyph-name="acute" unicode="&#xb4;" horiz-adv-x="500" 
d="M229 761h116l-151 -169h-39z" />
    <glyph glyph-name="circumflex" unicode="&#x2c6;" horiz-adv-x="500" 
d="M284 765l140 -173h-46l-128 103l-128 -103h-46l140 173h68z" />
    <glyph glyph-name="tilde" unicode="&#x2dc;" horiz-adv-x="500" 
d="M396 741l37 -10c-45 -99 -71 -120 -118 -120c-60 0 -105 72 -147 72c-31 0 -43 -21 -65 -62l-37 10c45 99 71 120 118 120c60 0 105 -72 147 -72c31 0 43 21 65 62z" />
    <glyph glyph-name="macron" unicode="&#xaf;" horiz-adv-x="500" 
d="M119 623v58h262v-58h-262z" />
    <glyph glyph-name="breve" unicode="&#x2d8;" horiz-adv-x="500" 
d="M250 593c-90 0 -141 61 -141 168h39c5 -72 48 -102 102 -102s97 30 102 102h39c0 -107 -51 -168 -141 -168z" />
    <glyph glyph-name="dotaccent" unicode="&#x2d9;" horiz-adv-x="500" 
d="M250 611c-36 0 -65 30 -65 67s29 67 65 67s65 -30 65 -67s-29 -67 -65 -67z" />
    <glyph glyph-name="dieresis" unicode="&#xa8;" horiz-adv-x="500" 
d="M94 677c0 33 27 60 61 60s61 -27 61 -60c0 -35 -27 -62 -61 -62s-61 27 -61 62zM284 677c0 33 27 60 61 60s61 -27 61 -60c0 -35 -27 -62 -61 -62s-61 27 -61 62z" />
    <glyph glyph-name="ring" unicode="&#x2da;" horiz-adv-x="500" 
d="M157 679c0 52 38 91 93 91s93 -39 93 -91s-38 -91 -93 -91s-93 39 -93 91zM301 679c0 31 -17 54 -51 54s-51 -23 -51 -54s17 -54 51 -54s51 23 51 54z" />
    <glyph glyph-name="cedilla" unicode="&#xb8;" horiz-adv-x="500" 
d="M163 -221l-6 33c72 0 117 15 117 46c0 30 -35 43 -93 45l43 105h32l-22 -56c67 -1 109 -20 109 -74c0 -68 -80 -99 -180 -99z" />
    <glyph glyph-name="hungarumlaut" unicode="&#x2dd;" horiz-adv-x="500" 
d="M157 761h102l-129 -169h-40zM307 761h102l-129 -169h-40z" />
    <glyph glyph-name="ogonek" unicode="&#x2db;" horiz-adv-x="500" 
d="M321 23l13 -23c-62 -26 -127 -60 -127 -112c0 -25 17 -43 49 -43s60 12 92 37l12 -17c-28 -35 -74 -75 -130 -75c-51 0 -90 30 -90 82c0 76 90 118 181 151z" />
    <glyph glyph-name="caron" unicode="&#x2c7;" horiz-adv-x="500" 
d="M424 769l-140 -173h-68l-140 173h46l128 -103l128 103h46z" />
    <glyph glyph-name="emdash" unicode="&#x2014;" horiz-adv-x="1000" 
d="M950 338v-66h-900v66h900z" />
    <glyph glyph-name="AE" unicode="&#xc6;" horiz-adv-x="1055" 
d="M70 76l390 551c-9 27 -35 34 -98 36v39h618v-167h-27c-36 87 -64 121 -145 121h-191v-274h170c44 0 62 30 72 90h34v-226h-34c-10 60 -28 90 -72 90h-170v-222c0 -54 30 -68 101 -68h100c88 0 105 29 169 134h28l-30 -180h-566v39c67 2 102 12 102 73v140h-264l-91 -130
c-12 -17 -17 -33 -17 -48c0 -31 24 -33 97 -35v-39h-241v39c27 4 48 14 65 37zM521 630l-234 -334h234v334z" />
    <glyph glyph-name="ordfeminine" unicode="&#xaa;" horiz-adv-x="436" 
d="M183 369c32 0 53 10 83 32v132l-88 -37c-34 -14 -50 -36 -50 -66c0 -37 20 -61 55 -61zM346 598c0 -33 -3 -150 -3 -182s14 -49 34 -49c7 0 24 1 36 4l3 -21c-25 -25 -59 -35 -85 -35c-35 0 -56 27 -63 66c-28 -29 -70 -66 -125 -66c-66 0 -98 45 -98 99
c0 69 55 93 103 110l118 42v37c0 44 -12 83 -64 83c-38 0 -58 -17 -58 -54c0 -13 2 -24 5 -38l-68 -8c-11 11 -17 22 -17 40c0 60 61 96 142 96c90 0 140 -43 140 -124z" />
    <glyph glyph-name="Lslash" unicode="&#x141;" horiz-adv-x="625" 
d="M244 590v-201l164 57v-45l-164 -57v-230c0 -54 30 -68 101 -68h58c88 0 110 45 166 149h32l-32 -195h-524v39c67 2 102 12 102 73v202l-102 -35v45l102 34v232c0 61 -35 71 -102 73v39h300v-39c-65 -2 -101 -12 -101 -73z" />
    <glyph glyph-name="Oslash" unicode="&#xd8;" horiz-adv-x="754" 
d="M655 727l-61 -92c74 -65 114 -163 114 -270c0 -229 -152 -375 -334 -375c-68 0 -126 17 -174 47l-61 -93l-39 23l63 96c-76 65 -117 165 -117 274c0 229 152 375 334 375c69 0 129 -19 178 -50l58 88zM153 354c0 -79 18 -159 59 -217l303 460c-36 37 -86 60 -149 60
c-142 0 -213 -132 -213 -303zM388 45c142 0 213 132 213 303c0 77 -17 155 -56 213l-303 -460c36 -35 84 -56 146 -56z" />
    <glyph glyph-name="OE" unicode="&#x152;" horiz-adv-x="1010" 
d="M940 0h-526c-260 0 -371 157 -371 331c0 241 160 371 356 371h536v-167h-27c-36 87 -64 121 -145 121h-191v-274h170c44 0 62 30 72 90h34v-226h-34c-10 60 -28 90 -72 90h-170v-222c0 -54 30 -68 101 -68h100c88 0 105 29 169 134h28zM476 46v610h-77
c-154 0 -249 -106 -249 -303c0 -156 77 -307 283 -307h43z" />
    <glyph glyph-name="ordmasculine" unicode="&#xba;" horiz-adv-x="444" 
d="M232 355c61 0 89 66 89 158c0 89 -37 169 -107 169c-61 0 -91 -66 -91 -158c0 -89 38 -169 109 -169zM220 315c-115 0 -185 82 -185 197c0 127 79 210 189 210c115 0 185 -82 185 -197c0 -127 -78 -210 -189 -210z" />
    <glyph glyph-name="ae" unicode="&#xe6;" horiz-adv-x="828" 
d="M586 540c132 0 201 -92 201 -223v-31h-358c0 -131 70 -220 183 -220c75 0 122 37 159 86l17 -9c-24 -89 -98 -153 -210 -153c-90 0 -156 43 -195 109c-53 -69 -113 -109 -195 -109c-91 0 -143 62 -143 135c0 93 77 124 142 143l164 48c3 17 7 32 11 47
c-3 58 -30 129 -119 129c-54 0 -82 -23 -82 -74c0 -17 2 -32 7 -52l-75 -10c-14 14 -21 30 -21 54c0 82 81 130 184 130c78 0 132 -28 159 -79c43 50 102 79 171 79zM346 248v20l-143 -43c-39 -12 -64 -38 -64 -81c0 -52 29 -84 80 -84c64 0 111 26 153 60
c-17 37 -26 81 -26 128zM571 491c-79 0 -130 -76 -138 -159h262c0 96 -42 159 -124 159z" />
    <glyph glyph-name="dotlessi" unicode="&#x131;" horiz-adv-x="321" 
d="M209 540v-448c0 -46 32 -51 77 -57v-35h-246v35c44 6 77 11 77 57v342l-72 35v21l139 50h25z" />
    <glyph glyph-name="lslash" unicode="&#x142;" horiz-adv-x="347" 
d="M219 761v-283l105 63v-50l-105 -64v-335c0 -46 33 -51 77 -57v-35h-247v35c45 6 78 11 78 57v284l-98 -58v50l98 59v228l-73 35v21l140 50h25z" />
    <glyph glyph-name="oslash" unicode="&#xf8;" horiz-adv-x="572" 
d="M490 561l-45 -76c55 -47 87 -121 87 -210c0 -172 -113 -285 -249 -285c-43 0 -82 10 -115 26l-45 -77l-41 25l46 79c-56 47 -88 122 -88 212c0 172 113 285 249 285c44 0 83 -10 116 -28l44 74zM136 273c0 -62 11 -118 34 -159l201 340c-24 21 -55 34 -94 34
c-94 0 -141 -86 -141 -215zM295 42c94 0 141 86 141 215c0 61 -11 115 -33 156l-201 -339c24 -21 55 -32 93 -32z" />
    <glyph glyph-name="oe" unicode="&#x153;" horiz-adv-x="919" 
d="M289 540c88 0 157 -47 199 -113c41 68 104 113 189 113c132 0 201 -92 201 -223v-31h-358c0 -131 70 -220 183 -220c75 0 122 37 159 86l17 -9c-24 -89 -98 -153 -210 -153c-86 0 -154 44 -192 110c-46 -67 -117 -110 -194 -110c-148 0 -243 111 -243 265
c0 172 113 285 249 285zM295 42c94 0 141 86 141 215c0 125 -58 231 -159 231c-94 0 -141 -86 -141 -215c0 -125 58 -231 159 -231zM662 491c-79 0 -130 -74 -138 -157h262c0 96 -42 157 -124 157z" />
    <glyph glyph-name="germandbls" unicode="&#xdf;" horiz-adv-x="659" 
d="M392 409c0 -36 43 -50 114 -92c69 -41 119 -77 119 -164c0 -97 -82 -162 -171 -162c-68 0 -119 20 -154 53l-6 133h37c20 -85 50 -141 121 -141c55 0 91 30 91 87c0 61 -40 87 -115 130c-67 38 -103 69 -103 131c0 80 118 118 118 238c0 65 -28 104 -101 104
c-81 0 -132 -65 -132 -180v-546h-170v35c44 6 77 11 77 57v385h-74v33l74 26c0 142 89 230 233 230c113 0 177 -50 177 -143c0 -111 -135 -138 -135 -214z" />
    <glyph glyph-name="onesuperior" unicode="&#xb9;" horiz-adv-x="376" 
d="M213 748h21v-381c0 -40 27 -43 97 -47v-33h-276v33c71 4 97 7 97 47v268h-97v28l29 5c62 10 92 34 129 80z" />
    <glyph glyph-name="mu" unicode="&#xb5;" horiz-adv-x="629" 
d="M178 25l12 -186v-26l-92 -10v626c0 36 -12 46 -60 52l-16 2v34l153 23h15v-372c0 -73 29 -104 93 -104c53 0 103 23 142 53v312c0 36 -12 46 -60 52l-16 2v34l152 23h16v-432c0 -34 11 -41 56 -46l26 -3v-34l-160 -35h-14v98c-50 -48 -104 -98 -176 -98
c-34 0 -62 17 -71 35z" />
    <glyph glyph-name="trademark" unicode="&#x2122;" horiz-adv-x="873" 
d="M52 702h296l8 -98h-24c-24 50 -31 66 -73 66h-26v-243c0 -24 18 -28 50 -30v-27h-165v27c31 2 50 6 50 30v243h-26c-42 0 -49 -16 -72 -66h-25zM585 461l83 213c3 7 5 15 7 28h95v-27c-29 -2 -38 -11 -39 -29l29 -225c2 -18 14 -22 40 -24v-27h-147v27c34 2 45 6 45 25
c0 5 -2 20 -4 32l-20 153l-89 -237h-29l-90 237l-20 -152c-2 -13 -3 -29 -3 -33c0 -19 11 -23 45 -25v-27h-120v27c24 1 37 10 39 24l29 225c-1 18 -10 27 -40 29v27h101c2 -13 4 -21 7 -28z" />
    <glyph glyph-name="Eth" unicode="&#xd0;" horiz-adv-x="766" 
d="M45 338v43h102v209c0 61 -35 71 -102 73v39h307c260 0 371 -157 371 -331c0 -241 -160 -371 -356 -371h-322v39c67 2 102 12 102 73v226h-102zM333 656h-90v-275h174v-43h-174v-221c0 -59 32 -71 102 -71h22c154 0 249 106 249 303c0 156 -77 307 -283 307z" />
    <glyph glyph-name="onehalf" unicode="&#xbd;" horiz-adv-x="892" 
d="M213 748h21v-381c0 -40 27 -43 97 -47v-33h-276v33c71 4 97 7 97 47v268h-97v28l29 5c62 10 92 34 129 80zM212 0l449 741h60l-450 -741h-59zM611 3h112c53 0 67 6 100 67h24l-16 -142h-320v23l117 118c80 81 110 123 110 172c0 53 -34 82 -88 82c-50 0 -82 -30 -110 -56
l-16 17c29 54 84 105 159 105c89 0 139 -49 139 -128c0 -94 -96 -156 -211 -258z" />
    <glyph glyph-name="plusminus" unicode="&#xb1;" horiz-adv-x="564" 
d="M251 602h61v-143h189v-61h-189v-142h-61v142h-188v61h188v143zM63 144v61h438v-61h-438z" />
    <glyph glyph-name="Thorn" unicode="&#xde;" horiz-adv-x="619" 
d="M232 506v-303h73c123 0 182 40 182 150c0 95 -59 153 -182 153h-73zM232 552h93c192 0 269 -91 269 -195c0 -117 -82 -200 -252 -200h-110v-45c0 -61 49 -69 129 -73v-39h-327v39c67 2 102 12 102 73v478c0 61 -35 71 -102 73v39h300v-39c-67 -2 -102 -12 -102 -73v-38z
" />
    <glyph glyph-name="onequarter" unicode="&#xbc;" horiz-adv-x="890" 
d="M513 92h164v198zM761 -71h-84v119h-226v34l255 305h55v-295h79v-44h-79v-119zM213 748h21v-381c0 -40 27 -43 97 -47v-33h-276v33c71 4 97 7 97 47v268h-97v28l29 5c62 10 92 34 129 80zM212 0l449 741h60l-450 -741h-59z" />
    <glyph glyph-name="divide" unicode="&#xf7;" horiz-adv-x="564" 
d="M63 340v62h438v-62h-438zM225 202c0 32 25 58 56 58s58 -26 58 -58c0 -30 -27 -57 -58 -57s-56 27 -56 57zM225 540c0 31 25 56 56 56s58 -25 58 -56s-27 -58 -58 -58s-56 27 -56 58z" />
    <glyph glyph-name="brokenbar" unicode="&#xa6;" horiz-adv-x="257" 
d="M157 770v-376h-57v376h57zM157 235v-376h-57v376h57z" />
    <glyph glyph-name="degree" unicode="&#xb0;" horiz-adv-x="367" 
d="M85 561c0 -59 38 -103 98 -103c61 0 99 44 99 103c0 60 -38 104 -99 104c-60 0 -98 -44 -98 -104zM30 561c0 86 67 151 153 151c87 0 154 -65 154 -151c0 -85 -67 -150 -154 -150c-86 0 -153 65 -153 150z" />
    <glyph glyph-name="thorn" unicode="&#xfe;" horiz-adv-x="593" 
d="M175 424v-249c0 -92 51 -139 129 -139c93 0 157 83 157 212c0 113 -44 225 -156 225c-50 0 -100 -17 -130 -49zM83 -105v760l-73 35v21l140 50h25v-308c41 53 97 87 170 87c137 0 208 -112 208 -250c0 -185 -109 -300 -247 -300c-62 0 -109 23 -131 55v-150
c0 -46 33 -51 78 -57v-35h-248v35c45 6 78 11 78 57z" />
    <glyph glyph-name="threequarters" unicode="&#xbe;" horiz-adv-x="902" 
d="M221 537c81 -9 135 -57 135 -127c0 -87 -81 -132 -169 -132c-99 0 -152 47 -152 97c0 23 13 39 28 47h50v-23c0 -54 26 -87 81 -87c49 0 80 32 80 91c0 64 -45 93 -115 93h-24l-3 24c75 27 123 53 123 101c0 37 -25 64 -76 64c-52 0 -80 -33 -99 -67l-26 17
c26 59 79 109 158 109c77 0 123 -42 123 -98c0 -61 -65 -93 -114 -109zM525 92h164v198zM773 -71h-84v119h-226v34l255 305h55v-295h79v-44h-79v-119zM224 0l449 741h60l-450 -741h-59z" />
    <glyph glyph-name="registered" unicode="&#xae;" horiz-adv-x="555" 
d="M274 584h-26v-94h26c35 0 54 19 54 49c0 29 -19 45 -54 45zM174 606h108c60 0 92 -29 92 -67c0 -35 -30 -59 -60 -65l40 -55c15 -21 25 -29 42 -29v-19h-51c-10 7 -26 25 -38 43l-37 55h-22v-55c0 -20 8 -24 29 -24v-19h-103v19c22 0 30 4 30 24v148c0 22 -8 23 -30 25
v19zM87 484c0 -103 80 -193 190 -193c111 0 191 90 191 193c0 104 -80 194 -191 194c-110 0 -190 -90 -190 -194zM50 484c0 126 95 228 227 228c133 0 228 -102 228 -228c0 -125 -95 -227 -228 -227c-132 0 -227 102 -227 227z" />
    <glyph glyph-name="minus" unicode="&#x2212;" horiz-adv-x="564" 
d="M63 340v62h438v-62h-438z" />
    <glyph glyph-name="eth" unicode="&#xf0;" horiz-adv-x="572" 
d="M155 575l-15 39l121 46c-41 34 -88 63 -140 84l19 32c72 -23 135 -53 187 -90l111 42l15 -39l-87 -33c110 -94 166 -219 166 -355c0 -215 -113 -311 -249 -311c-148 0 -243 111 -243 265c0 172 111 271 235 271c61 0 109 -33 143 -75c-25 61 -67 123 -122 178zM295 42
c94 0 141 86 141 215c0 125 -58 227 -159 227c-94 0 -141 -82 -141 -211c0 -125 58 -231 159 -231z" />
    <glyph glyph-name="multiply" unicode="&#xd7;" horiz-adv-x="488" 
d="M200 366l-137 138l44 44l136 -139l138 139l44 -44l-138 -138l138 -137l-44 -42l-138 136l-136 -136l-44 42z" />
    <glyph glyph-name="threesuperior" unicode="&#xb3;" horiz-adv-x="406" 
d="M221 537c81 -9 135 -57 135 -127c0 -87 -81 -132 -169 -132c-99 0 -152 47 -152 97c0 23 13 39 28 47h50v-23c0 -54 26 -87 81 -87c49 0 80 32 80 91c0 64 -45 93 -115 93h-24l-3 24c75 27 123 53 123 101c0 37 -25 64 -76 64c-52 0 -80 -33 -99 -67l-26 17
c26 59 79 109 158 109c77 0 123 -42 123 -98c0 -61 -65 -93 -114 -109z" />
    <glyph glyph-name="copyright" unicode="&#xa9;" horiz-adv-x="796" 
d="M82 351c0 -177 130 -322 316 -322s316 145 316 322s-130 322 -316 322s-316 -145 -316 -322zM40 351c0 199 149 361 358 361s358 -162 358 -361s-149 -361 -358 -361s-358 162 -358 361zM416 180c59 0 81 41 103 105h31l-9 -108c-38 -19 -74 -35 -136 -35
c-117 0 -198 85 -198 202c0 137 94 220 207 220c61 0 99 -19 126 -40v-95h-30c-14 64 -45 97 -95 97c-86 0 -126 -74 -126 -164c0 -102 44 -182 127 -182z" />
    <glyph glyph-name="Aacute" unicode="&#xc1;" horiz-adv-x="723" 
d="M532 122l-47 110h-295l-44 -109c-6 -15 -11 -29 -11 -40c0 -31 25 -42 94 -44v-39h-224v39c27 4 50 10 61 37l237 569l-31 66h111l275 -635c11 -27 31 -33 60 -37v-39h-268v39c69 2 93 12 93 43c0 12 -5 25 -11 40zM335 589l-127 -313h259zM386 910h120l-155 -149h-39z
" />
    <glyph glyph-name="Acircumflex" unicode="&#xc2;" horiz-adv-x="723" 
d="M532 122l-47 110h-295l-44 -109c-6 -15 -11 -29 -11 -40c0 -31 25 -42 94 -44v-39h-224v39c27 4 50 10 61 37l237 569l-31 66h111l275 -635c11 -27 31 -33 60 -37v-39h-268v39c69 2 93 12 93 43c0 12 -5 25 -11 40zM335 589l-127 -313h259zM379 920l150 -159h-46l-138 90
l-138 -90h-46l150 159h68z" />
    <glyph glyph-name="Adieresis" unicode="&#xc4;" horiz-adv-x="723" 
d="M532 122l-47 110h-295l-44 -109c-6 -15 -11 -29 -11 -40c0 -31 25 -42 94 -44v-39h-224v39c27 4 50 10 61 37l237 569l-31 66h111l275 -635c11 -27 31 -33 60 -37v-39h-268v39c69 2 93 12 93 43c0 12 -5 25 -11 40zM335 589l-127 -313h259zM184 832c0 33 27 60 61 60
s61 -27 61 -60c0 -35 -27 -62 -61 -62s-61 27 -61 62zM384 832c0 33 27 60 61 60s61 -27 61 -60c0 -35 -27 -62 -61 -62s-61 27 -61 62z" />
    <glyph glyph-name="Agrave" unicode="&#xc0;" horiz-adv-x="723" 
d="M532 122l-47 110h-295l-44 -109c-6 -15 -11 -29 -11 -40c0 -31 25 -42 94 -44v-39h-224v39c27 4 50 10 61 37l237 569l-31 66h111l275 -635c11 -27 31 -33 60 -37v-39h-268v39c69 2 93 12 93 43c0 12 -5 25 -11 40zM335 589l-127 -313h259zM180 910h120l74 -149h-39z" />
    <glyph glyph-name="Aring" unicode="&#xc5;" horiz-adv-x="723" 
d="M532 122l-47 110h-295l-44 -109c-6 -15 -11 -29 -11 -40c0 -31 25 -42 94 -44v-39h-224v39c27 4 50 10 61 37l237 569l-31 66h111l275 -635c11 -27 31 -33 60 -37v-39h-268v39c69 2 93 12 93 43c0 12 -5 25 -11 40zM335 589l-127 -313h259zM252 845c0 52 38 91 93 91
s93 -39 93 -91s-38 -91 -93 -91s-93 39 -93 91zM396 845c0 31 -17 54 -51 54s-51 -23 -51 -54s17 -54 51 -54s51 23 51 54z" />
    <glyph glyph-name="Atilde" unicode="&#xc3;" horiz-adv-x="723" 
d="M532 122l-47 110h-295l-44 -109c-6 -15 -11 -29 -11 -40c0 -31 25 -42 94 -44v-39h-224v39c27 4 50 10 61 37l237 569l-31 66h111l275 -635c11 -27 31 -33 60 -37v-39h-268v39c69 2 93 12 93 43c0 12 -5 25 -11 40zM335 589l-127 -313h259zM497 890l37 -10
c-45 -99 -71 -120 -118 -120c-60 0 -105 72 -147 72c-31 0 -43 -21 -65 -62l-37 10c45 99 71 120 118 120c60 0 105 -72 147 -72c31 0 43 21 65 62z" />
    <glyph glyph-name="Ccedilla" unicode="&#xc7;" horiz-adv-x="673" 
d="M292 -221l-6 33c72 0 117 15 117 46c0 30 -35 43 -93 45l36 88c-184 12 -303 153 -303 345c0 234 152 376 345 376c105 0 170 -27 216 -63v-153h-36c-27 116 -94 165 -186 165c-161 0 -232 -134 -232 -297c0 -182 82 -323 244 -323c100 0 158 59 197 174h37l-23 -170
c-64 -33 -125 -54 -227 -55l-15 -38c67 -1 109 -20 109 -74c0 -68 -80 -99 -180 -99z" />
    <glyph glyph-name="Eacute" unicode="&#xc9;" horiz-adv-x="670" 
d="M508 246h-34c-10 60 -28 90 -72 90h-170v-222c0 -54 30 -68 101 -68h100c88 0 105 29 169 134h28l-30 -180h-566v39c67 2 102 12 102 73v478c0 61 -35 71 -102 73v39h561v-167h-27c-36 87 -64 121 -145 121h-191v-274h170c44 0 62 30 72 90h34v-226zM387 910h120
l-155 -149h-39z" />
    <glyph glyph-name="Ecircumflex" unicode="&#xca;" horiz-adv-x="670" 
d="M508 246h-34c-10 60 -28 90 -72 90h-170v-222c0 -54 30 -68 101 -68h100c88 0 105 29 169 134h28l-30 -180h-566v39c67 2 102 12 102 73v478c0 61 -35 71 -102 73v39h561v-167h-27c-36 87 -64 121 -145 121h-191v-274h170c44 0 62 30 72 90h34v-226zM380 920l150 -159
h-46l-138 90l-138 -90h-46l150 159h68z" />
    <glyph glyph-name="Edieresis" unicode="&#xcb;" horiz-adv-x="670" 
d="M508 246h-34c-10 60 -28 90 -72 90h-170v-222c0 -54 30 -68 101 -68h100c88 0 105 29 169 134h28l-30 -180h-566v39c67 2 102 12 102 73v478c0 61 -35 71 -102 73v39h561v-167h-27c-36 87 -64 121 -145 121h-191v-274h170c44 0 62 30 72 90h34v-226zM185 832
c0 33 27 60 61 60s61 -27 61 -60c0 -35 -27 -62 -61 -62s-61 27 -61 62zM385 832c0 33 27 60 61 60s61 -27 61 -60c0 -35 -27 -62 -61 -62s-61 27 -61 62z" />
    <glyph glyph-name="Egrave" unicode="&#xc8;" horiz-adv-x="670" 
d="M508 246h-34c-10 60 -28 90 -72 90h-170v-222c0 -54 30 -68 101 -68h100c88 0 105 29 169 134h28l-30 -180h-566v39c67 2 102 12 102 73v478c0 61 -35 71 -102 73v39h561v-167h-27c-36 87 -64 121 -145 121h-191v-274h170c44 0 62 30 72 90h34v-226zM181 910h120l74 -149
h-39z" />
    <glyph glyph-name="Iacute" unicode="&#xcd;" horiz-adv-x="368" 
d="M334 0h-300v39c67 2 102 12 102 73v478c0 61 -35 71 -102 73v39h300v-39c-67 -2 -102 -12 -102 -73v-478c0 -61 35 -71 102 -73v-39zM225 910h120l-155 -149h-39z" />
    <glyph glyph-name="Icircumflex" unicode="&#xce;" horiz-adv-x="368" 
d="M334 0h-300v39c67 2 102 12 102 73v478c0 61 -35 71 -102 73v39h300v-39c-67 -2 -102 -12 -102 -73v-478c0 -61 35 -71 102 -73v-39zM218 920l150 -159h-46l-138 90l-138 -90h-46l150 159h68z" />
    <glyph glyph-name="Idieresis" unicode="&#xcf;" horiz-adv-x="368" 
d="M334 0h-300v39c67 2 102 12 102 73v478c0 61 -35 71 -102 73v39h300v-39c-67 -2 -102 -12 -102 -73v-478c0 -61 35 -71 102 -73v-39zM23 832c0 33 27 60 61 60s61 -27 61 -60c0 -35 -27 -62 -61 -62s-61 27 -61 62zM223 832c0 33 27 60 61 60s61 -27 61 -60
c0 -35 -27 -62 -61 -62s-61 27 -61 62z" />
    <glyph glyph-name="Igrave" unicode="&#xcc;" horiz-adv-x="368" 
d="M334 0h-300v39c67 2 102 12 102 73v478c0 61 -35 71 -102 73v39h300v-39c-67 -2 -102 -12 -102 -73v-478c0 -61 35 -71 102 -73v-39zM19 910h120l74 -149h-39z" />
    <glyph glyph-name="Ntilde" unicode="&#xd1;" horiz-adv-x="806" 
d="M136 112v488c-40 47 -53 62 -102 63v39h171l416 -527v415c0 61 -35 71 -102 73v39h262v-39c-67 -2 -102 -12 -102 -73v-590h-41l-444 555v-443c0 -61 35 -71 102 -73v-39h-262v39c67 2 102 12 102 73zM549 890l37 -10c-45 -99 -71 -120 -118 -120c-60 0 -105 72 -147 72
c-31 0 -43 -21 -65 -62l-37 10c45 99 71 120 118 120c60 0 105 -72 147 -72c31 0 43 21 65 62z" />
    <glyph glyph-name="Oacute" unicode="&#xd3;" horiz-adv-x="748" 
d="M385 45c142 0 213 132 213 303c0 153 -69 309 -235 309c-142 0 -213 -132 -213 -303c0 -153 69 -309 235 -309zM377 712c207 0 328 -161 328 -347c0 -229 -152 -375 -334 -375c-207 0 -328 161 -328 347c0 229 152 375 334 375zM415 910h120l-155 -149h-39z" />
    <glyph glyph-name="Ocircumflex" unicode="&#xd4;" horiz-adv-x="748" 
d="M385 45c142 0 213 132 213 303c0 153 -69 309 -235 309c-142 0 -213 -132 -213 -303c0 -153 69 -309 235 -309zM377 712c207 0 328 -161 328 -347c0 -229 -152 -375 -334 -375c-207 0 -328 161 -328 347c0 229 152 375 334 375zM408 920l150 -159h-46l-138 90l-138 -90
h-46l150 159h68z" />
    <glyph glyph-name="Odieresis" unicode="&#xd6;" horiz-adv-x="748" 
d="M385 45c142 0 213 132 213 303c0 153 -69 309 -235 309c-142 0 -213 -132 -213 -303c0 -153 69 -309 235 -309zM377 712c207 0 328 -161 328 -347c0 -229 -152 -375 -334 -375c-207 0 -328 161 -328 347c0 229 152 375 334 375zM213 832c0 33 27 60 61 60s61 -27 61 -60
c0 -35 -27 -62 -61 -62s-61 27 -61 62zM413 832c0 33 27 60 61 60s61 -27 61 -60c0 -35 -27 -62 -61 -62s-61 27 -61 62z" />
    <glyph glyph-name="Ograve" unicode="&#xd2;" horiz-adv-x="748" 
d="M385 45c142 0 213 132 213 303c0 153 -69 309 -235 309c-142 0 -213 -132 -213 -303c0 -153 69 -309 235 -309zM377 712c207 0 328 -161 328 -347c0 -229 -152 -375 -334 -375c-207 0 -328 161 -328 347c0 229 152 375 334 375zM209 910h120l74 -149h-39z" />
    <glyph glyph-name="Otilde" unicode="&#xd5;" horiz-adv-x="748" 
d="M385 45c142 0 213 132 213 303c0 153 -69 309 -235 309c-142 0 -213 -132 -213 -303c0 -153 69 -309 235 -309zM377 712c207 0 328 -161 328 -347c0 -229 -152 -375 -334 -375c-207 0 -328 161 -328 347c0 229 152 375 334 375zM521 890l37 -10
c-45 -99 -71 -120 -118 -120c-60 0 -105 72 -147 72c-31 0 -43 -21 -65 -62l-37 10c45 99 71 120 118 120c60 0 105 -72 147 -72c31 0 43 21 65 62z" />
    <glyph glyph-name="Scaron" unicode="&#x160;" horiz-adv-x="556" 
d="M265 -10c-94 0 -174 32 -218 69l-7 164h35c30 -105 91 -183 193 -183c94 0 151 46 151 128c0 69 -45 101 -166 146c-133 49 -205 97 -205 210c0 106 79 188 219 188c81 0 154 -27 208 -63v-153h-33c-23 97 -83 166 -180 166c-84 0 -127 -48 -127 -112
c0 -68 34 -99 158 -145c147 -54 217 -106 217 -217c0 -128 -112 -198 -245 -198zM457 920l-150 -159h-68l-150 159h46l138 -90l138 90h46z" />
    <glyph glyph-name="Uacute" unicode="&#xda;" horiz-adv-x="766" 
d="M207 590v-344c0 -125 69 -193 183 -193c135 0 209 57 209 201v336c0 61 -36 71 -102 73v39h261v-39c-66 -2 -101 -12 -101 -73v-355c0 -166 -126 -244 -269 -244c-168 0 -278 77 -278 246v353c0 61 -36 71 -102 73v39h300v-39c-66 -2 -101 -12 -101 -73zM444 910h120
l-155 -149h-39z" />
    <glyph glyph-name="Ucircumflex" unicode="&#xdb;" horiz-adv-x="766" 
d="M207 590v-344c0 -125 69 -193 183 -193c135 0 209 57 209 201v336c0 61 -36 71 -102 73v39h261v-39c-66 -2 -101 -12 -101 -73v-355c0 -166 -126 -244 -269 -244c-168 0 -278 77 -278 246v353c0 61 -36 71 -102 73v39h300v-39c-66 -2 -101 -12 -101 -73zM437 920
l150 -159h-46l-138 90l-138 -90h-46l150 159h68z" />
    <glyph glyph-name="Udieresis" unicode="&#xdc;" horiz-adv-x="766" 
d="M207 590v-344c0 -125 69 -193 183 -193c135 0 209 57 209 201v336c0 61 -36 71 -102 73v39h261v-39c-66 -2 -101 -12 -101 -73v-355c0 -166 -126 -244 -269 -244c-168 0 -278 77 -278 246v353c0 61 -36 71 -102 73v39h300v-39c-66 -2 -101 -12 -101 -73zM242 832
c0 33 27 60 61 60s61 -27 61 -60c0 -35 -27 -62 -61 -62s-61 27 -61 62zM442 832c0 33 27 60 61 60s61 -27 61 -60c0 -35 -27 -62 -61 -62s-61 27 -61 62z" />
    <glyph glyph-name="Ugrave" unicode="&#xd9;" horiz-adv-x="766" 
d="M207 590v-344c0 -125 69 -193 183 -193c135 0 209 57 209 201v336c0 61 -36 71 -102 73v39h261v-39c-66 -2 -101 -12 -101 -73v-355c0 -166 -126 -244 -269 -244c-168 0 -278 77 -278 246v353c0 61 -36 71 -102 73v39h300v-39c-66 -2 -101 -12 -101 -73zM238 910h120
l74 -149h-39z" />
    <glyph glyph-name="Yacute" unicode="&#xdd;" horiz-adv-x="663" 
d="M350 334l157 246c10 17 17 30 17 46c0 27 -21 35 -91 37v39h225v-39c-29 -4 -45 -11 -61 -37l-221 -343v-171c0 -61 36 -71 101 -73v-39h-298v39c67 2 102 12 102 73v170l-215 344c-16 26 -33 33 -61 37v39h265v-39c-69 -2 -91 -10 -91 -37c0 -16 7 -29 18 -46zM388 910
h120l-155 -149h-39z" />
    <glyph glyph-name="Ydieresis" unicode="&#x178;" horiz-adv-x="663" 
d="M350 334l157 246c10 17 17 30 17 46c0 27 -21 35 -91 37v39h225v-39c-29 -4 -45 -11 -61 -37l-221 -343v-171c0 -61 36 -71 101 -73v-39h-298v39c67 2 102 12 102 73v170l-215 344c-16 26 -33 33 -61 37v39h265v-39c-69 -2 -91 -10 -91 -37c0 -16 7 -29 18 -46zM186 832
c0 33 27 60 61 60s61 -27 61 -60c0 -35 -27 -62 -61 -62s-61 27 -61 62zM386 832c0 33 27 60 61 60s61 -27 61 -60c0 -35 -27 -62 -61 -62s-61 27 -61 62z" />
    <glyph glyph-name="Zcaron" unicode="&#x17d;" horiz-adv-x="620" 
d="M155 47h242c88 0 111 47 166 151h33l-33 -198h-538v25l427 629h-223c-80 0 -95 -30 -142 -137h-29v185h521v-26zM494 920l-150 -159h-68l-150 159h46l138 -90l138 90h46z" />
    <glyph glyph-name="aacute" unicode="&#xe1;" horiz-adv-x="535" 
d="M219 60c47 0 81 14 123 45v179l-142 -54c-37 -14 -61 -43 -61 -81c0 -57 29 -89 80 -89zM435 372c0 -33 -3 -206 -3 -248c0 -44 17 -68 46 -68c9 0 32 2 47 6l5 -24c-34 -34 -65 -48 -100 -48c-51 0 -76 37 -85 91c-36 -41 -93 -91 -167 -91c-91 0 -133 62 -133 135
c0 93 74 125 139 148l158 57v49c0 60 -21 113 -99 113c-54 0 -82 -23 -82 -74c0 -17 2 -32 7 -52l-75 -10c-14 14 -21 30 -21 54c0 82 81 130 190 130c115 0 173 -59 173 -168zM304 761h116l-151 -169h-39z" />
    <glyph glyph-name="acircumflex" unicode="&#xe2;" horiz-adv-x="535" 
d="M219 60c47 0 81 14 123 45v179l-142 -54c-37 -14 -61 -43 -61 -81c0 -57 29 -89 80 -89zM435 372c0 -33 -3 -206 -3 -248c0 -44 17 -68 46 -68c9 0 32 2 47 6l5 -24c-34 -34 -65 -48 -100 -48c-51 0 -76 37 -85 91c-36 -41 -93 -91 -167 -91c-91 0 -133 62 -133 135
c0 93 74 125 139 148l158 57v49c0 60 -21 113 -99 113c-54 0 -82 -23 -82 -74c0 -17 2 -32 7 -52l-75 -10c-14 14 -21 30 -21 54c0 82 81 130 190 130c115 0 173 -59 173 -168zM295 765l140 -173h-46l-128 103l-128 -103h-46l140 173h68z" />
    <glyph glyph-name="adieresis" unicode="&#xe4;" horiz-adv-x="535" 
d="M219 60c47 0 81 14 123 45v179l-142 -54c-37 -14 -61 -43 -61 -81c0 -57 29 -89 80 -89zM435 372c0 -33 -3 -206 -3 -248c0 -44 17 -68 46 -68c9 0 32 2 47 6l5 -24c-34 -34 -65 -48 -100 -48c-51 0 -76 37 -85 91c-36 -41 -93 -91 -167 -91c-91 0 -133 62 -133 135
c0 93 74 125 139 148l158 57v49c0 60 -21 113 -99 113c-54 0 -82 -23 -82 -74c0 -17 2 -32 7 -52l-75 -10c-14 14 -21 30 -21 54c0 82 81 130 190 130c115 0 173 -59 173 -168zM108 677c0 33 27 60 61 60s61 -27 61 -60c0 -35 -27 -62 -61 -62s-61 27 -61 62zM298 677
c0 33 27 60 61 60s61 -27 61 -60c0 -35 -27 -62 -61 -62s-61 27 -61 62z" />
    <glyph glyph-name="agrave" unicode="&#xe0;" horiz-adv-x="535" 
d="M219 60c47 0 81 14 123 45v179l-142 -54c-37 -14 -61 -43 -61 -81c0 -57 29 -89 80 -89zM435 372c0 -33 -3 -206 -3 -248c0 -44 17 -68 46 -68c9 0 32 2 47 6l5 -24c-34 -34 -65 -48 -100 -48c-51 0 -76 37 -85 91c-36 -41 -93 -91 -167 -91c-91 0 -133 62 -133 135
c0 93 74 125 139 148l158 57v49c0 60 -21 113 -99 113c-54 0 -82 -23 -82 -74c0 -17 2 -32 7 -52l-75 -10c-14 14 -21 30 -21 54c0 82 81 130 190 130c115 0 173 -59 173 -168zM106 761h116l74 -169h-39z" />
    <glyph glyph-name="aring" unicode="&#xe5;" horiz-adv-x="535" 
d="M219 60c47 0 81 14 123 45v179l-142 -54c-37 -14 -61 -43 -61 -81c0 -57 29 -89 80 -89zM435 372c0 -33 -3 -206 -3 -248c0 -44 17 -68 46 -68c9 0 32 2 47 6l5 -24c-34 -34 -65 -48 -100 -48c-51 0 -76 37 -85 91c-36 -41 -93 -91 -167 -91c-91 0 -133 62 -133 135
c0 93 74 125 139 148l158 57v49c0 60 -21 113 -99 113c-54 0 -82 -23 -82 -74c0 -17 2 -32 7 -52l-75 -10c-14 14 -21 30 -21 54c0 82 81 130 190 130c115 0 173 -59 173 -168zM168 679c0 52 38 91 93 91s93 -39 93 -91s-38 -91 -93 -91s-93 39 -93 91zM312 679
c0 31 -17 54 -51 54s-51 -23 -51 -54s17 -54 51 -54s51 23 51 54z" />
    <glyph glyph-name="atilde" unicode="&#xe3;" horiz-adv-x="535" 
d="M219 60c47 0 81 14 123 45v179l-142 -54c-37 -14 -61 -43 -61 -81c0 -57 29 -89 80 -89zM435 372c0 -33 -3 -206 -3 -248c0 -44 17 -68 46 -68c9 0 32 2 47 6l5 -24c-34 -34 -65 -48 -100 -48c-51 0 -76 37 -85 91c-36 -41 -93 -91 -167 -91c-91 0 -133 62 -133 135
c0 93 74 125 139 148l158 57v49c0 60 -21 113 -99 113c-54 0 -82 -23 -82 -74c0 -17 2 -32 7 -52l-75 -10c-14 14 -21 30 -21 54c0 82 81 130 190 130c115 0 173 -59 173 -168zM412 741l37 -10c-45 -99 -71 -120 -118 -120c-60 0 -105 72 -147 72c-31 0 -43 -21 -65 -62
l-37 10c45 99 71 120 118 120c60 0 105 -72 147 -72c31 0 43 21 65 62z" />
    <glyph glyph-name="ccedilla" unicode="&#xe7;" horiz-adv-x="506" 
d="M174 -221l-6 33c72 0 117 15 117 46c0 30 -35 43 -93 45l37 90c-115 18 -189 120 -189 255c0 158 102 292 256 292c106 0 169 -47 169 -123c0 -35 -18 -50 -40 -60h-51v34c0 56 -28 99 -91 99c-95 0 -159 -88 -159 -204c0 -131 64 -220 177 -220c69 0 114 31 152 85
l18 -10c-29 -101 -102 -151 -203 -151h-8l-15 -38c67 -1 109 -20 109 -74c0 -68 -80 -99 -180 -99z" />
    <glyph glyph-name="eacute" unicode="&#xe9;" horiz-adv-x="522" 
d="M280 540c132 0 201 -92 201 -223v-31h-358c0 -131 70 -220 183 -220c75 0 122 37 159 86l17 -9c-24 -89 -98 -153 -210 -153c-146 0 -232 115 -232 258c0 175 102 292 240 292zM265 491c-79 0 -130 -74 -138 -157h262c0 96 -42 157 -124 157zM318 761h116l-151 -169h-39z
" />
    <glyph glyph-name="ecircumflex" unicode="&#xea;" horiz-adv-x="522" 
d="M280 540c132 0 201 -92 201 -223v-31h-358c0 -131 70 -220 183 -220c75 0 122 37 159 86l17 -9c-24 -89 -98 -153 -210 -153c-146 0 -232 115 -232 258c0 175 102 292 240 292zM265 491c-79 0 -130 -74 -138 -157h262c0 96 -42 157 -124 157zM312 765l140 -173h-46
l-128 103l-128 -103h-46l140 173h68z" />
    <glyph glyph-name="edieresis" unicode="&#xeb;" horiz-adv-x="522" 
d="M280 540c132 0 201 -92 201 -223v-31h-358c0 -131 70 -220 183 -220c75 0 122 37 159 86l17 -9c-24 -89 -98 -153 -210 -153c-146 0 -232 115 -232 258c0 175 102 292 240 292zM265 491c-79 0 -130 -74 -138 -157h262c0 96 -42 157 -124 157zM120 677c0 33 27 60 61 60
s61 -27 61 -60c0 -35 -27 -62 -61 -62s-61 27 -61 62zM310 677c0 33 27 60 61 60s61 -27 61 -60c0 -35 -27 -62 -61 -62s-61 27 -61 62z" />
    <glyph glyph-name="egrave" unicode="&#xe8;" horiz-adv-x="522" 
d="M280 540c132 0 201 -92 201 -223v-31h-358c0 -131 70 -220 183 -220c75 0 122 37 159 86l17 -9c-24 -89 -98 -153 -210 -153c-146 0 -232 115 -232 258c0 175 102 292 240 292zM265 491c-79 0 -130 -74 -138 -157h262c0 96 -42 157 -124 157zM120 761h116l74 -169h-39z
" />
    <glyph glyph-name="iacute" unicode="&#xed;" horiz-adv-x="321" 
d="M209 540v-448c0 -46 32 -51 77 -57v-35h-246v35c44 6 77 11 77 57v342l-72 35v21l139 50h25zM204 761h116l-151 -169h-39z" />
    <glyph glyph-name="icircumflex" unicode="&#xee;" horiz-adv-x="321" 
d="M209 540v-448c0 -46 32 -51 77 -57v-35h-246v35c44 6 77 11 77 57v342l-72 35v21l139 50h25zM195 765l140 -173h-46l-128 103l-128 -103h-46l140 173h68z" />
    <glyph glyph-name="idieresis" unicode="&#xef;" horiz-adv-x="321" 
d="M209 540v-448c0 -46 32 -51 77 -57v-35h-246v35c44 6 77 11 77 57v342l-72 35v21l139 50h25zM5 677c0 33 27 60 61 60s61 -27 61 -60c0 -35 -27 -62 -61 -62s-61 27 -61 62zM195 677c0 33 27 60 61 60s61 -27 61 -60c0 -35 -27 -62 -61 -62s-61 27 -61 62z" />
    <glyph glyph-name="igrave" unicode="&#xec;" horiz-adv-x="321" 
d="M209 540v-448c0 -46 32 -51 77 -57v-35h-246v35c44 6 77 11 77 57v342l-72 35v21l139 50h25zM-4 761h116l74 -169h-39z" />
    <glyph glyph-name="ntilde" unicode="&#xf1;" horiz-adv-x="644" 
d="M449 92v277c0 72 -29 97 -93 97c-52 0 -109 -23 -147 -53v-321c0 -46 32 -51 77 -57v-35h-246v35c44 6 77 11 77 57v342l-72 35v21l139 50h25v-98c49 48 109 98 192 98c87 0 140 -47 140 -164v-284c0 -46 33 -51 78 -57v-35h-247v35c44 6 77 11 77 57zM476 741l37 -10
c-45 -99 -71 -120 -118 -120c-60 0 -105 72 -147 72c-31 0 -43 -21 -65 -62l-37 10c45 99 71 120 118 120c60 0 105 -72 147 -72c31 0 43 21 65 62z" />
    <glyph glyph-name="oacute" unicode="&#xf3;" horiz-adv-x="572" 
d="M295 42c94 0 141 86 141 215c0 125 -58 231 -159 231c-94 0 -141 -86 -141 -215c0 -125 58 -231 159 -231zM283 -10c-148 0 -243 111 -243 265c0 172 113 285 249 285c148 0 243 -111 243 -265c0 -172 -113 -285 -249 -285zM329 761h116l-151 -169h-39z" />
    <glyph glyph-name="ocircumflex" unicode="&#xf4;" horiz-adv-x="572" 
d="M295 42c94 0 141 86 141 215c0 125 -58 231 -159 231c-94 0 -141 -86 -141 -215c0 -125 58 -231 159 -231zM283 -10c-148 0 -243 111 -243 265c0 172 113 285 249 285c148 0 243 -111 243 -265c0 -172 -113 -285 -249 -285zM320 765l140 -173h-46l-128 103l-128 -103h-46
l140 173h68z" />
    <glyph glyph-name="odieresis" unicode="&#xf6;" horiz-adv-x="572" 
d="M295 42c94 0 141 86 141 215c0 125 -58 231 -159 231c-94 0 -141 -86 -141 -215c0 -125 58 -231 159 -231zM283 -10c-148 0 -243 111 -243 265c0 172 113 285 249 285c148 0 243 -111 243 -265c0 -172 -113 -285 -249 -285zM130 677c0 33 27 60 61 60s61 -27 61 -60
c0 -35 -27 -62 -61 -62s-61 27 -61 62zM320 677c0 33 27 60 61 60s61 -27 61 -60c0 -35 -27 -62 -61 -62s-61 27 -61 62z" />
    <glyph glyph-name="ograve" unicode="&#xf2;" horiz-adv-x="572" 
d="M295 42c94 0 141 86 141 215c0 125 -58 231 -159 231c-94 0 -141 -86 -141 -215c0 -125 58 -231 159 -231zM283 -10c-148 0 -243 111 -243 265c0 172 113 285 249 285c148 0 243 -111 243 -265c0 -172 -113 -285 -249 -285zM121 761h116l74 -169h-39z" />
    <glyph glyph-name="otilde" unicode="&#xf5;" horiz-adv-x="572" 
d="M295 42c94 0 141 86 141 215c0 125 -58 231 -159 231c-94 0 -141 -86 -141 -215c0 -125 58 -231 159 -231zM283 -10c-148 0 -243 111 -243 265c0 172 113 285 249 285c148 0 243 -111 243 -265c0 -172 -113 -285 -249 -285zM433 741l37 -10c-45 -99 -71 -120 -118 -120
c-60 0 -105 72 -147 72c-31 0 -43 -21 -65 -62l-37 10c45 99 71 120 118 120c60 0 105 -72 147 -72c31 0 43 21 65 62z" />
    <glyph glyph-name="scaron" unicode="&#x161;" horiz-adv-x="451" 
d="M227 -10c-65 0 -132 12 -181 49l-6 133h37c20 -85 69 -137 151 -137c64 0 102 30 102 82c0 65 -46 87 -136 115c-89 28 -148 66 -148 157c0 88 67 151 172 151c67 0 121 -17 165 -42v-124h-38c-14 80 -59 120 -130 120c-54 0 -87 -34 -87 -79c0 -55 41 -84 118 -108
c100 -31 167 -61 167 -162c0 -88 -71 -155 -186 -155zM406 769l-140 -173h-68l-140 173h46l128 -103l128 103h46z" />
    <glyph glyph-name="uacute" unicode="&#xfa;" horiz-adv-x="629" 
d="M425 -10v98c-50 -48 -104 -98 -186 -98c-88 0 -141 47 -141 164v275c0 36 -12 46 -60 52l-16 2v34l153 23h15v-372c0 -73 29 -104 93 -104c53 0 103 23 142 53v312c0 36 -12 46 -60 52l-16 2v34l152 23h16v-432c0 -34 11 -41 56 -46l26 -3v-34l-160 -35h-14zM353 761h116
l-151 -169h-39z" />
    <glyph glyph-name="ucircumflex" unicode="&#xfb;" horiz-adv-x="629" 
d="M425 -10v98c-50 -48 -104 -98 -186 -98c-88 0 -141 47 -141 164v275c0 36 -12 46 -60 52l-16 2v34l153 23h15v-372c0 -73 29 -104 93 -104c53 0 103 23 142 53v312c0 36 -12 46 -60 52l-16 2v34l152 23h16v-432c0 -34 11 -41 56 -46l26 -3v-34l-160 -35h-14zM344 765
l140 -173h-46l-128 103l-128 -103h-46l140 173h68z" />
    <glyph glyph-name="udieresis" unicode="&#xfc;" horiz-adv-x="629" 
d="M425 -10v98c-50 -48 -104 -98 -186 -98c-88 0 -141 47 -141 164v275c0 36 -12 46 -60 52l-16 2v34l153 23h15v-372c0 -73 29 -104 93 -104c53 0 103 23 142 53v312c0 36 -12 46 -60 52l-16 2v34l152 23h16v-432c0 -34 11 -41 56 -46l26 -3v-34l-160 -35h-14zM154 677
c0 33 27 60 61 60s61 -27 61 -60c0 -35 -27 -62 -61 -62s-61 27 -61 62zM344 677c0 33 27 60 61 60s61 -27 61 -60c0 -35 -27 -62 -61 -62s-61 27 -61 62z" />
    <glyph glyph-name="ugrave" unicode="&#xf9;" horiz-adv-x="629" 
d="M425 -10v98c-50 -48 -104 -98 -186 -98c-88 0 -141 47 -141 164v275c0 36 -12 46 -60 52l-16 2v34l153 23h15v-372c0 -73 29 -104 93 -104c53 0 103 23 142 53v312c0 36 -12 46 -60 52l-16 2v34l152 23h16v-432c0 -34 11 -41 56 -46l26 -3v-34l-160 -35h-14zM145 761h116
l74 -169h-39z" />
    <glyph glyph-name="yacute" unicode="&#xfd;" horiz-adv-x="561" 
d="M262 -3l-198 458c-10 21 -14 23 -59 40v35h234v-35c-52 -7 -72 -12 -72 -36c0 -8 1 -14 7 -27l132 -326l123 326c5 13 7 19 7 27c0 24 -21 29 -72 36v35h192v-35c-45 -16 -51 -18 -59 -40l-221 -557c-25 -64 -56 -105 -117 -105c-33 0 -61 15 -77 36v46h52
c63 0 88 14 108 69zM349 761h116l-151 -169h-39z" />
    <glyph glyph-name="ydieresis" unicode="&#xff;" horiz-adv-x="561" 
d="M262 -3l-198 458c-10 21 -14 23 -59 40v35h234v-35c-52 -7 -72 -12 -72 -36c0 -8 1 -14 7 -27l132 -326l123 326c5 13 7 19 7 27c0 24 -21 29 -72 36v35h192v-35c-45 -16 -51 -18 -59 -40l-221 -557c-25 -64 -56 -105 -117 -105c-33 0 -61 15 -77 36v46h52
c63 0 88 14 108 69zM150 677c0 33 27 60 61 60s61 -27 61 -60c0 -35 -27 -62 -61 -62s-61 27 -61 62zM340 677c0 33 27 60 61 60s61 -27 61 -60c0 -35 -27 -62 -61 -62s-61 27 -61 62z" />
    <glyph glyph-name="zcaron" unicode="&#x17e;" horiz-adv-x="500" 
d="M37 0v22l310 463h-162c-50 0 -66 -27 -92 -118h-41v163h406v-26l-305 -459h155c53 0 95 31 120 129h41l-18 -174h-414zM427 769l-140 -173h-68l-140 173h46l128 -103l128 103h46z" />
    <glyph glyph-name="Omega" unicode="&#x2126;" horiz-adv-x="786" 
d="M393 667c-139 0 -177 -146 -177 -265c0 -144 52 -262 135 -332v-70h-261l-25 174h31c50 -95 62 -104 152 -104h59c-94 47 -197 180 -197 332c0 180 109 310 283 310s283 -130 283 -310c0 -152 -103 -285 -197 -332h59c90 0 102 9 152 104h31l-25 -174h-261v70
c83 70 135 188 135 332c0 119 -38 265 -177 265z" />
    <glyph glyph-name="pi" unicode="&#x3c0;" horiz-adv-x="630" 
d="M373 112v344h-157c0 -204 -10 -325 -40 -456h-101v17c39 116 86 250 86 439h-97v74h492l-17 -74h-80v-330c0 -54 27 -70 59 -70c9 0 32 2 47 6l5 -24c-34 -34 -65 -48 -100 -48c-56 0 -97 37 -97 122z" />
    <glyph glyph-name="Euro" unicode="&#x20ac;" horiz-adv-x="679" 
d="M23 384v43h92c27 178 138 285 287 285c90 0 155 -23 203 -60v-154h-37c-25 110 -83 160 -170 160c-107 0 -166 -103 -181 -231h270l-14 -43h-259v-21c0 -17 0 -33 1 -49h240l-14 -43h-222c17 -129 73 -228 193 -228c103 0 149 59 183 172h39l-18 -171
c-60 -32 -126 -54 -207 -54c-176 0 -275 114 -296 281h-90v43h86v27c0 14 0 29 1 43h-87z" />
    <glyph glyph-name="partialdiff" unicode="&#x2202;" horiz-adv-x="572" 
d="M275 526c61 0 109 -33 143 -75c-46 114 -153 236 -297 293l19 32c258 -80 392 -265 392 -475c0 -215 -113 -311 -249 -311c-148 0 -243 111 -243 265c0 172 111 271 235 271zM295 42c94 0 141 86 141 215c0 125 -58 227 -159 227c-94 0 -141 -82 -141 -211
c0 -125 58 -231 159 -231z" />
    <glyph glyph-name="product" unicode="&#x220f;" horiz-adv-x="777" 
d="M25 702h727v-39c-67 -2 -102 -12 -102 -73v-675c0 -61 35 -71 102 -73v-39h-300v39c65 2 102 12 102 73v748h-331v-748c0 -61 37 -71 102 -73v-39h-300v39c67 2 102 12 102 73v675c0 61 -35 71 -102 73v39z" />
    <glyph glyph-name="summation" unicode="&#x2211;" horiz-adv-x="593" 
d="M125 -114h208c100 0 117 7 178 110h32l-29 -193h-489v36l300 410l-298 411v42h490v-167h-27c-36 87 -64 121 -145 121h-197l261 -363v-21z" />
    <glyph glyph-name="radical" unicode="&#x221a;" horiz-adv-x="579" 
d="M293 141l208 571h58l-251 -712h-67l-130 434c-12 40 -23 54 -50 54h-41v42h169z" />
    <glyph glyph-name="infinity" unicode="&#x221e;" horiz-adv-x="793" 
d="M358 348l-50 55c-29 32 -57 49 -96 49c-53 0 -98 -38 -98 -104s45 -104 98 -104c39 0 67 17 96 49zM484 403l-50 -55l50 -55c29 -32 57 -49 96 -49c53 0 98 38 98 104s-45 104 -98 104c-39 0 -67 -17 -96 -49zM396 304l-42 -48c-39 -44 -83 -71 -145 -71
c-86 0 -159 61 -159 163s73 163 159 163c62 0 106 -27 145 -71l42 -48l42 48c39 44 83 71 145 71c86 0 159 -61 159 -163s-73 -163 -159 -163c-62 0 -107 27 -145 71z" />
    <glyph glyph-name="integral" unicode="&#x222b;" horiz-adv-x="416" 
d="M219 546v-550c0 -123 -64 -192 -160 -192c-68 0 -114 28 -114 78c0 23 14 42 32 52h50v-26c0 -38 13 -64 48 -64c43 0 52 50 52 126v550c0 123 64 192 160 192c68 0 114 -28 114 -78c0 -23 -14 -42 -32 -52h-50v26c0 38 -13 64 -48 64c-43 0 -52 -50 -52 -126z" />
    <glyph glyph-name="approxequal" unicode="&#x2248;" horiz-adv-x="574" 
d="M68 385v66c43 28 83 40 118 40c76 0 125 -39 200 -39c37 0 76 11 120 40v-66c-44 -29 -83 -40 -120 -40c-75 0 -124 39 -200 39c-35 0 -75 -12 -118 -40zM68 256v65c43 29 83 40 118 40c76 0 125 -38 200 -38c37 0 76 10 120 39v-66c-44 -29 -83 -39 -120 -39
c-75 0 -124 38 -200 38c-35 0 -75 -11 -118 -39z" />
    <glyph glyph-name="notequal" unicode="&#x2260;" horiz-adv-x="574" 
d="M68 409v62h259l76 103h69l-76 -103h110v-62h-156l-56 -77h212v-61h-257l-76 -104h-69l76 104h-112v61h157l57 77h-214z" />
    <glyph glyph-name="lessequal" unicode="&#x2264;" horiz-adv-x="433" 
d="M50 399v9l310 166v-71l-190 -99l190 -99v-72zM50 144v61h310v-61h-310z" />
    <glyph glyph-name="greaterequal" unicode="&#x2265;" horiz-adv-x="433" 
d="M383 408v-9l-310 -166v72l190 99l-190 99v71zM383 205v-61h-310v61h310z" />
    <glyph glyph-name="lozenge" unicode="&#x25ca;" horiz-adv-x="607" 
d="M60 351l201 351h85l201 -351l-201 -351h-85zM471 351l-168 299l-167 -299l167 -299z" />
    <glyph glyph-name="uni00A0" unicode="&#xa0;" horiz-adv-x="225" 
 />
    <glyph glyph-name="twosuperior" unicode="&#xb2;" horiz-adv-x="407" 
d="M125 362h113c52 0 67 6 100 67h24l-16 -142h-321v24l118 117c81 80 109 123 109 172c0 53 -34 82 -87 82c-50 0 -82 -30 -110 -56l-16 17c29 55 83 105 159 105c88 0 139 -48 139 -128c0 -94 -96 -156 -212 -258z" />
    <glyph glyph-name="Tcedilla" unicode="&#x162;" horiz-adv-x="663" 
d="M30 702h602l16 -209h-32c-59 137 -70 164 -161 164h-76v-545c0 -61 39 -71 106 -73v-39h-308v39c67 2 105 12 105 73v545h-74c-91 0 -102 -27 -162 -164h-31zM352 -153h-48c-30 6 -42 25 -42 48c0 32 26 53 63 53c48 0 75 -33 75 -76c0 -59 -33 -102 -126 -102v33
c51 0 78 16 78 44z" />
    <glyph glyph-name="tcedilla" unicode="&#x163;" horiz-adv-x="370" 
d="M180 644v-114h153v-53h-153v-350c0 -55 24 -74 79 -74c30 0 65 9 91 22l10 -22c-34 -37 -86 -63 -152 -63c-69 0 -119 33 -119 118v369h-74v30c51 32 95 73 139 137h26zM208 -153h-48c-30 6 -42 25 -42 48c0 32 26 53 63 53c48 0 75 -33 75 -76c0 -59 -33 -102 -126 -102
v33c51 0 78 16 78 44z" />
    <glyph glyph-name="Tcedilla.sc" horiz-adv-x="633" 
d="M48 596h537l13 -182h-32c-50 112 -61 140 -139 140h-63v-455c0 -50 31 -59 89 -61v-38h-273v38c58 2 89 11 89 61v455h-63c-78 0 -89 -28 -139 -140h-32zM337 -153h-48c-30 6 -42 25 -42 48c0 32 26 53 63 53c48 0 75 -33 75 -76c0 -59 -33 -102 -126 -102v33
c51 0 78 16 78 44z" />
    <glyph glyph-name="i.dot" horiz-adv-x="321" 
d="M209 540v-448c0 -46 32 -51 77 -57v-35h-246v35c44 6 77 11 77 57v342l-72 35v21l139 50h25zM161 611c-36 0 -65 30 -65 67s29 67 65 67s65 -30 65 -67s-29 -67 -65 -67z" />
    <glyph glyph-name="uni0237" unicode="&#x237;" horiz-adv-x="270" 
d="M191 540v-454c0 -73 -2 -114 -25 -161c-27 -53 -76 -92 -133 -133l-23 25l32 41c51 65 57 115 57 212v364l-73 35v21l141 50h24z" />
    <glyph glyph-name="space_uni0326" horiz-adv-x="500" 
d="M271 -153h-48c-30 6 -42 25 -42 48c0 32 26 53 63 53c48 0 75 -33 75 -76c0 -59 -33 -102 -126 -102v33c51 0 78 16 78 44z" />
    <glyph glyph-name="space_uni0326.alt" horiz-adv-x="500" 
d="M229 708h48c30 -6 42 -25 42 -48c0 -32 -26 -53 -63 -53c-48 0 -75 33 -75 76c0 59 33 102 126 102v-33c-51 0 -78 -16 -78 -44z" />
    <glyph glyph-name="space_dotbelowcomb" horiz-adv-x="500" 
d="M250 -186c-36 0 -65 30 -65 67s29 67 65 67s65 -30 65 -67s-29 -67 -65 -67z" />
    <glyph glyph-name="uni2117" unicode="&#x2117;" horiz-adv-x="796" 
d="M416 320h-50v-100c0 -34 25 -40 70 -40v-26h-191v26c38 1 53 6 53 40v264c0 35 -15 40 -53 41v26h171c105 0 151 -53 151 -114c0 -70 -46 -117 -151 -117zM366 519v-168h36c59 0 91 26 91 85c0 50 -32 83 -97 83h-30zM82 351c0 -177 130 -322 316 -322s316 145 316 322
s-130 322 -316 322s-316 -145 -316 -322zM40 351c0 199 149 361 358 361s358 -162 358 -361s-149 -361 -358 -361s-358 162 -358 361z" />
    <glyph glyph-name="Delta" unicode="&#x2206;" horiz-adv-x="702" 
d="M662 0h-622v34l285 668h47l290 -668v-34zM327 588l-224 -537h451z" />
    <glyph glyph-name="Abreve" unicode="&#x102;" horiz-adv-x="723" 
d="M532 122l-47 110h-295l-44 -109c-6 -15 -11 -29 -11 -40c0 -31 25 -42 94 -44v-39h-224v39c27 4 50 10 61 37l237 569l-31 66h111l275 -635c11 -27 31 -33 60 -37v-39h-268v39c69 2 93 12 93 43c0 12 -5 25 -11 40zM335 589l-127 -313h259zM345 758
c-91 0 -152 57 -152 157h37c5 -67 61 -93 115 -93s110 26 115 93h37c0 -100 -61 -157 -152 -157z" />
    <glyph glyph-name="Amacron" unicode="&#x100;" horiz-adv-x="723" 
d="M532 122l-47 110h-295l-44 -109c-6 -15 -11 -29 -11 -40c0 -31 25 -42 94 -44v-39h-224v39c27 4 50 10 61 37l237 569l-31 66h111l275 -635c11 -27 31 -33 60 -37v-39h-268v39c69 2 93 12 93 43c0 12 -5 25 -11 40zM335 589l-127 -313h259zM204 783v62h282v-62h-282z" />
    <glyph glyph-name="Aogonek" unicode="&#x104;" horiz-adv-x="723" 
d="M532 122l-47 110h-295l-44 -109c-6 -15 -11 -29 -11 -40c0 -31 25 -42 94 -44v-39h-224v39c27 4 50 10 61 37l237 569l-31 66h111l275 -635c11 -27 31 -33 60 -37v-39h-241c-51 -25 -88 -62 -88 -112c0 -25 17 -43 49 -43s60 12 92 37l12 -17c-28 -35 -74 -75 -130 -75
c-51 0 -90 30 -90 82c0 69 46 112 144 153c50 21 77 26 77 57c0 12 -5 25 -11 40zM335 589l-127 -313h259z" />
    <glyph glyph-name="Aringacute" unicode="&#x1fa;" horiz-adv-x="723" 
d="M532 122l-47 110h-295l-44 -109c-6 -15 -11 -29 -11 -40c0 -31 25 -42 94 -44v-39h-224v39c27 4 50 10 61 37l237 569l-31 66h111l275 -635c11 -27 31 -33 60 -37v-39h-268v39c69 2 93 12 93 43c0 12 -5 25 -11 40zM335 589l-127 -313h259zM244 819c0 49 41 81 99 81
c59 0 100 -32 100 -81c0 -48 -41 -80 -100 -80c-58 0 -99 32 -99 80zM399 819c0 28 -19 48 -56 48c-36 0 -55 -20 -55 -48c0 -27 19 -47 55 -47c37 0 56 20 56 47zM376 1026h117l-127 -102h-39z" />
    <glyph glyph-name="AEacute" unicode="&#x1fc;" horiz-adv-x="1055" 
d="M70 76l390 551c-9 27 -35 34 -98 36v39h618v-167h-27c-36 87 -64 121 -145 121h-191v-274h170c44 0 62 30 72 90h34v-226h-34c-10 60 -28 90 -72 90h-170v-222c0 -54 30 -68 101 -68h100c88 0 105 29 169 134h28l-30 -180h-566v39c67 2 102 12 102 73v140h-264l-91 -130
c-12 -17 -17 -33 -17 -48c0 -31 24 -33 97 -35v-39h-241v39c27 4 48 14 65 37zM521 630l-234 -334h234v334zM701 910h120l-155 -149h-39z" />
    <glyph glyph-name="Cacute" unicode="&#x106;" horiz-adv-x="673" 
d="M394 41c100 0 158 59 197 174h37l-23 -170c-65 -33 -127 -55 -233 -55c-198 0 -329 145 -329 346c0 234 152 376 345 376c105 0 170 -27 216 -63v-153h-36c-27 116 -94 165 -186 165c-161 0 -232 -134 -232 -297c0 -182 82 -323 244 -323zM420 910h120l-155 -149h-39z
" />
    <glyph glyph-name="Ccaron" unicode="&#x10c;" horiz-adv-x="673" 
d="M394 41c100 0 158 59 197 174h37l-23 -170c-65 -33 -127 -55 -233 -55c-198 0 -329 145 -329 346c0 234 152 376 345 376c105 0 170 -27 216 -63v-153h-36c-27 116 -94 165 -186 165c-161 0 -232 -134 -232 -297c0 -182 82 -323 244 -323zM563 920l-150 -159h-68
l-150 159h46l138 -90l138 90h46z" />
    <glyph glyph-name="Ccircumflex" unicode="&#x108;" horiz-adv-x="673" 
d="M394 41c100 0 158 59 197 174h37l-23 -170c-65 -33 -127 -55 -233 -55c-198 0 -329 145 -329 346c0 234 152 376 345 376c105 0 170 -27 216 -63v-153h-36c-27 116 -94 165 -186 165c-161 0 -232 -134 -232 -297c0 -182 82 -323 244 -323zM413 920l150 -159h-46l-138 90
l-138 -90h-46l150 159h68z" />
    <glyph glyph-name="Cdotaccent" unicode="&#x10a;" horiz-adv-x="673" 
d="M394 41c100 0 158 59 197 174h37l-23 -170c-65 -33 -127 -55 -233 -55c-198 0 -329 145 -329 346c0 234 152 376 345 376c105 0 170 -27 216 -63v-153h-36c-27 116 -94 165 -186 165c-161 0 -232 -134 -232 -297c0 -182 82 -323 244 -323zM379 767c-36 0 -65 30 -65 67
s29 67 65 67s65 -30 65 -67s-29 -67 -65 -67z" />
    <glyph glyph-name="Dcaron" unicode="&#x10e;" horiz-adv-x="755" 
d="M322 656h-90v-539c0 -59 32 -71 102 -71h22c154 0 249 106 249 303c0 156 -77 307 -283 307zM34 663v39h307c260 0 371 -157 371 -331c0 -241 -160 -371 -356 -371h-322v39c67 2 102 12 102 73v478c0 61 -35 71 -102 73zM541 920l-150 -159h-68l-150 159h46l138 -90
l138 90h46z" />
    <glyph glyph-name="Dcroat" unicode="&#x110;" horiz-adv-x="766" 
d="M45 338v43h102v209c0 61 -35 71 -102 73v39h307c260 0 371 -157 371 -331c0 -241 -160 -371 -356 -371h-322v39c67 2 102 12 102 73v226h-102zM333 656h-90v-275h174v-43h-174v-221c0 -59 32 -71 102 -71h22c154 0 249 106 249 303c0 156 -77 307 -283 307z" />
    <glyph glyph-name="Ebreve" unicode="&#x114;" horiz-adv-x="670" 
d="M508 246h-34c-10 60 -28 90 -72 90h-170v-222c0 -54 30 -68 101 -68h100c88 0 105 29 169 134h28l-30 -180h-566v39c67 2 102 12 102 73v478c0 61 -35 71 -102 73v39h561v-167h-27c-36 87 -64 121 -145 121h-191v-274h170c44 0 62 30 72 90h34v-226zM346 758
c-91 0 -152 57 -152 157h37c5 -67 61 -93 115 -93s110 26 115 93h37c0 -100 -61 -157 -152 -157z" />
    <glyph glyph-name="Ecaron" unicode="&#x11a;" horiz-adv-x="670" 
d="M508 246h-34c-10 60 -28 90 -72 90h-170v-222c0 -54 30 -68 101 -68h100c88 0 105 29 169 134h28l-30 -180h-566v39c67 2 102 12 102 73v478c0 61 -35 71 -102 73v39h561v-167h-27c-36 87 -64 121 -145 121h-191v-274h170c44 0 62 30 72 90h34v-226zM530 920l-150 -159
h-68l-150 159h46l138 -90l138 90h46z" />
    <glyph glyph-name="Edotaccent" unicode="&#x116;" horiz-adv-x="670" 
d="M508 246h-34c-10 60 -28 90 -72 90h-170v-222c0 -54 30 -68 101 -68h100c88 0 105 29 169 134h28l-30 -180h-566v39c67 2 102 12 102 73v478c0 61 -35 71 -102 73v39h561v-167h-27c-36 87 -64 121 -145 121h-191v-274h170c44 0 62 30 72 90h34v-226zM346 767
c-36 0 -65 30 -65 67s29 67 65 67s65 -30 65 -67s-29 -67 -65 -67z" />
    <glyph glyph-name="Emacron" unicode="&#x112;" horiz-adv-x="670" 
d="M508 246h-34c-10 60 -28 90 -72 90h-170v-222c0 -54 30 -68 101 -68h100c88 0 105 29 169 134h28l-30 -180h-566v39c67 2 102 12 102 73v478c0 61 -35 71 -102 73v39h561v-167h-27c-36 87 -64 121 -145 121h-191v-274h170c44 0 62 30 72 90h34v-226zM205 783v62h282v-62
h-282z" />
    <glyph glyph-name="Eogonek" unicode="&#x118;" horiz-adv-x="670" 
d="M508 246h-34c-10 60 -28 90 -72 90h-170v-222c0 -54 30 -68 101 -68h100c88 0 105 29 169 134h28l-30 -180h-32c-62 -26 -127 -60 -127 -112c0 -25 17 -43 49 -43s60 12 92 37l12 -17c-28 -35 -74 -75 -130 -75c-51 0 -90 30 -90 82c0 60 55 98 122 128h-462v39
c67 2 102 12 102 73v478c0 61 -35 71 -102 73v39h561v-167h-27c-36 87 -64 121 -145 121h-191v-274h170c44 0 62 30 72 90h34v-226z" />
    <glyph glyph-name="Gbreve" unicode="&#x11e;" horiz-adv-x="735" 
d="M43 336c0 234 157 376 350 376c105 0 175 -27 221 -63v-153h-36c-27 116 -99 165 -191 165c-161 0 -237 -134 -237 -297c0 -182 82 -323 244 -323c63 0 102 11 138 44v140c0 60 -34 70 -98 73v38h281v-38c-63 -3 -90 -13 -90 -73v-163c-64 -45 -143 -72 -240 -72
c-211 0 -342 143 -342 346zM389 758c-91 0 -152 57 -152 157h37c5 -67 61 -93 115 -93s110 26 115 93h37c0 -100 -61 -157 -152 -157z" />
    <glyph glyph-name="Gcircumflex" unicode="&#x11c;" horiz-adv-x="735" 
d="M43 336c0 234 157 376 350 376c105 0 175 -27 221 -63v-153h-36c-27 116 -99 165 -191 165c-161 0 -237 -134 -237 -297c0 -182 82 -323 244 -323c63 0 102 11 138 44v140c0 60 -34 70 -98 73v38h281v-38c-63 -3 -90 -13 -90 -73v-163c-64 -45 -143 -72 -240 -72
c-211 0 -342 143 -342 346zM423 920l150 -159h-46l-138 90l-138 -90h-46l150 159h68z" />
    <glyph glyph-name="Gcommaaccent" unicode="&#x122;" horiz-adv-x="735" 
d="M43 336c0 234 157 376 350 376c105 0 175 -27 221 -63v-153h-36c-27 116 -99 165 -191 165c-161 0 -237 -134 -237 -297c0 -182 82 -323 244 -323c63 0 102 11 138 44v140c0 60 -34 70 -98 73v38h281v-38c-63 -3 -90 -13 -90 -73v-163c-64 -45 -143 -72 -240 -72
c-211 0 -342 143 -342 346zM410 -153h-48c-30 6 -42 25 -42 48c0 32 26 53 63 53c48 0 75 -33 75 -76c0 -59 -33 -102 -126 -102v33c51 0 78 16 78 44z" />
    <glyph glyph-name="Gdotaccent" unicode="&#x120;" horiz-adv-x="735" 
d="M43 336c0 234 157 376 350 376c105 0 175 -27 221 -63v-153h-36c-27 116 -99 165 -191 165c-161 0 -237 -134 -237 -297c0 -182 82 -323 244 -323c63 0 102 11 138 44v140c0 60 -34 70 -98 73v38h281v-38c-63 -3 -90 -13 -90 -73v-163c-64 -45 -143 -72 -240 -72
c-211 0 -342 143 -342 346zM389 767c-36 0 -65 30 -65 67s29 67 65 67s65 -30 65 -67s-29 -67 -65 -67z" />
    <glyph glyph-name="Hbar" unicode="&#x126;" horiz-adv-x="857" 
d="M45 488v43h102v59c0 61 -35 71 -102 73v39h300v-39c-65 -2 -102 -12 -102 -73v-59h371v59c0 61 -37 71 -102 73v39h300v-39c-67 -2 -102 -12 -102 -73v-59h102v-43h-102v-376c0 -61 35 -71 102 -73v-39h-300v39c65 2 102 12 102 73v214h-371v-214c0 -61 37 -71 102 -73
v-39h-300v39c67 2 102 12 102 73v376h-102zM243 372h371v116h-371v-116z" />
    <glyph glyph-name="Hcircumflex" unicode="&#x124;" horiz-adv-x="835" 
d="M603 112v224h-371v-224c0 -61 37 -71 102 -73v-39h-300v39c67 2 102 12 102 73v478c0 61 -35 71 -102 73v39h300v-39c-65 -2 -102 -12 -102 -73v-208h371v208c0 61 -37 71 -102 73v39h300v-39c-67 -2 -102 -12 -102 -73v-478c0 -61 35 -71 102 -73v-39h-300v39
c65 2 102 12 102 73zM451 920l150 -159h-46l-138 90l-138 -90h-46l150 159h68z" />
    <glyph glyph-name="Ibreve" unicode="&#x12c;" horiz-adv-x="368" 
d="M334 0h-300v39c67 2 102 12 102 73v478c0 61 -35 71 -102 73v39h300v-39c-67 -2 -102 -12 -102 -73v-478c0 -61 35 -71 102 -73v-39zM184 758c-91 0 -152 57 -152 157h37c5 -67 61 -93 115 -93s110 26 115 93h37c0 -100 -61 -157 -152 -157z" />
    <glyph glyph-name="Idotaccent" unicode="&#x130;" horiz-adv-x="368" 
d="M334 0h-300v39c67 2 102 12 102 73v478c0 61 -35 71 -102 73v39h300v-39c-67 -2 -102 -12 -102 -73v-478c0 -61 35 -71 102 -73v-39zM184 767c-36 0 -65 30 -65 67s29 67 65 67s65 -30 65 -67s-29 -67 -65 -67z" />
    <glyph glyph-name="Imacron" unicode="&#x12a;" horiz-adv-x="368" 
d="M334 0h-300v39c67 2 102 12 102 73v478c0 61 -35 71 -102 73v39h300v-39c-67 -2 -102 -12 -102 -73v-478c0 -61 35 -71 102 -73v-39zM43 783v62h282v-62h-282z" />
    <glyph glyph-name="Iogonek" unicode="&#x12e;" horiz-adv-x="368" 
d="M334 0h-66c-62 -26 -127 -60 -127 -112c0 -25 17 -43 49 -43s60 12 92 37l12 -17c-28 -35 -74 -75 -130 -75c-51 0 -90 30 -90 82c0 60 55 98 122 128h-162v39c67 2 102 12 102 73v478c0 61 -35 71 -102 73v39h300v-39c-67 -2 -102 -12 -102 -73v-478
c0 -61 35 -71 102 -73v-39z" />
    <glyph glyph-name="Itilde" unicode="&#x128;" horiz-adv-x="368" 
d="M334 0h-300v39c67 2 102 12 102 73v478c0 61 -35 71 -102 73v39h300v-39c-67 -2 -102 -12 -102 -73v-478c0 -61 35 -71 102 -73v-39zM331 890l37 -10c-45 -99 -71 -120 -118 -120c-60 0 -105 72 -147 72c-31 0 -43 -21 -65 -62l-37 10c45 99 71 120 118 120
c60 0 105 -72 147 -72c31 0 43 21 65 62z" />
    <glyph glyph-name="IJ" unicode="&#x132;" horiz-adv-x="888" 
d="M334 0h-300v39c67 2 102 12 102 73v478c0 61 -35 71 -102 73v39h300v-39c-67 -2 -102 -12 -102 -73v-478c0 -61 35 -71 102 -73v-39zM773 590v-390c0 -142 -77 -209 -205 -209c-115 0 -190 49 -190 124c0 27 12 51 27 64h71v-45c0 -68 41 -100 98 -100
c60 0 102 39 102 150v406c0 61 -35 71 -101 73v39h300v-39c-67 -2 -102 -12 -102 -73z" />
    <glyph glyph-name="Jcircumflex" unicode="&#x134;" horiz-adv-x="520" 
d="M405 590v-390c0 -142 -77 -209 -205 -209c-115 0 -190 49 -190 124c0 27 12 51 27 64h71v-45c0 -68 41 -100 98 -100c60 0 102 39 102 150v406c0 61 -35 71 -101 73v39h300v-39c-67 -2 -102 -12 -102 -73zM383 920l150 -159h-46l-138 90l-138 -90h-46l150 159h68z" />
    <glyph glyph-name="Kcommaaccent" unicode="&#x136;" horiz-adv-x="714" 
d="M343 384l238 -266c57 -63 84 -75 129 -79v-39h-135c-33 18 -61 44 -99 87l-233 270l251 241c11 10 22 22 22 37c0 18 -11 23 -80 28v39h255v-39c-47 -2 -77 -19 -110 -51zM136 112v478c0 61 -35 71 -102 73v39h300v-39c-65 -2 -101 -12 -101 -73v-478
c0 -61 36 -71 101 -73v-39h-300v39c67 2 102 12 102 73zM393 -153h-48c-30 6 -42 25 -42 48c0 32 26 53 63 53c48 0 75 -33 75 -76c0 -59 -33 -102 -126 -102v33c51 0 78 16 78 44z" />
    <glyph glyph-name="Lacute" unicode="&#x139;" horiz-adv-x="614" 
d="M233 590v-476c0 -54 30 -68 101 -68h58c88 0 110 45 166 149h32l-32 -195h-524v39c67 2 102 12 102 73v478c0 61 -35 71 -102 73v39h300v-39c-65 -2 -101 -12 -101 -73zM243 910h120l-155 -149h-39z" />
    <glyph glyph-name="Lcaron" unicode="&#x13d;" horiz-adv-x="614" 
d="M233 590v-476c0 -54 30 -68 101 -68h58c88 0 110 45 166 149h32l-32 -195h-524v39c67 2 102 12 102 73v478c0 61 -35 71 -102 73v39h300v-39c-65 -2 -101 -12 -101 -73zM533 703l-82 -205h-35l20 205h97z" />
    <glyph glyph-name="Lcommaaccent" unicode="&#x13b;" horiz-adv-x="614" 
d="M233 590v-476c0 -54 30 -68 101 -68h58c88 0 110 45 166 149h32l-32 -195h-524v39c67 2 102 12 102 73v478c0 61 -35 71 -102 73v39h300v-39c-65 -2 -101 -12 -101 -73zM353 -153h-48c-30 6 -42 25 -42 48c0 32 26 53 63 53c48 0 75 -33 75 -76c0 -59 -33 -102 -126 -102
v33c51 0 78 16 78 44z" />
    <glyph glyph-name="Ldot" unicode="&#x13f;" horiz-adv-x="614" 
d="M233 590v-476c0 -54 30 -68 101 -68h58c88 0 110 45 166 149h32l-32 -195h-524v39c67 2 102 12 102 73v478c0 61 -35 71 -102 73v39h300v-39c-65 -2 -101 -12 -101 -73zM513 319c-36 0 -65 30 -65 67s29 67 65 67s65 -30 65 -67s-29 -67 -65 -67z" />
    <glyph glyph-name="Nacute" unicode="&#x143;" horiz-adv-x="806" 
d="M136 112v488c-40 47 -53 62 -102 63v39h171l416 -527v415c0 61 -35 71 -102 73v39h262v-39c-67 -2 -102 -12 -102 -73v-590h-41l-444 555v-443c0 -61 35 -71 102 -73v-39h-262v39c67 2 102 12 102 73zM448 910h120l-155 -149h-39z" />
    <glyph glyph-name="Ncaron" unicode="&#x147;" horiz-adv-x="806" 
d="M136 112v488c-40 47 -53 62 -102 63v39h171l416 -527v415c0 61 -35 71 -102 73v39h262v-39c-67 -2 -102 -12 -102 -73v-590h-41l-444 555v-443c0 -61 35 -71 102 -73v-39h-262v39c67 2 102 12 102 73zM591 920l-150 -159h-68l-150 159h46l138 -90l138 90h46z" />
    <glyph glyph-name="Ncommaaccent" unicode="&#x145;" horiz-adv-x="806" 
d="M136 112v488c-40 47 -53 62 -102 63v39h171l416 -527v415c0 61 -35 71 -102 73v39h262v-39c-67 -2 -102 -12 -102 -73v-590h-41l-444 555v-443c0 -61 35 -71 102 -73v-39h-262v39c67 2 102 12 102 73zM428 -153h-48c-30 6 -42 25 -42 48c0 32 26 53 63 53
c48 0 75 -33 75 -76c0 -59 -33 -102 -126 -102v33c51 0 78 16 78 44z" />
    <glyph glyph-name="Eng" unicode="&#x14a;" horiz-adv-x="806" 
d="M590 65l-396 490v-443c0 -61 35 -71 102 -73v-39h-262v39c67 2 102 12 102 73v488c-40 47 -53 62 -102 63v39h171l416 -527v415c0 61 -35 71 -102 73v39h262v-39c-67 -2 -102 -12 -102 -73v-504c0 -73 -2 -114 -25 -161c-27 -53 -76 -92 -133 -133l-23 25l32 41
c51 65 60 110 60 207z" />
    <glyph glyph-name="Obreve" unicode="&#x14e;" horiz-adv-x="748" 
d="M385 45c142 0 213 132 213 303c0 153 -69 309 -235 309c-142 0 -213 -132 -213 -303c0 -153 69 -309 235 -309zM377 712c207 0 328 -161 328 -347c0 -229 -152 -375 -334 -375c-207 0 -328 161 -328 347c0 229 152 375 334 375zM374 758c-91 0 -152 57 -152 157h37
c5 -67 61 -93 115 -93s110 26 115 93h37c0 -100 -61 -157 -152 -157z" />
    <glyph glyph-name="Ohungarumlaut" unicode="&#x150;" horiz-adv-x="748" 
d="M385 45c142 0 213 132 213 303c0 153 -69 309 -235 309c-142 0 -213 -132 -213 -303c0 -153 69 -309 235 -309zM377 712c207 0 328 -161 328 -347c0 -229 -152 -375 -334 -375c-207 0 -328 161 -328 347c0 229 152 375 334 375zM342 910h106l-133 -149h-40zM492 910h106
l-133 -149h-40z" />
    <glyph glyph-name="Omacron" unicode="&#x14c;" horiz-adv-x="748" 
d="M385 45c142 0 213 132 213 303c0 153 -69 309 -235 309c-142 0 -213 -132 -213 -303c0 -153 69 -309 235 -309zM377 712c207 0 328 -161 328 -347c0 -229 -152 -375 -334 -375c-207 0 -328 161 -328 347c0 229 152 375 334 375zM233 783v62h282v-62h-282z" />
    <glyph glyph-name="Oslashacute" unicode="&#x1fe;" horiz-adv-x="754" 
d="M655 727l-61 -92c74 -65 114 -163 114 -270c0 -229 -152 -375 -334 -375c-68 0 -126 17 -174 47l-61 -93l-39 23l63 96c-76 65 -117 165 -117 274c0 229 152 375 334 375c69 0 129 -19 178 -50l58 88zM153 354c0 -79 18 -159 59 -217l303 460c-36 37 -86 60 -149 60
c-142 0 -213 -132 -213 -303zM388 45c142 0 213 132 213 303c0 77 -17 155 -56 213l-303 -460c36 -35 84 -56 146 -56zM418 910h120l-155 -149h-39z" />
    <glyph glyph-name="Racute" unicode="&#x154;" horiz-adv-x="704" 
d="M298 656h-66v-306h70c119 0 176 52 176 155c0 85 -53 151 -180 151zM34 702h294c178 0 256 -81 256 -197c0 -113 -98 -177 -193 -186l168 -209c32 -40 75 -68 129 -71v-39h-143c-37 23 -58 45 -91 88l-169 218h-53v-194c0 -61 36 -71 101 -73v-39h-299v39
c67 2 102 12 102 73v478c0 61 -35 71 -102 73v39zM362 910h120l-155 -149h-39z" />
    <glyph glyph-name="Rcaron" unicode="&#x158;" horiz-adv-x="704" 
d="M298 656h-66v-306h70c119 0 176 52 176 155c0 85 -53 151 -180 151zM34 702h294c178 0 256 -81 256 -197c0 -113 -98 -177 -193 -186l168 -209c32 -40 75 -68 129 -71v-39h-143c-37 23 -58 45 -91 88l-169 218h-53v-194c0 -61 36 -71 101 -73v-39h-299v39
c67 2 102 12 102 73v478c0 61 -35 71 -102 73v39zM505 920l-150 -159h-68l-150 159h46l138 -90l138 90h46z" />
    <glyph glyph-name="Rcommaaccent" unicode="&#x156;" horiz-adv-x="704" 
d="M298 656h-66v-306h70c119 0 176 52 176 155c0 85 -53 151 -180 151zM34 702h294c178 0 256 -81 256 -197c0 -113 -98 -177 -193 -186l168 -209c32 -40 75 -68 129 -71v-39h-143c-37 23 -58 45 -91 88l-169 218h-53v-194c0 -61 36 -71 101 -73v-39h-299v39
c67 2 102 12 102 73v478c0 61 -35 71 -102 73v39zM392 -153h-48c-30 6 -42 25 -42 48c0 32 26 53 63 53c48 0 75 -33 75 -76c0 -59 -33 -102 -126 -102v33c51 0 78 16 78 44z" />
    <glyph glyph-name="Sacute" unicode="&#x15a;" horiz-adv-x="556" 
d="M265 -10c-94 0 -174 32 -218 69l-7 164h35c30 -105 91 -183 193 -183c94 0 151 46 151 128c0 69 -45 101 -166 146c-133 49 -205 97 -205 210c0 106 79 188 219 188c81 0 154 -27 208 -63v-153h-33c-23 97 -83 166 -180 166c-84 0 -127 -48 -127 -112
c0 -68 34 -99 158 -145c147 -54 217 -106 217 -217c0 -128 -112 -198 -245 -198zM314 910h120l-155 -149h-39z" />
    <glyph glyph-name="Scedilla" unicode="&#x15e;" horiz-adv-x="556" 
d="M196 -221l-6 33c72 0 117 15 117 46c0 30 -35 43 -93 45l35 87c-87 4 -161 34 -202 69l-7 164h35c30 -105 91 -183 193 -183c94 0 151 46 151 128c0 69 -45 101 -166 146c-133 49 -205 97 -205 210c0 106 79 188 219 188c81 0 154 -27 208 -63v-153h-33
c-23 97 -83 166 -180 166c-84 0 -127 -48 -127 -112c0 -68 34 -99 158 -145c147 -54 217 -106 217 -217c0 -123 -103 -192 -228 -197l-15 -39c67 -1 109 -20 109 -74c0 -68 -80 -99 -180 -99z" />
    <glyph glyph-name="Scircumflex" unicode="&#x15c;" horiz-adv-x="556" 
d="M265 -10c-94 0 -174 32 -218 69l-7 164h35c30 -105 91 -183 193 -183c94 0 151 46 151 128c0 69 -45 101 -166 146c-133 49 -205 97 -205 210c0 106 79 188 219 188c81 0 154 -27 208 -63v-153h-33c-23 97 -83 166 -180 166c-84 0 -127 -48 -127 -112
c0 -68 34 -99 158 -145c147 -54 217 -106 217 -217c0 -128 -112 -198 -245 -198zM307 920l150 -159h-46l-138 90l-138 -90h-46l150 159h68z" />
    <glyph glyph-name="Scommaaccent" unicode="&#x218;" horiz-adv-x="556" 
d="M265 -10c-94 0 -174 32 -218 69l-7 164h35c30 -105 91 -183 193 -183c94 0 151 46 151 128c0 69 -45 101 -166 146c-133 49 -205 97 -205 210c0 106 79 188 219 188c81 0 154 -27 208 -63v-153h-33c-23 97 -83 166 -180 166c-84 0 -127 -48 -127 -112
c0 -68 34 -99 158 -145c147 -54 217 -106 217 -217c0 -128 -112 -198 -245 -198zM304 -153h-48c-30 6 -42 25 -42 48c0 32 26 53 63 53c48 0 75 -33 75 -76c0 -59 -33 -102 -126 -102v33c51 0 78 16 78 44z" />
    <glyph glyph-name="Tbar" unicode="&#x166;" horiz-adv-x="663" 
d="M30 702h602l16 -209h-32c-59 137 -70 164 -161 164h-76v-266h131v-43h-131v-236c0 -61 39 -71 106 -73v-39h-308v39c67 2 105 12 105 73v236h-131v43h131v266h-74c-91 0 -102 -27 -162 -164h-31z" />
    <glyph glyph-name="Tcaron" unicode="&#x164;" horiz-adv-x="663" 
d="M30 702h602l16 -209h-32c-59 137 -70 164 -161 164h-76v-545c0 -61 39 -71 106 -73v-39h-308v39c67 2 105 12 105 73v545h-74c-91 0 -102 -27 -162 -164h-31zM515 920l-150 -159h-68l-150 159h46l138 -90l138 90h46z" />
    <glyph glyph-name="Ubreve" unicode="&#x16c;" horiz-adv-x="766" 
d="M207 590v-344c0 -125 69 -193 183 -193c135 0 209 57 209 201v336c0 61 -36 71 -102 73v39h261v-39c-66 -2 -101 -12 -101 -73v-355c0 -166 -126 -244 -269 -244c-168 0 -278 77 -278 246v353c0 61 -36 71 -102 73v39h300v-39c-66 -2 -101 -12 -101 -73zM403 758
c-91 0 -152 57 -152 157h37c5 -67 61 -93 115 -93s110 26 115 93h37c0 -100 -61 -157 -152 -157z" />
    <glyph glyph-name="Uhungarumlaut" unicode="&#x170;" horiz-adv-x="766" 
d="M207 590v-344c0 -125 69 -193 183 -193c135 0 209 57 209 201v336c0 61 -36 71 -102 73v39h261v-39c-66 -2 -101 -12 -101 -73v-355c0 -166 -126 -244 -269 -244c-168 0 -278 77 -278 246v353c0 61 -36 71 -102 73v39h300v-39c-66 -2 -101 -12 -101 -73zM371 910h106
l-133 -149h-40zM521 910h106l-133 -149h-40z" />
    <glyph glyph-name="Umacron" unicode="&#x16a;" horiz-adv-x="766" 
d="M207 590v-344c0 -125 69 -193 183 -193c135 0 209 57 209 201v336c0 61 -36 71 -102 73v39h261v-39c-66 -2 -101 -12 -101 -73v-355c0 -166 -126 -244 -269 -244c-168 0 -278 77 -278 246v353c0 61 -36 71 -102 73v39h300v-39c-66 -2 -101 -12 -101 -73zM262 783v62h282
v-62h-282z" />
    <glyph glyph-name="Uogonek" unicode="&#x172;" horiz-adv-x="766" 
d="M207 590v-344c0 -125 69 -193 183 -193c135 0 209 57 209 201v336c0 61 -36 71 -102 73v39h261v-39c-66 -2 -101 -12 -101 -73v-355c0 -126 -73 -201 -170 -230c-62 -26 -127 -60 -127 -112c0 -25 17 -43 49 -43s60 12 92 37l12 -17c-28 -35 -74 -75 -130 -75
c-51 0 -90 30 -90 82c0 51 40 86 93 114c-167 1 -276 77 -276 246v353c0 61 -36 71 -102 73v39h300v-39c-66 -2 -101 -12 -101 -73z" />
    <glyph glyph-name="Uring" unicode="&#x16e;" horiz-adv-x="766" 
d="M207 590v-344c0 -125 69 -193 183 -193c135 0 209 57 209 201v336c0 61 -36 71 -102 73v39h261v-39c-66 -2 -101 -12 -101 -73v-355c0 -166 -126 -244 -269 -244c-168 0 -278 77 -278 246v353c0 61 -36 71 -102 73v39h300v-39c-66 -2 -101 -12 -101 -73zM310 835
c0 52 38 91 93 91s93 -39 93 -91s-38 -91 -93 -91s-93 39 -93 91zM454 835c0 31 -17 54 -51 54s-51 -23 -51 -54s17 -54 51 -54s51 23 51 54z" />
    <glyph glyph-name="Utilde" unicode="&#x168;" horiz-adv-x="766" 
d="M207 590v-344c0 -125 69 -193 183 -193c135 0 209 57 209 201v336c0 61 -36 71 -102 73v39h261v-39c-66 -2 -101 -12 -101 -73v-355c0 -166 -126 -244 -269 -244c-168 0 -278 77 -278 246v353c0 61 -36 71 -102 73v39h300v-39c-66 -2 -101 -12 -101 -73zM550 890l37 -10
c-45 -99 -71 -120 -118 -120c-60 0 -105 72 -147 72c-31 0 -43 -21 -65 -62l-37 10c45 99 71 120 118 120c60 0 105 -72 147 -72c31 0 43 21 65 62z" />
    <glyph glyph-name="Wacute" unicode="&#x1e82;" horiz-adv-x="961" 
d="M669 148l152 431c5 15 11 28 11 40c0 31 -24 42 -94 44v39h218v-39c-27 -4 -50 -8 -60 -37l-230 -635h-29l-153 431l-152 -431h-29l-237 635c-11 27 -34 33 -61 37v39h266v-39c-69 -2 -93 -12 -93 -43c0 -12 5 -25 10 -40l153 -432l118 346l-45 132c-11 30 -34 33 -61 37
v39h256v-39c-70 -2 -94 -12 -94 -43c0 -12 5 -25 10 -40zM521 910h120l-155 -149h-39z" />
    <glyph glyph-name="Wcircumflex" unicode="&#x174;" horiz-adv-x="961" 
d="M669 148l152 431c5 15 11 28 11 40c0 31 -24 42 -94 44v39h218v-39c-27 -4 -50 -8 -60 -37l-230 -635h-29l-153 431l-152 -431h-29l-237 635c-11 27 -34 33 -61 37v39h266v-39c-69 -2 -93 -12 -93 -43c0 -12 5 -25 10 -40l153 -432l118 346l-45 132c-11 30 -34 33 -61 37
v39h256v-39c-70 -2 -94 -12 -94 -43c0 -12 5 -25 10 -40zM514 920l150 -159h-46l-138 90l-138 -90h-46l150 159h68z" />
    <glyph glyph-name="Wgrave" unicode="&#x1e80;" horiz-adv-x="961" 
d="M669 148l152 431c5 15 11 28 11 40c0 31 -24 42 -94 44v39h218v-39c-27 -4 -50 -8 -60 -37l-230 -635h-29l-153 431l-152 -431h-29l-237 635c-11 27 -34 33 -61 37v39h266v-39c-69 -2 -93 -12 -93 -43c0 -12 5 -25 10 -40l153 -432l118 346l-45 132c-11 30 -34 33 -61 37
v39h256v-39c-70 -2 -94 -12 -94 -43c0 -12 5 -25 10 -40zM315 910h120l74 -149h-39z" />
    <glyph glyph-name="Wdieresis" unicode="&#x1e84;" horiz-adv-x="961" 
d="M669 148l152 431c5 15 11 28 11 40c0 31 -24 42 -94 44v39h218v-39c-27 -4 -50 -8 -60 -37l-230 -635h-29l-153 431l-152 -431h-29l-237 635c-11 27 -34 33 -61 37v39h266v-39c-69 -2 -93 -12 -93 -43c0 -12 5 -25 10 -40l153 -432l118 346l-45 132c-11 30 -34 33 -61 37
v39h256v-39c-70 -2 -94 -12 -94 -43c0 -12 5 -25 10 -40zM319 832c0 33 27 60 61 60s61 -27 61 -60c0 -35 -27 -62 -61 -62s-61 27 -61 62zM519 832c0 33 27 60 61 60s61 -27 61 -60c0 -35 -27 -62 -61 -62s-61 27 -61 62z" />
    <glyph glyph-name="Ycircumflex" unicode="&#x176;" horiz-adv-x="663" 
d="M350 334l157 246c10 17 17 30 17 46c0 27 -21 35 -91 37v39h225v-39c-29 -4 -45 -11 -61 -37l-221 -343v-171c0 -61 36 -71 101 -73v-39h-298v39c67 2 102 12 102 73v170l-215 344c-16 26 -33 33 -61 37v39h265v-39c-69 -2 -91 -10 -91 -37c0 -16 7 -29 18 -46zM381 920
l150 -159h-46l-138 90l-138 -90h-46l150 159h68z" />
    <glyph glyph-name="Ygrave" unicode="&#x1ef2;" horiz-adv-x="663" 
d="M350 334l157 246c10 17 17 30 17 46c0 27 -21 35 -91 37v39h225v-39c-29 -4 -45 -11 -61 -37l-221 -343v-171c0 -61 36 -71 101 -73v-39h-298v39c67 2 102 12 102 73v170l-215 344c-16 26 -33 33 -61 37v39h265v-39c-69 -2 -91 -10 -91 -37c0 -16 7 -29 18 -46zM182 910
h120l74 -149h-39z" />
    <glyph glyph-name="Zacute" unicode="&#x179;" horiz-adv-x="620" 
d="M155 47h242c88 0 111 47 166 151h33l-33 -198h-538v25l427 629h-223c-80 0 -95 -30 -142 -137h-29v185h521v-26zM351 910h120l-155 -149h-39z" />
    <glyph glyph-name="Zdotaccent" unicode="&#x17b;" horiz-adv-x="620" 
d="M155 47h242c88 0 111 47 166 151h33l-33 -198h-538v25l427 629h-223c-80 0 -95 -30 -142 -137h-29v185h521v-26zM310 767c-36 0 -65 30 -65 67s29 67 65 67s65 -30 65 -67s-29 -67 -65 -67z" />
    <glyph glyph-name="abreve" unicode="&#x103;" horiz-adv-x="535" 
d="M219 60c47 0 81 14 123 45v179l-142 -54c-37 -14 -61 -43 -61 -81c0 -57 29 -89 80 -89zM435 372c0 -33 -3 -206 -3 -248c0 -44 17 -68 46 -68c9 0 32 2 47 6l5 -24c-34 -34 -65 -48 -100 -48c-51 0 -76 37 -85 91c-36 -41 -93 -91 -167 -91c-91 0 -133 62 -133 135
c0 93 74 125 139 148l158 57v49c0 60 -21 113 -99 113c-54 0 -82 -23 -82 -74c0 -17 2 -32 7 -52l-75 -10c-14 14 -21 30 -21 54c0 82 81 130 190 130c115 0 173 -59 173 -168zM261 593c-90 0 -141 61 -141 168h39c5 -72 48 -102 102 -102s97 30 102 102h39
c0 -107 -51 -168 -141 -168z" />
    <glyph glyph-name="amacron" unicode="&#x101;" horiz-adv-x="535" 
d="M219 60c47 0 81 14 123 45v179l-142 -54c-37 -14 -61 -43 -61 -81c0 -57 29 -89 80 -89zM435 372c0 -33 -3 -206 -3 -248c0 -44 17 -68 46 -68c9 0 32 2 47 6l5 -24c-34 -34 -65 -48 -100 -48c-51 0 -76 37 -85 91c-36 -41 -93 -91 -167 -91c-91 0 -133 62 -133 135
c0 93 74 125 139 148l158 57v49c0 60 -21 113 -99 113c-54 0 -82 -23 -82 -74c0 -17 2 -32 7 -52l-75 -10c-14 14 -21 30 -21 54c0 82 81 130 190 130c115 0 173 -59 173 -168zM132 623v58h262v-58h-262z" />
    <glyph glyph-name="aogonek" unicode="&#x105;" horiz-adv-x="535" 
d="M435 372c0 -33 -3 -206 -3 -248c0 -44 17 -68 46 -68c9 0 32 2 47 6l5 -24c-83 -48 -182 -85 -182 -150c0 -25 17 -43 49 -43s60 12 92 37l12 -17c-28 -35 -74 -75 -130 -75c-51 0 -90 30 -90 82c0 58 51 98 115 128c-29 12 -45 40 -51 81c-36 -41 -93 -91 -167 -91
c-91 0 -133 62 -133 135c0 93 74 125 139 148l158 57v49c0 60 -21 113 -99 113c-54 0 -82 -23 -82 -74c0 -17 2 -32 7 -52l-75 -10c-14 14 -21 30 -21 54c0 82 81 130 190 130c115 0 173 -59 173 -168zM219 60c47 0 81 14 123 45v179l-142 -54c-37 -14 -61 -43 -61 -81
c0 -57 29 -89 80 -89z" />
    <glyph glyph-name="aringacute" unicode="&#x1fb;" horiz-adv-x="535" 
d="M167 649c0 49 41 81 99 81c59 0 100 -32 100 -81c0 -48 -41 -80 -100 -80c-58 0 -99 32 -99 80zM322 649c0 28 -19 48 -56 48c-36 0 -55 -20 -55 -48c0 -27 19 -47 55 -47c37 0 56 20 56 47zM299 860h117l-127 -102h-39zM219 60c47 0 81 14 123 45v179l-142 -54
c-37 -14 -61 -43 -61 -81c0 -57 29 -89 80 -89zM435 372c0 -33 -3 -206 -3 -248c0 -44 17 -68 46 -68c9 0 32 2 47 6l5 -24c-34 -34 -65 -48 -100 -48c-51 0 -76 37 -85 91c-36 -41 -93 -91 -167 -91c-91 0 -133 62 -133 135c0 93 74 125 139 148l158 57v49
c0 60 -21 113 -99 113c-54 0 -82 -23 -82 -74c0 -17 2 -32 7 -52l-75 -10c-14 14 -21 30 -21 54c0 82 81 130 190 130c115 0 173 -59 173 -168z" />
    <glyph glyph-name="aeacute" unicode="&#x1fd;" horiz-adv-x="828" 
d="M586 540c132 0 201 -92 201 -223v-31h-358c0 -131 70 -220 183 -220c75 0 122 37 159 86l17 -9c-24 -89 -98 -153 -210 -153c-90 0 -156 43 -195 109c-53 -69 -113 -109 -195 -109c-91 0 -143 62 -143 135c0 93 77 124 142 143l164 48c3 17 7 32 11 47
c-3 58 -30 129 -119 129c-54 0 -82 -23 -82 -74c0 -17 2 -32 7 -52l-75 -10c-14 14 -21 30 -21 54c0 82 81 130 184 130c78 0 132 -28 159 -79c43 50 102 79 171 79zM346 248v20l-143 -43c-39 -12 -64 -38 -64 -81c0 -52 29 -84 80 -84c64 0 111 26 153 60
c-17 37 -26 81 -26 128zM571 491c-79 0 -130 -76 -138 -159h262c0 96 -42 159 -124 159zM459 761h116l-151 -169h-39z" />
    <glyph glyph-name="cacute" unicode="&#x107;" horiz-adv-x="506" 
d="M124 286c0 -131 64 -220 177 -220c69 0 114 31 152 85l18 -10c-29 -101 -102 -151 -203 -151c-137 0 -228 108 -228 258c0 158 102 292 256 292c106 0 169 -47 169 -123c0 -35 -18 -50 -40 -60h-51v34c0 56 -28 99 -91 99c-95 0 -159 -88 -159 -204zM326 761h116
l-151 -169h-39z" />
    <glyph glyph-name="ccaron" unicode="&#x10d;" horiz-adv-x="506" 
d="M124 286c0 -131 64 -220 177 -220c69 0 114 31 152 85l18 -10c-29 -101 -102 -151 -203 -151c-137 0 -228 108 -228 258c0 158 102 292 256 292c106 0 169 -47 169 -123c0 -35 -18 -50 -40 -60h-51v34c0 56 -28 99 -91 99c-95 0 -159 -88 -159 -204zM457 769l-140 -173
h-68l-140 173h46l128 -103l128 103h46z" />
    <glyph glyph-name="ccircumflex" unicode="&#x109;" horiz-adv-x="506" 
d="M124 286c0 -131 64 -220 177 -220c69 0 114 31 152 85l18 -10c-29 -101 -102 -151 -203 -151c-137 0 -228 108 -228 258c0 158 102 292 256 292c106 0 169 -47 169 -123c0 -35 -18 -50 -40 -60h-51v34c0 56 -28 99 -91 99c-95 0 -159 -88 -159 -204zM318 765l140 -173
h-46l-128 103l-128 -103h-46l140 173h68z" />
    <glyph glyph-name="cdotaccent" unicode="&#x10b;" horiz-adv-x="506" 
d="M124 286c0 -131 64 -220 177 -220c69 0 114 31 152 85l18 -10c-29 -101 -102 -151 -203 -151c-137 0 -228 108 -228 258c0 158 102 292 256 292c106 0 169 -47 169 -123c0 -35 -18 -50 -40 -60h-51v34c0 56 -28 99 -91 99c-95 0 -159 -88 -159 -204zM284 611
c-36 0 -65 30 -65 67s29 67 65 67s65 -30 65 -67s-29 -67 -65 -67z" />
    <glyph glyph-name="dcaron" unicode="&#x10f;" horiz-adv-x="627" 
d="M418 -10v89c-41 -53 -91 -89 -165 -89c-136 0 -213 112 -213 250c0 185 111 300 252 300c54 0 102 -21 126 -55v170l-73 35v21l141 50h24v-653c0 -34 11 -41 57 -46l26 -3v-34l-160 -35h-15zM289 494c-94 0 -157 -88 -157 -217c0 -113 49 -218 156 -218
c50 0 100 19 130 51v245c0 95 -51 139 -129 139zM717 761l-82 -205h-35l20 205h97z" />
    <glyph glyph-name="dcroat" unicode="&#x111;" horiz-adv-x="623" 
d="M593 584h-83v-476c0 -34 11 -41 57 -46l26 -3v-34l-160 -35h-15v89c-41 -53 -91 -89 -165 -89c-136 0 -213 112 -213 250c0 185 111 291 252 291c54 0 102 -21 126 -55v108h-145v40h145v66h-73v27l141 44h24v-137h83v-40zM289 485c-94 0 -157 -79 -157 -208
c0 -113 49 -218 156 -218c50 0 100 19 130 51v236c0 95 -51 139 -129 139z" />
    <glyph glyph-name="ebreve" unicode="&#x115;" horiz-adv-x="522" 
d="M280 540c132 0 201 -92 201 -223v-31h-358c0 -131 70 -220 183 -220c75 0 122 37 159 86l17 -9c-24 -89 -98 -153 -210 -153c-146 0 -232 115 -232 258c0 175 102 292 240 292zM265 491c-79 0 -130 -74 -138 -157h262c0 96 -42 157 -124 157zM277 593
c-90 0 -141 61 -141 168h39c5 -72 48 -102 102 -102s97 30 102 102h39c0 -107 -51 -168 -141 -168z" />
    <glyph glyph-name="ecaron" unicode="&#x11b;" horiz-adv-x="522" 
d="M280 540c132 0 201 -92 201 -223v-31h-358c0 -131 70 -220 183 -220c75 0 122 37 159 86l17 -9c-24 -89 -98 -153 -210 -153c-146 0 -232 115 -232 258c0 175 102 292 240 292zM265 491c-79 0 -130 -74 -138 -157h262c0 96 -42 157 -124 157zM451 769l-140 -173h-68
l-140 173h46l128 -103l128 103h46z" />
    <glyph glyph-name="edotaccent" unicode="&#x117;" horiz-adv-x="522" 
d="M280 540c132 0 201 -92 201 -223v-31h-358c0 -131 70 -220 183 -220c75 0 122 37 159 86l17 -9c-24 -89 -98 -153 -210 -153c-146 0 -232 115 -232 258c0 175 102 292 240 292zM265 491c-79 0 -130 -74 -138 -157h262c0 96 -42 157 -124 157zM275 611
c-36 0 -65 30 -65 67s29 67 65 67s65 -30 65 -67s-29 -67 -65 -67z" />
    <glyph glyph-name="emacron" unicode="&#x113;" horiz-adv-x="522" 
d="M280 540c132 0 201 -92 201 -223v-31h-358c0 -131 70 -220 183 -220c75 0 122 37 159 86l17 -9c-24 -89 -98 -153 -210 -153c-146 0 -232 115 -232 258c0 175 102 292 240 292zM265 491c-79 0 -130 -74 -138 -157h262c0 96 -42 157 -124 157zM145 623v58h262v-58h-262z
" />
    <glyph glyph-name="eogonek" unicode="&#x119;" horiz-adv-x="522" 
d="M280 540c132 0 201 -92 201 -223v-31h-358c0 -131 70 -220 183 -220c75 0 122 37 159 86l17 -9c-18 -65 -62 -117 -128 -140c-56 -26 -108 -68 -108 -115c0 -25 17 -43 49 -43s60 12 92 37l12 -17c-28 -35 -74 -75 -130 -75c-51 0 -90 30 -90 82c0 49 36 88 85 118
c-141 4 -224 117 -224 258c0 175 102 292 240 292zM265 491c-79 0 -130 -74 -138 -157h262c0 96 -42 157 -124 157z" />
    <glyph glyph-name="gbreve" unicode="&#x11f;" horiz-adv-x="544" 
d="M255 189c-32 0 -63 5 -91 15c-32 -33 -42 -51 -42 -74s13 -32 37 -32h226c90 0 144 -31 144 -117c0 -112 -122 -188 -292 -188c-140 0 -222 41 -222 124c0 57 46 82 93 104c-39 14 -57 37 -57 73c0 49 40 88 92 120c-53 27 -88 76 -88 145c0 112 86 181 202 181
c35 0 65 -8 89 -18l181 13v-68h-37l-103 23v-5c39 -25 69 -68 69 -121c0 -106 -80 -175 -201 -175zM367 12h-244c-19 -20 -26 -42 -26 -64c0 -77 67 -107 159 -107c115 0 195 39 195 112c0 49 -31 59 -84 59zM265 228c68 0 102 53 102 128c0 78 -44 142 -119 142
c-68 0 -101 -53 -101 -128c0 -77 42 -142 118 -142zM276 593c-90 0 -141 61 -141 168h39c5 -72 48 -102 102 -102s97 30 102 102h39c0 -107 -51 -168 -141 -168z" />
    <glyph glyph-name="gcircumflex" unicode="&#x11d;" horiz-adv-x="544" 
d="M255 189c-32 0 -63 5 -91 15c-32 -33 -42 -51 -42 -74s13 -32 37 -32h226c90 0 144 -31 144 -117c0 -112 -122 -188 -292 -188c-140 0 -222 41 -222 124c0 57 46 82 93 104c-39 14 -57 37 -57 73c0 49 40 88 92 120c-53 27 -88 76 -88 145c0 112 86 181 202 181
c35 0 65 -8 89 -18l181 13v-68h-37l-103 23v-5c39 -25 69 -68 69 -121c0 -106 -80 -175 -201 -175zM367 12h-244c-19 -20 -26 -42 -26 -64c0 -77 67 -107 159 -107c115 0 195 39 195 112c0 49 -31 59 -84 59zM265 228c68 0 102 53 102 128c0 78 -44 142 -119 142
c-68 0 -101 -53 -101 -128c0 -77 42 -142 118 -142zM310 765l140 -173h-46l-128 103l-128 -103h-46l140 173h68z" />
    <glyph glyph-name="gcommaaccent" unicode="&#x123;" horiz-adv-x="544" 
d="M255 189c-32 0 -63 5 -91 15c-32 -33 -42 -51 -42 -74s13 -32 37 -32h226c90 0 144 -31 144 -117c0 -112 -122 -188 -292 -188c-140 0 -222 41 -222 124c0 57 46 82 93 104c-39 14 -57 37 -57 73c0 49 40 88 92 120c-53 27 -88 76 -88 145c0 112 86 181 202 181
c35 0 65 -8 89 -18l181 13v-68h-37l-103 23v-5c39 -25 69 -68 69 -121c0 -106 -80 -175 -201 -175zM367 12h-244c-19 -20 -26 -42 -26 -64c0 -77 67 -107 159 -107c115 0 195 39 195 112c0 49 -31 59 -84 59zM265 228c68 0 102 53 102 128c0 78 -44 142 -119 142
c-68 0 -101 -53 -101 -128c0 -77 42 -142 118 -142zM255 708h48c30 -6 42 -25 42 -48c0 -32 -26 -53 -63 -53c-48 0 -75 33 -75 76c0 59 33 102 126 102v-33c-51 0 -78 -16 -78 -44z" />
    <glyph glyph-name="gdotaccent" unicode="&#x121;" horiz-adv-x="544" 
d="M255 189c-32 0 -63 5 -91 15c-32 -33 -42 -51 -42 -74s13 -32 37 -32h226c90 0 144 -31 144 -117c0 -112 -122 -188 -292 -188c-140 0 -222 41 -222 124c0 57 46 82 93 104c-39 14 -57 37 -57 73c0 49 40 88 92 120c-53 27 -88 76 -88 145c0 112 86 181 202 181
c35 0 65 -8 89 -18l181 13v-68h-37l-103 23v-5c39 -25 69 -68 69 -121c0 -106 -80 -175 -201 -175zM367 12h-244c-19 -20 -26 -42 -26 -64c0 -77 67 -107 159 -107c115 0 195 39 195 112c0 49 -31 59 -84 59zM265 228c68 0 102 53 102 128c0 78 -44 142 -119 142
c-68 0 -101 -53 -101 -128c0 -77 42 -142 118 -142zM276 611c-36 0 -65 30 -65 67s29 67 65 67s65 -30 65 -67s-29 -67 -65 -67z" />
    <glyph glyph-name="hbar" unicode="&#x127;" horiz-adv-x="642" 
d="M363 584h-155v-151c49 48 108 98 191 98c87 0 140 -47 140 -164v-275c0 -46 33 -51 78 -57v-35h-247v35c44 6 77 11 77 57v268c0 72 -29 97 -93 97c-52 0 -107 -23 -146 -53v-312c0 -46 33 -51 77 -57v-35h-247v35c45 6 78 11 78 57v492h-73v40h73v66h-73v27l140 44h25
v-137h155v-40z" />
    <glyph glyph-name="hcircumflex" unicode="&#x125;" horiz-adv-x="636" 
d="M202 761v-319c49 48 108 98 191 98c87 0 140 -47 140 -164v-284c0 -46 33 -51 78 -57v-35h-247v35c44 6 77 11 77 57v277c0 72 -29 97 -93 97c-52 0 -107 -23 -146 -53v-321c0 -46 33 -51 77 -57v-35h-247v35c45 6 78 11 78 57v563l-73 35v21l140 50h25zM342 954
l150 -159h-46l-138 90l-138 -90h-46l150 159h68z" />
    <glyph glyph-name="ibreve" unicode="&#x12d;" horiz-adv-x="321" 
d="M209 540v-448c0 -46 32 -51 77 -57v-35h-246v35c44 6 77 11 77 57v342l-72 35v21l139 50h25zM161 593c-90 0 -141 61 -141 168h39c5 -72 48 -102 102 -102s97 30 102 102h39c0 -107 -51 -168 -141 -168z" />
    <glyph glyph-name="imacron" unicode="&#x12b;" horiz-adv-x="321" 
d="M36 623v58h232v-58h-232zM209 540v-448c0 -46 32 -51 77 -57v-35h-246v35c44 6 77 11 77 57v342l-72 35v21l139 50h25z" />
    <glyph glyph-name="iogonek" unicode="&#x12f;" horiz-adv-x="321" 
d="M209 540v-448c0 -46 32 -51 77 -57v-35h-55c-62 -26 -127 -60 -127 -112c0 -25 17 -43 49 -43s60 12 92 37l12 -17c-28 -35 -74 -75 -130 -75c-51 0 -90 30 -90 82c0 60 55 98 122 128h-119v35c44 6 77 11 77 57v342l-72 35v21l139 50h25zM159 611c-36 0 -65 30 -65 67
s29 67 65 67s65 -30 65 -67s-29 -67 -65 -67z" />
    <glyph glyph-name="itilde" unicode="&#x129;" horiz-adv-x="321" 
d="M293 741l37 -10c-45 -99 -71 -120 -118 -120c-54 0 -85 72 -119 72c-31 0 -43 -21 -65 -62l-37 10c45 99 71 120 118 120c56 0 87 -72 119 -72c31 0 43 21 65 62zM209 540v-448c0 -46 32 -51 77 -57v-35h-246v35c44 6 77 11 77 57v342l-72 35v21l139 50h25z" />
    <glyph glyph-name="ij" unicode="&#x133;" horiz-adv-x="591" 
d="M209 540v-448c0 -46 32 -51 77 -57v-35h-246v35c44 6 77 11 77 57v342l-72 35v21l139 50h25zM159 611c-36 0 -65 30 -65 67s29 67 65 67s65 -30 65 -67s-29 -67 -65 -67zM512 540v-454c0 -73 -2 -114 -25 -161c-27 -53 -76 -92 -133 -133l-23 25l32 41
c51 65 57 115 57 212v364l-73 35v21l141 50h24zM462 611c-36 0 -65 30 -65 67s29 67 65 67s65 -30 65 -67s-29 -67 -65 -67z" />
    <glyph glyph-name="jcircumflex" unicode="&#x135;" horiz-adv-x="270" 
d="M191 540v-454c0 -73 -2 -114 -25 -161c-27 -53 -76 -92 -133 -133l-23 25l32 41c51 65 57 115 57 212v364l-73 35v21l141 50h24zM176 765l140 -173h-46l-128 103l-128 -103h-46l140 173h68z" />
    <glyph glyph-name="kcommaaccent" unicode="&#x137;" horiz-adv-x="568" 
d="M212 283l166 158c10 10 16 17 16 27c0 16 -16 19 -76 27v35h227v-35c-40 -9 -57 -17 -80 -38l-158 -147l257 -283v-27h-101zM202 761v-669c0 -46 33 -51 77 -57v-35h-247v35c45 6 78 11 78 57v563l-73 35v21l140 50h25zM319 -153h-48c-30 6 -42 25 -42 48
c0 32 26 53 63 53c48 0 75 -33 75 -76c0 -59 -33 -102 -126 -102v33c51 0 78 16 78 44z" />
    <glyph glyph-name="kgreenlandic" unicode="&#x138;" horiz-adv-x="568" 
d="M212 283l166 158c10 10 16 17 16 27c0 16 -16 19 -76 27v35h227v-35c-40 -9 -57 -17 -80 -38l-158 -147l257 -283v-27h-101zM202 542v-450c0 -46 33 -51 77 -57v-35h-247v35c45 6 78 11 78 57v344l-73 35v21l140 50h25z" />
    <glyph glyph-name="lacute" unicode="&#x13a;" horiz-adv-x="313" 
d="M202 761v-669c0 -46 33 -51 77 -57v-35h-247v35c45 6 78 11 78 57v563l-73 35v21l140 50h25zM196 940h120l-155 -149h-39z" />
    <glyph glyph-name="lcaron" unicode="&#x13e;" horiz-adv-x="318" 
d="M202 761v-669c0 -46 33 -51 77 -57v-35h-247v35c45 6 78 11 78 57v563l-73 35v21l140 50h25zM408 761l-82 -205h-35l20 205h97z" />
    <glyph glyph-name="lcommaaccent" unicode="&#x13c;" horiz-adv-x="313" 
d="M202 761v-669c0 -46 33 -51 77 -57v-35h-247v35c45 6 78 11 78 57v563l-73 35v21l140 50h25zM176 -153h-48c-30 6 -42 25 -42 48c0 32 26 53 63 53c48 0 75 -33 75 -76c0 -59 -33 -102 -126 -102v33c51 0 78 16 78 44z" />
    <glyph glyph-name="ldot" unicode="&#x140;" horiz-adv-x="389" 
d="M202 761v-669c0 -46 33 -51 77 -57v-35h-247v35c45 6 78 11 78 57v563l-73 35v21l140 50h25zM344 313c-36 0 -65 30 -65 67s29 67 65 67s65 -30 65 -67s-29 -67 -65 -67z" />
    <glyph glyph-name="nacute" unicode="&#x144;" horiz-adv-x="644" 
d="M449 92v277c0 72 -29 97 -93 97c-52 0 -109 -23 -147 -53v-321c0 -46 32 -51 77 -57v-35h-246v35c44 6 77 11 77 57v342l-72 35v21l139 50h25v-98c49 48 109 98 192 98c87 0 140 -47 140 -164v-284c0 -46 33 -51 78 -57v-35h-247v35c44 6 77 11 77 57zM372 761h116
l-151 -169h-39z" />
    <glyph glyph-name="ncaron" unicode="&#x148;" horiz-adv-x="644" 
d="M449 92v277c0 72 -29 97 -93 97c-52 0 -109 -23 -147 -53v-321c0 -46 32 -51 77 -57v-35h-246v35c44 6 77 11 77 57v342l-72 35v21l139 50h25v-98c49 48 109 98 192 98c87 0 140 -47 140 -164v-284c0 -46 33 -51 78 -57v-35h-247v35c44 6 77 11 77 57zM503 769l-140 -173
h-68l-140 173h46l128 -103l128 103h46z" />
    <glyph glyph-name="ncommaaccent" unicode="&#x146;" horiz-adv-x="644" 
d="M449 92v277c0 72 -29 97 -93 97c-52 0 -109 -23 -147 -53v-321c0 -46 32 -51 77 -57v-35h-246v35c44 6 77 11 77 57v342l-72 35v21l139 50h25v-98c49 48 109 98 192 98c87 0 140 -47 140 -164v-284c0 -46 33 -51 78 -57v-35h-247v35c44 6 77 11 77 57zM350 -153h-48
c-30 6 -42 25 -42 48c0 32 26 53 63 53c48 0 75 -33 75 -76c0 -59 -33 -102 -126 -102v33c51 0 78 16 78 44z" />
    <glyph glyph-name="eng" unicode="&#x14b;" horiz-adv-x="620" 
d="M449 70v299c0 72 -29 97 -93 97c-52 0 -109 -23 -147 -53v-321c0 -46 32 -51 77 -57v-35h-246v35c44 6 77 11 77 57v342l-72 35v21l139 50h25v-98c49 48 109 98 192 98c87 0 140 -47 140 -164v-290c0 -73 -2 -114 -25 -161c-27 -53 -76 -92 -133 -133l-23 25l32 41
c51 65 57 115 57 212z" />
    <glyph glyph-name="obreve" unicode="&#x14f;" horiz-adv-x="572" 
d="M295 42c94 0 141 86 141 215c0 125 -58 231 -159 231c-94 0 -141 -86 -141 -215c0 -125 58 -231 159 -231zM283 -10c-148 0 -243 111 -243 265c0 172 113 285 249 285c148 0 243 -111 243 -265c0 -172 -113 -285 -249 -285zM286 593c-90 0 -141 61 -141 168h39
c5 -72 48 -102 102 -102s97 30 102 102h39c0 -107 -51 -168 -141 -168z" />
    <glyph glyph-name="ohungarumlaut" unicode="&#x151;" horiz-adv-x="572" 
d="M295 42c94 0 141 86 141 215c0 125 -58 231 -159 231c-94 0 -141 -86 -141 -215c0 -125 58 -231 159 -231zM283 -10c-148 0 -243 111 -243 265c0 172 113 285 249 285c148 0 243 -111 243 -265c0 -172 -113 -285 -249 -285zM252 761h102l-129 -169h-40zM402 761h102
l-129 -169h-40z" />
    <glyph glyph-name="omacron" unicode="&#x14d;" horiz-adv-x="572" 
d="M295 42c94 0 141 86 141 215c0 125 -58 231 -159 231c-94 0 -141 -86 -141 -215c0 -125 58 -231 159 -231zM283 -10c-148 0 -243 111 -243 265c0 172 113 285 249 285c148 0 243 -111 243 -265c0 -172 -113 -285 -249 -285zM155 623v58h262v-58h-262z" />
    <glyph glyph-name="oslashacute" unicode="&#x1ff;" horiz-adv-x="572" 
d="M490 561l-45 -76c55 -47 87 -121 87 -210c0 -172 -113 -285 -249 -285c-43 0 -82 10 -115 26l-45 -77l-41 25l46 79c-56 47 -88 122 -88 212c0 172 113 285 249 285c44 0 83 -10 116 -28l44 74zM136 273c0 -62 11 -118 34 -159l201 340c-24 21 -55 34 -94 34
c-94 0 -141 -86 -141 -215zM295 42c94 0 141 86 141 215c0 61 -11 115 -33 156l-201 -339c24 -21 55 -32 93 -32zM329 761h116l-151 -169h-39z" />
    <glyph glyph-name="racute" unicode="&#x155;" horiz-adv-x="412" 
d="M209 540v-158c65 116 89 158 151 158c17 0 30 -6 37 -14v-89h-21c-62 0 -102 -9 -167 -87v-254c0 -50 25 -53 97 -61v-35h-266v35c44 6 77 11 77 57v342l-72 35v21l138 50h26zM289 761h116l-151 -169h-39z" />
    <glyph glyph-name="rcaron" unicode="&#x159;" horiz-adv-x="412" 
d="M209 540v-158c65 116 89 158 151 158c17 0 30 -6 37 -14v-89h-21c-62 0 -102 -9 -167 -87v-254c0 -50 25 -53 97 -61v-35h-266v35c44 6 77 11 77 57v342l-72 35v21l138 50h26zM420 769l-140 -173h-68l-140 173h46l128 -103l128 103h46z" />
    <glyph glyph-name="rcommaaccent" unicode="&#x157;" horiz-adv-x="412" 
d="M209 540v-158c65 116 89 158 151 158c17 0 30 -6 37 -14v-89h-21c-62 0 -102 -9 -167 -87v-254c0 -50 25 -53 97 -61v-35h-266v35c44 6 77 11 77 57v342l-72 35v21l138 50h26zM193 -153h-48c-30 6 -42 25 -42 48c0 32 26 53 63 53c48 0 75 -33 75 -76
c0 -59 -33 -102 -126 -102v33c51 0 78 16 78 44z" />
    <glyph glyph-name="sacute" unicode="&#x15b;" horiz-adv-x="451" 
d="M227 -10c-65 0 -132 12 -181 49l-6 133h37c20 -85 69 -137 151 -137c64 0 102 30 102 82c0 65 -46 87 -136 115c-89 28 -148 66 -148 157c0 88 67 151 172 151c67 0 121 -17 165 -42v-124h-38c-14 80 -59 120 -130 120c-54 0 -87 -34 -87 -79c0 -55 41 -84 118 -108
c100 -31 167 -61 167 -162c0 -88 -71 -155 -186 -155zM275 761h116l-151 -169h-39z" />
    <glyph glyph-name="scedilla" unicode="&#x15f;" horiz-adv-x="451" 
d="M121 -221l-6 33c72 0 117 15 117 46c0 30 -35 43 -93 45l36 90c-47 5 -93 18 -129 46l-6 133h37c20 -85 69 -137 151 -137c64 0 102 30 102 82c0 65 -46 87 -136 115c-89 28 -148 66 -148 157c0 88 67 151 172 151c67 0 121 -17 165 -42v-124h-38
c-14 80 -59 120 -130 120c-54 0 -87 -34 -87 -79c0 -55 41 -84 118 -108c100 -31 167 -61 167 -162c0 -88 -71 -155 -186 -155c-7 0 -14 0 -20 1l-15 -39c67 -1 109 -20 109 -74c0 -68 -80 -99 -180 -99z" />
    <glyph glyph-name="scircumflex" unicode="&#x15d;" horiz-adv-x="451" 
d="M227 -10c-65 0 -132 12 -181 49l-6 133h37c20 -85 69 -137 151 -137c64 0 102 30 102 82c0 65 -46 87 -136 115c-89 28 -148 66 -148 157c0 88 67 151 172 151c67 0 121 -17 165 -42v-124h-38c-14 80 -59 120 -130 120c-54 0 -87 -34 -87 -79c0 -55 41 -84 118 -108
c100 -31 167 -61 167 -162c0 -88 -71 -155 -186 -155zM266 765l140 -173h-46l-128 103l-128 -103h-46l140 173h68z" />
    <glyph glyph-name="scommaaccent" unicode="&#x219;" horiz-adv-x="451" 
d="M227 -10c-65 0 -132 12 -181 49l-6 133h37c20 -85 69 -137 151 -137c64 0 102 30 102 82c0 65 -46 87 -136 115c-89 28 -148 66 -148 157c0 88 67 151 172 151c67 0 121 -17 165 -42v-124h-38c-14 80 -59 120 -130 120c-54 0 -87 -34 -87 -79c0 -55 41 -84 118 -108
c100 -31 167 -61 167 -162c0 -88 -71 -155 -186 -155zM253 -153h-48c-30 6 -42 25 -42 48c0 32 26 53 63 53c48 0 75 -33 75 -76c0 -59 -33 -102 -126 -102v33c51 0 78 16 78 44z" />
    <glyph glyph-name="tbar" unicode="&#x167;" horiz-adv-x="415" 
d="M205 644v-114h153v-53h-153v-127h153v-49h-153v-174c0 -55 24 -74 79 -74c30 0 65 9 91 22l10 -22c-34 -37 -86 -63 -152 -63c-69 0 -119 33 -119 118v193h-74v49h74v127h-74v30c51 32 95 73 139 137h26z" />
    <glyph glyph-name="tcaron" unicode="&#x165;" horiz-adv-x="370" 
d="M180 644v-114h153v-53h-153v-350c0 -55 24 -74 79 -74c30 0 65 9 91 22l10 -22c-34 -37 -86 -63 -152 -63c-69 0 -119 33 -119 118v369h-74v30c51 32 95 73 139 137h26zM354 799l-82 -205h-35l20 205h97z" />
    <glyph glyph-name="ubreve" unicode="&#x16d;" horiz-adv-x="629" 
d="M425 -10v98c-50 -48 -104 -98 -186 -98c-88 0 -141 47 -141 164v275c0 36 -12 46 -60 52l-16 2v34l153 23h15v-372c0 -73 29 -104 93 -104c53 0 103 23 142 53v312c0 36 -12 46 -60 52l-16 2v34l152 23h16v-432c0 -34 11 -41 56 -46l26 -3v-34l-160 -35h-14zM310 593
c-90 0 -141 61 -141 168h39c5 -72 48 -102 102 -102s97 30 102 102h39c0 -107 -51 -168 -141 -168z" />
    <glyph glyph-name="uhungarumlaut" unicode="&#x171;" horiz-adv-x="629" 
d="M425 -10v98c-50 -48 -104 -98 -186 -98c-88 0 -141 47 -141 164v275c0 36 -12 46 -60 52l-16 2v34l153 23h15v-372c0 -73 29 -104 93 -104c53 0 103 23 142 53v312c0 36 -12 46 -60 52l-16 2v34l152 23h16v-432c0 -34 11 -41 56 -46l26 -3v-34l-160 -35h-14zM276 761h102
l-129 -169h-40zM426 761h102l-129 -169h-40z" />
    <glyph glyph-name="umacron" unicode="&#x16b;" horiz-adv-x="629" 
d="M425 -10v98c-50 -48 -104 -98 -186 -98c-88 0 -141 47 -141 164v275c0 36 -12 46 -60 52l-16 2v34l153 23h15v-372c0 -73 29 -104 93 -104c53 0 103 23 142 53v312c0 36 -12 46 -60 52l-16 2v34l152 23h16v-432c0 -34 11 -41 56 -46l26 -3v-34l-160 -35h-14zM179 623v58
h262v-58h-262z" />
    <glyph glyph-name="uogonek" unicode="&#x173;" horiz-adv-x="629" 
d="M599 25c-168 -41 -216 -85 -216 -137c0 -25 17 -43 49 -43s60 12 92 37l12 -17c-28 -35 -74 -75 -130 -75c-51 0 -90 30 -90 82c0 60 51 95 109 123v93c-50 -48 -104 -98 -186 -98c-88 0 -141 47 -141 164v275c0 36 -12 46 -60 52l-16 2v34l153 23h15v-372
c0 -73 29 -104 93 -104c53 0 103 23 142 53v312c0 36 -12 46 -60 52l-16 2v34l152 23h16v-432c0 -34 11 -41 56 -46l26 -3v-34z" />
    <glyph glyph-name="uring" unicode="&#x16f;" horiz-adv-x="629" 
d="M425 -10v98c-50 -48 -104 -98 -186 -98c-88 0 -141 47 -141 164v275c0 36 -12 46 -60 52l-16 2v34l153 23h15v-372c0 -73 29 -104 93 -104c53 0 103 23 142 53v312c0 36 -12 46 -60 52l-16 2v34l152 23h16v-432c0 -34 11 -41 56 -46l26 -3v-34l-160 -35h-14zM217 679
c0 52 38 91 93 91s93 -39 93 -91s-38 -91 -93 -91s-93 39 -93 91zM361 679c0 31 -17 54 -51 54s-51 -23 -51 -54s17 -54 51 -54s51 23 51 54z" />
    <glyph glyph-name="utilde" unicode="&#x169;" horiz-adv-x="629" 
d="M425 -10v98c-50 -48 -104 -98 -186 -98c-88 0 -141 47 -141 164v275c0 36 -12 46 -60 52l-16 2v34l153 23h15v-372c0 -73 29 -104 93 -104c53 0 103 23 142 53v312c0 36 -12 46 -60 52l-16 2v34l152 23h16v-432c0 -34 11 -41 56 -46l26 -3v-34l-160 -35h-14zM457 741
l37 -10c-45 -99 -71 -120 -118 -120c-60 0 -105 72 -147 72c-31 0 -43 -21 -65 -62l-37 10c45 99 71 120 118 120c60 0 105 -72 147 -72c31 0 43 21 65 62z" />
    <glyph glyph-name="wacute" unicode="&#x1e83;" horiz-adv-x="793" 
d="M558 137l106 295c4 12 6 19 6 27c0 24 -19 29 -70 36v35h188v-35c-45 -16 -50 -18 -58 -40l-174 -465h-25l-132 353l-134 -353h-24l-179 465c-8 22 -13 25 -57 40v35h226v-35c-50 -7 -70 -12 -70 -36c0 -8 3 -19 7 -30l106 -290l99 268l-17 48c-8 22 -14 25 -59 40v35
h223v-35c-52 -7 -71 -12 -71 -36c0 -8 3 -19 7 -30zM439 761h116l-151 -169h-39z" />
    <glyph glyph-name="wcircumflex" unicode="&#x175;" horiz-adv-x="793" 
d="M558 137l106 295c4 12 6 19 6 27c0 24 -19 29 -70 36v35h188v-35c-45 -16 -50 -18 -58 -40l-174 -465h-25l-132 353l-134 -353h-24l-179 465c-8 22 -13 25 -57 40v35h226v-35c-50 -7 -70 -12 -70 -36c0 -8 3 -19 7 -30l106 -290l99 268l-17 48c-8 22 -14 25 -59 40v35
h223v-35c-52 -7 -71 -12 -71 -36c0 -8 3 -19 7 -30zM430 765l140 -173h-46l-128 103l-128 -103h-46l140 173h68z" />
    <glyph glyph-name="wgrave" unicode="&#x1e81;" horiz-adv-x="793" 
d="M558 137l106 295c4 12 6 19 6 27c0 24 -19 29 -70 36v35h188v-35c-45 -16 -50 -18 -58 -40l-174 -465h-25l-132 353l-134 -353h-24l-179 465c-8 22 -13 25 -57 40v35h226v-35c-50 -7 -70 -12 -70 -36c0 -8 3 -19 7 -30l106 -290l99 268l-17 48c-8 22 -14 25 -59 40v35
h223v-35c-52 -7 -71 -12 -71 -36c0 -8 3 -19 7 -30zM231 761h116l74 -169h-39z" />
    <glyph glyph-name="wdieresis" unicode="&#x1e85;" horiz-adv-x="793" 
d="M558 137l106 295c4 12 6 19 6 27c0 24 -19 29 -70 36v35h188v-35c-45 -16 -50 -18 -58 -40l-174 -465h-25l-132 353l-134 -353h-24l-179 465c-8 22 -13 25 -57 40v35h226v-35c-50 -7 -70 -12 -70 -36c0 -8 3 -19 7 -30l106 -290l99 268l-17 48c-8 22 -14 25 -59 40v35
h223v-35c-52 -7 -71 -12 -71 -36c0 -8 3 -19 7 -30zM240 677c0 33 27 60 61 60s61 -27 61 -60c0 -35 -27 -62 -61 -62s-61 27 -61 62zM430 677c0 33 27 60 61 60s61 -27 61 -60c0 -35 -27 -62 -61 -62s-61 27 -61 62z" />
    <glyph glyph-name="ycircumflex" unicode="&#x177;" horiz-adv-x="561" 
d="M262 -3l-198 458c-10 21 -14 23 -59 40v35h234v-35c-52 -7 -72 -12 -72 -36c0 -8 1 -14 7 -27l132 -326l123 326c5 13 7 19 7 27c0 24 -21 29 -72 36v35h192v-35c-45 -16 -51 -18 -59 -40l-221 -557c-25 -64 -56 -105 -117 -105c-33 0 -61 15 -77 36v46h52
c63 0 88 14 108 69zM340 765l140 -173h-46l-128 103l-128 -103h-46l140 173h68z" />
    <glyph glyph-name="ygrave" unicode="&#x1ef3;" horiz-adv-x="561" 
d="M262 -3l-198 458c-10 21 -14 23 -59 40v35h234v-35c-52 -7 -72 -12 -72 -36c0 -8 1 -14 7 -27l132 -326l123 326c5 13 7 19 7 27c0 24 -21 29 -72 36v35h192v-35c-45 -16 -51 -18 -59 -40l-221 -557c-25 -64 -56 -105 -117 -105c-33 0 -61 15 -77 36v46h52
c63 0 88 14 108 69zM141 761h116l74 -169h-39z" />
    <glyph glyph-name="zacute" unicode="&#x17a;" horiz-adv-x="500" 
d="M37 0v22l310 463h-162c-50 0 -66 -27 -92 -118h-41v163h406v-26l-305 -459h155c53 0 95 31 120 129h41l-18 -174h-414zM296 761h116l-151 -169h-39z" />
    <glyph glyph-name="zdotaccent" unicode="&#x17c;" horiz-adv-x="500" 
d="M37 0v22l310 463h-162c-50 0 -66 -27 -92 -118h-41v163h406v-26l-305 -459h155c53 0 95 31 120 129h41l-18 -174h-414zM253 611c-36 0 -65 30 -65 67s29 67 65 67s65 -30 65 -67s-29 -67 -65 -67z" />
    <glyph glyph-name="A.sc" horiz-adv-x="647" 
d="M463 109l-37 85h-252l-35 -85c-5 -12 -9 -24 -9 -34c0 -26 20 -35 79 -37v-38h-194v38c23 4 42 8 52 31l202 476l-28 58h103l236 -534c9 -22 26 -27 52 -31v-38h-237v38c58 2 78 10 78 37c0 10 -4 21 -10 34zM298 490l-106 -254h216z" />
    <glyph glyph-name="B.sc" horiz-adv-x="604" 
d="M302 284h-81v-185c0 -46 25 -57 85 -57h10c94 0 137 39 137 119c0 69 -41 123 -151 123zM283 553h-62v-227h63c95 0 140 37 140 119c0 61 -44 108 -141 108zM330 0h-289v38c58 2 86 11 86 61v398c0 50 -28 59 -86 61v38h273c134 0 210 -50 210 -150
c0 -86 -73 -124 -152 -137c116 -9 184 -62 184 -149c0 -98 -82 -160 -226 -160z" />
    <glyph glyph-name="C.sc" horiz-adv-x="611" 
d="M357 38c85 0 132 50 166 149h39l-20 -148c-55 -29 -112 -49 -204 -49c-175 0 -290 125 -290 296c0 198 134 320 303 320c90 0 149 -24 189 -56v-131h-37c-24 95 -78 140 -157 140c-135 0 -193 -114 -193 -249c0 -154 69 -272 204 -272z" />
    <glyph glyph-name="D.sc" horiz-adv-x="683" 
d="M292 553h-71v-450c0 -50 27 -60 85 -60h18c128 0 207 87 207 254c0 135 -67 256 -239 256zM324 0h-283v38c58 2 86 11 86 61v398c0 50 -28 59 -86 61v38h268c225 0 326 -127 326 -282c0 -203 -137 -314 -311 -314z" />
    <glyph glyph-name="E.sc" horiz-adv-x="605" 
d="M534 0h-493v38c58 2 86 11 86 61v398c0 50 -28 59 -86 61v38h489v-146h-29c-31 73 -55 103 -125 103h-155v-226h137c38 0 54 24 62 75h33v-193h-33c-8 51 -24 75 -62 75h-137v-183c0 -46 26 -58 86 -58h78c74 0 90 26 146 115h29z" />
    <glyph glyph-name="F.sc" horiz-adv-x="555" 
d="M332 0h-291v38c58 2 86 11 86 61v398c0 50 -28 59 -86 61v38h474v-150h-28c-32 73 -56 107 -125 107h-141v-237h121c39 0 54 23 63 74h33v-192h-33c-9 51 -24 75 -63 75h-121v-175c0 -50 41 -57 111 -61v-37z" />
    <glyph glyph-name="G.sc" horiz-adv-x="664" 
d="M48 286c0 198 139 320 307 320c90 0 153 -24 193 -56v-131h-37c-24 95 -82 140 -161 140c-134 0 -197 -114 -197 -249c0 -153 67 -273 204 -273c51 0 82 8 111 32v118c0 49 -27 58 -82 60v38h249v-38c-55 -2 -76 -11 -76 -60v-136c-56 -39 -126 -61 -212 -61
c-185 0 -299 124 -299 296z" />
    <glyph glyph-name="H.sc" horiz-adv-x="750" 
d="M709 38v-38h-266v38c57 2 86 11 86 61v185h-308v-185c0 -50 30 -59 86 -61v-38h-266v38c58 2 86 11 86 61v398c0 50 -28 59 -86 61v38h266v-38c-56 -2 -86 -11 -86 -61v-170h308v170c0 50 -29 59 -86 61v38h266v-38c-58 -2 -85 -11 -85 -61v-398c0 -50 27 -59 85 -61z
" />
    <glyph glyph-name="I.sc" horiz-adv-x="348" 
d="M307 38v-38h-266v38c58 2 86 11 86 61v398c0 50 -28 59 -86 61v38h266v-38c-58 -2 -86 -11 -86 -61v-398c0 -50 28 -59 86 -61z" />
    <glyph glyph-name="J.sc" horiz-adv-x="485" 
d="M375 497v-325c0 -124 -69 -182 -185 -182c-103 0 -170 43 -170 110c0 26 12 47 26 59h69v-40c0 -57 32 -88 81 -88c51 0 83 35 83 125v341c0 50 -27 59 -84 61v38h266v-38c-58 -2 -86 -11 -86 -61z" />
    <glyph glyph-name="K.sc" horiz-adv-x="651" 
d="M327 333l200 -229c47 -53 70 -63 108 -66v-38h-127c-28 16 -52 38 -84 77l-193 227l213 197c10 10 19 20 19 33c0 15 -9 21 -67 24v38h222v-38c-40 -1 -64 -15 -92 -41zM307 38v-38h-266v38c58 2 86 11 86 61v398c0 50 -28 59 -86 61v38h266v-38c-56 -2 -85 -11 -85 -61
v-398c0 -50 29 -59 85 -61z" />
    <glyph glyph-name="L.sc" horiz-adv-x="561" 
d="M222 497v-396c0 -46 25 -58 85 -58h47c73 0 91 36 143 130h33l-28 -173h-461v38c58 2 86 11 86 61v398c0 50 -28 59 -86 61v38h266v-38c-56 -2 -85 -11 -85 -61z" />
    <glyph glyph-name="M.sc" horiz-adv-x="839" 
d="M645 113l-46 345l-178 -458h-35l-189 461l-45 -348c-1 -6 -2 -18 -2 -21c0 -41 21 -51 83 -54v-38h-209v38c50 2 68 11 73 51l54 407c0 45 -15 60 -73 62v38h170c2 -19 5 -30 13 -49l165 -404l156 404c7 19 12 30 14 49h165v-38c-58 -2 -73 -17 -73 -62l54 -407
c6 -40 24 -49 72 -51v-38h-250v38c61 3 83 13 83 54c0 3 -1 15 -2 21z" />
    <glyph glyph-name="N.sc" horiz-adv-x="709" 
d="M127 99v408c-34 39 -45 50 -86 51v38h154l342 -438v339c0 50 -29 59 -87 61v38h226v-38c-58 -2 -86 -11 -86 -61v-497h-40l-369 463v-364c0 -50 29 -59 86 -61v-38h-226v38c58 2 86 11 86 61z" />
    <glyph glyph-name="O.sc" horiz-adv-x="674" 
d="M347 40c117 0 175 111 175 253c0 140 -58 263 -195 263c-117 0 -175 -111 -175 -253c0 -140 58 -263 195 -263zM334 -10c-181 0 -286 138 -286 297c0 195 132 319 292 319c181 0 286 -138 286 -297c0 -195 -132 -319 -292 -319z" />
    <glyph glyph-name="P.sc" horiz-adv-x="563" 
d="M222 553v-271h63c102 0 147 43 147 135c0 80 -45 136 -148 136h-62zM332 0h-291v38c58 2 86 11 86 61v398c0 50 -28 59 -86 61v38h265c166 0 229 -85 229 -176c0 -103 -67 -180 -216 -180h-97v-141c0 -50 40 -58 110 -61v-38z" />
    <glyph glyph-name="Q.sc" horiz-adv-x="674" 
d="M340 606c181 0 286 -138 286 -297c0 -164 -93 -278 -218 -310l26 -26c56 -56 94 -91 142 -96v-19c-18 -8 -44 -13 -63 -13c-64 0 -108 22 -146 74l-53 72c-169 9 -266 143 -266 296c0 195 132 319 292 319zM347 40c117 0 175 111 175 253c0 140 -58 263 -195 263
c-117 0 -175 -111 -175 -253c0 -140 58 -263 195 -263z" />
    <glyph glyph-name="R.sc" horiz-adv-x="640" 
d="M274 553h-53v-254h55c102 0 150 42 150 128c0 73 -46 126 -152 126zM306 0h-265v38c58 2 86 11 86 61v398c0 50 -28 59 -86 61v38h263c156 0 224 -68 224 -169c0 -92 -81 -145 -161 -155l139 -173c29 -37 63 -59 110 -61v-38h-132c-31 20 -50 41 -78 78l-138 180h-47
v-159c0 -50 29 -59 85 -61v-38z" />
    <glyph glyph-name="S.sc" horiz-adv-x="512" 
d="M245 -10c-82 0 -153 27 -192 59l-6 140h38c25 -91 77 -153 164 -153c78 0 126 36 126 103c0 55 -38 82 -141 118c-118 40 -180 83 -180 182c0 96 71 167 194 167c72 0 136 -23 182 -54v-130h-35c-20 80 -69 138 -152 138c-71 0 -107 -39 -107 -90c0 -57 30 -82 135 -118
c127 -43 190 -89 190 -188c0 -114 -99 -174 -216 -174z" />
    <glyph glyph-name="T.sc" horiz-adv-x="633" 
d="M48 596h537l13 -182h-32c-50 112 -61 140 -139 140h-63v-455c0 -50 31 -59 89 -61v-38h-273v38c58 2 89 11 89 61v455h-63c-78 0 -89 -28 -139 -140h-32z" />
    <glyph glyph-name="U.sc" horiz-adv-x="688" 
d="M201 497v-286c0 -103 56 -161 153 -161c112 0 175 45 175 168v279c0 50 -30 59 -87 61v38h226v-38c-57 -2 -85 -11 -85 -61v-297c0 -143 -109 -210 -234 -210c-148 0 -243 67 -243 211v296c0 50 -29 59 -86 61v38h266v-38c-57 -2 -85 -11 -85 -61z" />
    <glyph glyph-name="V.sc" horiz-adv-x="638" 
d="M346 127l149 360c5 12 10 24 10 34c0 26 -20 35 -79 37v38h197v-38c-25 -3 -42 -8 -52 -31l-229 -534h-26l-249 534c-11 23 -28 28 -52 31v38h238v-38c-59 -2 -78 -10 -78 -37c0 -10 3 -20 9 -34z" />
    <glyph glyph-name="W.sc" horiz-adv-x="857" 
d="M595 140l125 344c5 15 10 27 10 37c0 26 -19 35 -78 37v38h190v-38c-24 -3 -43 -7 -52 -31l-199 -534h-28l-131 359l-131 -359h-28l-206 534c-10 22 -29 28 -52 31v38h236v-38c-57 -2 -77 -11 -77 -37c0 -10 4 -21 9 -35l127 -348l99 281l-38 108c-9 24 -28 28 -52 31v38
h228v-38c-60 -2 -79 -11 -79 -37c0 -10 4 -21 9 -37z" />
    <glyph glyph-name="X.sc" horiz-adv-x="636" 
d="M416 107l-113 152l-123 -149c-14 -17 -23 -31 -23 -45c0 -19 8 -27 74 -27v-38h-216v38c34 0 53 10 78 40l178 221l-165 219c-21 29 -42 40 -76 40v38h258v-38c-63 0 -74 -7 -74 -26c0 -14 11 -27 24 -45l97 -131l105 131c13 16 22 32 22 45c0 19 -11 26 -73 26v38h216
v-38c-34 0 -53 -9 -78 -40l-160 -202l177 -238c21 -28 43 -39 77 -40v-38h-253v38c64 0 71 8 71 27c0 11 -11 25 -23 42z" />
    <glyph glyph-name="Y.sc" horiz-adv-x="598" 
d="M320 285l128 200c10 15 16 28 16 41c0 23 -18 30 -76 32v38h195v-38c-25 -3 -38 -10 -52 -31l-188 -291v-137c0 -50 29 -59 85 -61v-38h-261v38c58 2 86 11 86 61v137l-186 291c-14 22 -28 28 -52 31v38h240v-38c-58 -2 -76 -9 -76 -32c0 -14 6 -26 16 -41z" />
    <glyph glyph-name="Z.sc" horiz-adv-x="564" 
d="M156 44h199c74 0 94 36 144 130h33l-29 -174h-470v25l365 526h-184c-70 0 -82 -29 -122 -116h-30v161h455v-26z" />
    <glyph glyph-name="Aacute.sc" horiz-adv-x="647" 
d="M463 109l-37 85h-252l-35 -85c-5 -12 -9 -24 -9 -34c0 -26 20 -35 79 -37v-38h-194v38c23 4 42 8 52 31l202 476l-28 58h103l236 -534c9 -22 26 -27 52 -31v-38h-237v38c58 2 78 10 78 37c0 10 -4 21 -10 34zM298 490l-106 -254h216zM353 816h116l-151 -169h-39z" />
    <glyph glyph-name="Abreve.sc" horiz-adv-x="647" 
d="M463 109l-37 85h-252l-35 -85c-5 -12 -9 -24 -9 -34c0 -26 20 -35 79 -37v-38h-194v38c23 4 42 8 52 31l202 476l-28 58h103l236 -534c9 -22 26 -27 52 -31v-38h-237v38c58 2 78 10 78 37c0 10 -4 21 -10 34zM298 490l-106 -254h216zM310 648c-90 0 -141 61 -141 168h39
c5 -72 48 -102 102 -102s97 30 102 102h39c0 -107 -51 -168 -141 -168z" />
    <glyph glyph-name="Acircumflex.sc" horiz-adv-x="647" 
d="M463 109l-37 85h-252l-35 -85c-5 -12 -9 -24 -9 -34c0 -26 20 -35 79 -37v-38h-194v38c23 4 42 8 52 31l202 476l-28 58h103l236 -534c9 -22 26 -27 52 -31v-38h-237v38c58 2 78 10 78 37c0 10 -4 21 -10 34zM298 490l-106 -254h216zM344 820l140 -173h-46l-128 103
l-128 -103h-46l140 173h68z" />
    <glyph glyph-name="Adieresis.sc" horiz-adv-x="647" 
d="M463 109l-37 85h-252l-35 -85c-5 -12 -9 -24 -9 -34c0 -26 20 -35 79 -37v-38h-194v38c23 4 42 8 52 31l202 476l-28 58h103l236 -534c9 -22 26 -27 52 -31v-38h-237v38c58 2 78 10 78 37c0 10 -4 21 -10 34zM298 490l-106 -254h216zM154 732c0 33 27 60 61 60
s61 -27 61 -60c0 -35 -27 -62 -61 -62s-61 27 -61 62zM344 732c0 33 27 60 61 60s61 -27 61 -60c0 -35 -27 -62 -61 -62s-61 27 -61 62z" />
    <glyph glyph-name="Agrave.sc" horiz-adv-x="647" 
d="M463 109l-37 85h-252l-35 -85c-5 -12 -9 -24 -9 -34c0 -26 20 -35 79 -37v-38h-194v38c23 4 42 8 52 31l202 476l-28 58h103l236 -534c9 -22 26 -27 52 -31v-38h-237v38c58 2 78 10 78 37c0 10 -4 21 -10 34zM298 490l-106 -254h216zM145 816h116l74 -169h-39z" />
    <glyph glyph-name="Amacron.sc" horiz-adv-x="647" 
d="M463 109l-37 85h-252l-35 -85c-5 -12 -9 -24 -9 -34c0 -26 20 -35 79 -37v-38h-194v38c23 4 42 8 52 31l202 476l-28 58h103l236 -534c9 -22 26 -27 52 -31v-38h-237v38c58 2 78 10 78 37c0 10 -4 21 -10 34zM298 490l-106 -254h216zM179 678v58h262v-58h-262z" />
    <glyph glyph-name="Aogonek.sc" horiz-adv-x="647" 
d="M241 603h103l236 -534c9 -22 26 -27 52 -31v-38h-210c-62 -26 -103 -64 -103 -112c0 -25 17 -43 49 -43s60 12 92 37l12 -17c-28 -35 -74 -75 -130 -75c-51 0 -90 30 -90 82c0 72 63 113 143 146c57 24 78 33 78 57c0 10 -4 21 -10 34l-37 85h-252l-35 -85
c-5 -12 -9 -24 -9 -34c0 -26 20 -35 79 -37v-38h-194v38c23 4 42 8 52 31l202 476zM298 490l-106 -254h216z" />
    <glyph glyph-name="Aring.sc" horiz-adv-x="647" 
d="M463 109l-37 85h-252l-35 -85c-5 -12 -9 -24 -9 -34c0 -26 20 -35 79 -37v-38h-194v38c23 4 42 8 52 31l202 476l-28 58h103l236 -534c9 -22 26 -27 52 -31v-38h-237v38c58 2 78 10 78 37c0 10 -4 21 -10 34zM298 490l-106 -254h216zM217 734c0 52 38 91 93 91
s93 -39 93 -91s-38 -91 -93 -91s-93 39 -93 91zM361 734c0 31 -17 54 -51 54s-51 -23 -51 -54s17 -54 51 -54s51 23 51 54z" />
    <glyph glyph-name="Aringacute.sc" horiz-adv-x="647" 
d="M463 109l-37 85h-252l-35 -85c-5 -12 -9 -24 -9 -34c0 -26 20 -35 79 -37v-38h-194v38c23 4 42 8 52 31l202 476l-28 58h103l236 -534c9 -22 26 -27 52 -31v-38h-237v38c58 2 78 10 78 37c0 10 -4 21 -10 34zM298 490l-106 -254h216zM208 708c0 49 41 81 99 81
c59 0 100 -32 100 -81c0 -48 -41 -80 -100 -80c-58 0 -99 32 -99 80zM363 708c0 28 -19 48 -56 48c-36 0 -55 -20 -55 -48c0 -27 19 -47 55 -47c37 0 56 20 56 47zM340 915h117l-127 -102h-39z" />
    <glyph glyph-name="Atilde.sc" horiz-adv-x="647" 
d="M463 109l-37 85h-252l-35 -85c-5 -12 -9 -24 -9 -34c0 -26 20 -35 79 -37v-38h-194v38c23 4 42 8 52 31l202 476l-28 58h103l236 -534c9 -22 26 -27 52 -31v-38h-237v38c58 2 78 10 78 37c0 10 -4 21 -10 34zM298 490l-106 -254h216zM465 796l37 -10
c-45 -99 -71 -120 -118 -120c-60 0 -105 72 -147 72c-31 0 -43 -21 -65 -62l-37 10c45 99 71 120 118 120c60 0 105 -72 147 -72c31 0 43 21 65 62z" />
    <glyph glyph-name="AE.sc" horiz-adv-x="936" 
d="M70 69l329 458c-8 23 -29 29 -84 31v38h546v-146h-30c-30 73 -54 103 -124 103h-155v-226h137c38 0 53 24 62 75h33v-193h-33c-9 51 -24 75 -62 75h-137v-183c0 -46 26 -58 85 -58h78c75 0 91 26 146 115h30l-26 -158h-493v38c58 2 86 11 86 61v114h-227l-73 -101
c-11 -16 -15 -30 -15 -43c0 -26 19 -29 81 -31v-38h-209v38c23 4 41 11 55 31zM458 528l-198 -274h198v274z" />
    <glyph glyph-name="AEacute.sc" horiz-adv-x="936" 
d="M70 69l329 458c-8 23 -29 29 -84 31v38h546v-146h-30c-30 73 -54 103 -124 103h-155v-226h137c38 0 53 24 62 75h33v-193h-33c-9 51 -24 75 -62 75h-137v-183c0 -46 26 -58 85 -58h78c75 0 91 26 146 115h30l-26 -158h-493v38c58 2 86 11 86 61v114h-227l-73 -101
c-11 -16 -15 -30 -15 -43c0 -26 19 -29 81 -31v-38h-209v38c23 4 41 11 55 31zM458 528l-198 -274h198v274zM629 816h116l-151 -169h-39z" />
    <glyph glyph-name="Cacute.sc" horiz-adv-x="611" 
d="M357 38c85 0 132 50 166 149h39l-20 -148c-55 -29 -112 -49 -204 -49c-175 0 -290 125 -290 296c0 198 134 320 303 320c90 0 149 -24 189 -56v-131h-37c-24 95 -78 140 -157 140c-135 0 -193 -114 -193 -249c0 -154 69 -272 204 -272zM380 816h116l-151 -169h-39z" />
    <glyph glyph-name="Ccaron.sc" horiz-adv-x="611" 
d="M357 38c85 0 132 50 166 149h39l-20 -148c-55 -29 -112 -49 -204 -49c-175 0 -290 125 -290 296c0 198 134 320 303 320c90 0 149 -24 189 -56v-131h-37c-24 95 -78 140 -157 140c-135 0 -193 -114 -193 -249c0 -154 69 -272 204 -272zM516 824l-140 -173h-68l-140 173
h46l128 -103l128 103h46z" />
    <glyph glyph-name="Ccedilla.sc" horiz-adv-x="611" 
d="M246 -221l-6 33c72 0 117 15 117 46c0 30 -35 43 -93 45l36 89c-154 16 -252 135 -252 294c0 198 134 320 303 320c90 0 149 -24 189 -56v-131h-37c-24 95 -78 140 -157 140c-135 0 -193 -114 -193 -249c0 -154 69 -272 204 -272c85 0 132 50 166 149h39l-20 -148
c-55 -29 -112 -49 -204 -49h-6l-15 -38c67 -1 109 -20 109 -74c0 -68 -80 -99 -180 -99z" />
    <glyph glyph-name="Ccircumflex.sc" horiz-adv-x="611" 
d="M357 38c85 0 132 50 166 149h39l-20 -148c-55 -29 -112 -49 -204 -49c-175 0 -290 125 -290 296c0 198 134 320 303 320c90 0 149 -24 189 -56v-131h-37c-24 95 -78 140 -157 140c-135 0 -193 -114 -193 -249c0 -154 69 -272 204 -272zM377 820l140 -173h-46l-128 103
l-128 -103h-46l140 173h68z" />
    <glyph glyph-name="Cdotaccent.sc" horiz-adv-x="611" 
d="M357 38c85 0 132 50 166 149h39l-20 -148c-55 -29 -112 -49 -204 -49c-175 0 -290 125 -290 296c0 198 134 320 303 320c90 0 149 -24 189 -56v-131h-37c-24 95 -78 140 -157 140c-135 0 -193 -114 -193 -249c0 -154 69 -272 204 -272zM342 666c-36 0 -65 30 -65 67
s29 67 65 67s65 -30 65 -67s-29 -67 -65 -67z" />
    <glyph glyph-name="Dcaron.sc" horiz-adv-x="683" 
d="M292 553h-71v-450c0 -50 27 -60 85 -60h18c128 0 207 87 207 254c0 135 -67 256 -239 256zM324 0h-283v38c58 2 86 11 86 61v398c0 50 -28 59 -86 61v38h268c225 0 326 -127 326 -282c0 -203 -137 -314 -311 -314zM512 824l-140 -173h-68l-140 173h46l128 -103l128 103
h46z" />
    <glyph glyph-name="Dcroat.sc" horiz-adv-x="692" 
d="M333 0h-283v38c58 2 86 11 86 61v186h-86v42h86v170c0 50 -28 59 -86 61v38h268c225 0 326 -127 326 -282c0 -203 -137 -314 -311 -314zM301 553h-71v-226h140v-42h-140v-182c0 -50 27 -60 85 -60h18c128 0 207 87 207 254c0 135 -67 256 -239 256z" />
    <glyph glyph-name="Eacute.sc" horiz-adv-x="605" 
d="M534 0h-493v38c58 2 86 11 86 61v398c0 50 -28 59 -86 61v38h489v-146h-29c-31 73 -55 103 -125 103h-155v-226h137c38 0 54 24 62 75h33v-193h-33c-8 51 -24 75 -62 75h-137v-183c0 -46 26 -58 86 -58h78c74 0 90 26 146 115h29zM361 816h116l-151 -169h-39z" />
    <glyph glyph-name="Ebreve.sc" horiz-adv-x="605" 
d="M534 0h-493v38c58 2 86 11 86 61v398c0 50 -28 59 -86 61v38h489v-146h-29c-31 73 -55 103 -125 103h-155v-226h137c38 0 54 24 62 75h33v-193h-33c-8 51 -24 75 -62 75h-137v-183c0 -46 26 -58 86 -58h78c74 0 90 26 146 115h29zM318 648c-90 0 -141 61 -141 168h39
c5 -72 48 -102 102 -102s97 30 102 102h39c0 -107 -51 -168 -141 -168z" />
    <glyph glyph-name="Ecaron.sc" horiz-adv-x="605" 
d="M534 0h-493v38c58 2 86 11 86 61v398c0 50 -28 59 -86 61v38h489v-146h-29c-31 73 -55 103 -125 103h-155v-226h137c38 0 54 24 62 75h33v-193h-33c-8 51 -24 75 -62 75h-137v-183c0 -46 26 -58 86 -58h78c74 0 90 26 146 115h29zM492 824l-140 -173h-68l-140 173h46
l128 -103l128 103h46z" />
    <glyph glyph-name="Ecircumflex.sc" horiz-adv-x="605" 
d="M534 0h-493v38c58 2 86 11 86 61v398c0 50 -28 59 -86 61v38h489v-146h-29c-31 73 -55 103 -125 103h-155v-226h137c38 0 54 24 62 75h33v-193h-33c-8 51 -24 75 -62 75h-137v-183c0 -46 26 -58 86 -58h78c74 0 90 26 146 115h29zM352 820l140 -173h-46l-128 103
l-128 -103h-46l140 173h68z" />
    <glyph glyph-name="Edieresis.sc" horiz-adv-x="605" 
d="M534 0h-493v38c58 2 86 11 86 61v398c0 50 -28 59 -86 61v38h489v-146h-29c-31 73 -55 103 -125 103h-155v-226h137c38 0 54 24 62 75h33v-193h-33c-8 51 -24 75 -62 75h-137v-183c0 -46 26 -58 86 -58h78c74 0 90 26 146 115h29zM162 732c0 33 27 60 61 60
s61 -27 61 -60c0 -35 -27 -62 -61 -62s-61 27 -61 62zM352 732c0 33 27 60 61 60s61 -27 61 -60c0 -35 -27 -62 -61 -62s-61 27 -61 62z" />
    <glyph glyph-name="Edotaccent.sc" horiz-adv-x="605" 
d="M534 0h-493v38c58 2 86 11 86 61v398c0 50 -28 59 -86 61v38h489v-146h-29c-31 73 -55 103 -125 103h-155v-226h137c38 0 54 24 62 75h33v-193h-33c-8 51 -24 75 -62 75h-137v-183c0 -46 26 -58 86 -58h78c74 0 90 26 146 115h29zM318 666c-36 0 -65 30 -65 67
s29 67 65 67s65 -30 65 -67s-29 -67 -65 -67z" />
    <glyph glyph-name="Egrave.sc" horiz-adv-x="605" 
d="M534 0h-493v38c58 2 86 11 86 61v398c0 50 -28 59 -86 61v38h489v-146h-29c-31 73 -55 103 -125 103h-155v-226h137c38 0 54 24 62 75h33v-193h-33c-8 51 -24 75 -62 75h-137v-183c0 -46 26 -58 86 -58h78c74 0 90 26 146 115h29zM153 816h116l74 -169h-39z" />
    <glyph glyph-name="Emacron.sc" horiz-adv-x="605" 
d="M534 0h-493v38c58 2 86 11 86 61v398c0 50 -28 59 -86 61v38h489v-146h-29c-31 73 -55 103 -125 103h-155v-226h137c38 0 54 24 62 75h33v-193h-33c-8 51 -24 75 -62 75h-137v-183c0 -46 26 -58 86 -58h78c74 0 90 26 146 115h29zM187 678v58h262v-58h-262z" />
    <glyph glyph-name="Eogonek.sc" horiz-adv-x="605" 
d="M534 0h-33c-62 -26 -127 -60 -127 -112c0 -25 17 -43 49 -43s60 12 92 37l12 -17c-28 -35 -74 -75 -130 -75c-51 0 -90 30 -90 82c0 60 55 98 122 128h-388v38c58 2 86 11 86 61v398c0 50 -28 59 -86 61v38h489v-146h-29c-31 73 -55 103 -125 103h-155v-226h137
c38 0 54 24 62 75h33v-193h-33c-8 51 -24 75 -62 75h-137v-183c0 -46 26 -58 86 -58h78c74 0 90 26 146 115h29z" />
    <glyph glyph-name="Eth.sc" horiz-adv-x="692" 
d="M333 0h-283v38c58 2 86 11 86 61v186h-86v42h86v170c0 50 -28 59 -86 61v38h268c225 0 326 -127 326 -282c0 -203 -137 -314 -311 -314zM301 553h-71v-226h140v-42h-140v-182c0 -50 27 -60 85 -60h18c128 0 207 87 207 254c0 135 -67 256 -239 256z" />
    <glyph glyph-name="Gbreve.sc" horiz-adv-x="664" 
d="M48 286c0 198 139 320 307 320c90 0 153 -24 193 -56v-131h-37c-24 95 -82 140 -161 140c-134 0 -197 -114 -197 -249c0 -153 67 -273 204 -273c51 0 82 8 111 32v118c0 49 -27 58 -82 60v38h249v-38c-55 -2 -76 -11 -76 -60v-136c-56 -39 -126 -61 -212 -61
c-185 0 -299 124 -299 296zM354 648c-90 0 -141 61 -141 168h39c5 -72 48 -102 102 -102s97 30 102 102h39c0 -107 -51 -168 -141 -168z" />
    <glyph glyph-name="Gcircumflex.sc" horiz-adv-x="664" 
d="M48 286c0 198 139 320 307 320c90 0 153 -24 193 -56v-131h-37c-24 95 -82 140 -161 140c-134 0 -197 -114 -197 -249c0 -153 67 -273 204 -273c51 0 82 8 111 32v118c0 49 -27 58 -82 60v38h249v-38c-55 -2 -76 -11 -76 -60v-136c-56 -39 -126 -61 -212 -61
c-185 0 -299 124 -299 296zM388 820l140 -173h-46l-128 103l-128 -103h-46l140 173h68z" />
    <glyph glyph-name="Gcommaaccent.sc" horiz-adv-x="664" 
d="M48 286c0 198 139 320 307 320c90 0 153 -24 193 -56v-131h-37c-24 95 -82 140 -161 140c-134 0 -197 -114 -197 -249c0 -153 67 -273 204 -273c51 0 82 8 111 32v118c0 49 -27 58 -82 60v38h249v-38c-55 -2 -76 -11 -76 -60v-136c-56 -39 -126 -61 -212 -61
c-185 0 -299 124 -299 296zM380 -153h-48c-30 6 -42 25 -42 48c0 32 26 53 63 53c48 0 75 -33 75 -76c0 -59 -33 -102 -126 -102v33c51 0 78 16 78 44z" />
    <glyph glyph-name="Gdotaccent.sc" horiz-adv-x="664" 
d="M48 286c0 198 139 320 307 320c90 0 153 -24 193 -56v-131h-37c-24 95 -82 140 -161 140c-134 0 -197 -114 -197 -249c0 -153 67 -273 204 -273c51 0 82 8 111 32v118c0 49 -27 58 -82 60v38h249v-38c-55 -2 -76 -11 -76 -60v-136c-56 -39 -126 -61 -212 -61
c-185 0 -299 124 -299 296zM354 666c-36 0 -65 30 -65 67s29 67 65 67s65 -30 65 -67s-29 -67 -65 -67z" />
    <glyph glyph-name="Hbar.sc" horiz-adv-x="768" 
d="M136 403h-86v42h86v52c0 50 -28 59 -86 61v38h266v-38c-56 -2 -86 -11 -86 -61v-52h308v52c0 50 -29 59 -86 61v38h266v-38c-58 -2 -85 -11 -85 -61v-52h85v-42h-85v-304c0 -50 27 -59 85 -61v-38h-266v38c57 2 86 11 86 61v165h-308v-165c0 -50 30 -59 86 -61v-38h-266
v38c58 2 86 11 86 61v304zM230 307h308v96h-308v-96z" />
    <glyph glyph-name="Hcircumflex.sc" horiz-adv-x="750" 
d="M709 38v-38h-266v38c57 2 86 11 86 61v185h-308v-185c0 -50 30 -59 86 -61v-38h-266v38c58 2 86 11 86 61v398c0 50 -28 59 -86 61v38h266v-38c-56 -2 -86 -11 -86 -61v-170h308v170c0 50 -29 59 -86 61v38h266v-38c-58 -2 -85 -11 -85 -61v-398c0 -50 27 -59 85 -61z
M409 820l140 -173h-46l-128 103l-128 -103h-46l140 173h68z" />
    <glyph glyph-name="Iacute.sc" horiz-adv-x="348" 
d="M307 38v-38h-266v38c58 2 86 11 86 61v398c0 50 -28 59 -86 61v38h266v-38c-58 -2 -86 -11 -86 -61v-398c0 -50 28 -59 86 -61zM217 816h116l-151 -169h-39z" />
    <glyph glyph-name="Ibreve.sc" horiz-adv-x="348" 
d="M307 38v-38h-266v38c58 2 86 11 86 61v398c0 50 -28 59 -86 61v38h266v-38c-58 -2 -86 -11 -86 -61v-398c0 -50 28 -59 86 -61zM174 648c-90 0 -141 61 -141 168h39c5 -72 48 -102 102 -102s97 30 102 102h39c0 -107 -51 -168 -141 -168z" />
    <glyph glyph-name="Icircumflex.sc" horiz-adv-x="348" 
d="M307 38v-38h-266v38c58 2 86 11 86 61v398c0 50 -28 59 -86 61v38h266v-38c-58 -2 -86 -11 -86 -61v-398c0 -50 28 -59 86 -61zM208 820l140 -173h-46l-128 103l-128 -103h-46l140 173h68z" />
    <glyph glyph-name="Idieresis.sc" horiz-adv-x="348" 
d="M307 38v-38h-266v38c58 2 86 11 86 61v398c0 50 -28 59 -86 61v38h266v-38c-58 -2 -86 -11 -86 -61v-398c0 -50 28 -59 86 -61zM18 732c0 33 27 60 61 60s61 -27 61 -60c0 -35 -27 -62 -61 -62s-61 27 -61 62zM208 732c0 33 27 60 61 60s61 -27 61 -60
c0 -35 -27 -62 -61 -62s-61 27 -61 62z" />
    <glyph glyph-name="Idotaccent.sc" horiz-adv-x="348" 
d="M307 38v-38h-266v38c58 2 86 11 86 61v398c0 50 -28 59 -86 61v38h266v-38c-58 -2 -86 -11 -86 -61v-398c0 -50 28 -59 86 -61zM174 666c-36 0 -65 30 -65 67s29 67 65 67s65 -30 65 -67s-29 -67 -65 -67z" />
    <glyph glyph-name="Igrave.sc" horiz-adv-x="348" 
d="M307 38v-38h-266v38c58 2 86 11 86 61v398c0 50 -28 59 -86 61v38h266v-38c-58 -2 -86 -11 -86 -61v-398c0 -50 28 -59 86 -61zM9 816h116l74 -169h-39z" />
    <glyph glyph-name="Imacron.sc" horiz-adv-x="348" 
d="M307 38v-38h-266v38c58 2 86 11 86 61v398c0 50 -28 59 -86 61v38h266v-38c-58 -2 -86 -11 -86 -61v-398c0 -50 28 -59 86 -61zM43 678v58h262v-58h-262z" />
    <glyph glyph-name="Iogonek.sc" horiz-adv-x="348" 
d="M307 38v-38h-46c-62 -26 -127 -60 -127 -112c0 -25 17 -43 49 -43s60 12 92 37l12 -17c-28 -35 -74 -75 -130 -75c-51 0 -90 30 -90 82c0 60 55 98 122 128h-148v38c58 2 86 11 86 61v398c0 50 -28 59 -86 61v38h266v-38c-58 -2 -86 -11 -86 -61v-398
c0 -50 28 -59 86 -61z" />
    <glyph glyph-name="Itilde.sc" horiz-adv-x="348" 
d="M311 795l37 -10c-45 -99 -71 -120 -118 -120c-54 0 -85 72 -119 72c-31 0 -43 -21 -65 -62l-37 10c45 99 71 120 118 120c56 0 87 -72 119 -72c31 0 43 21 65 62zM307 38v-38h-266v38c58 2 86 11 86 61v398c0 50 -28 59 -86 61v38h266v-38c-58 -2 -86 -11 -86 -61v-398
c0 -50 28 -59 86 -61z" />
    <glyph glyph-name="IJ.sc" horiz-adv-x="805" 
d="M307 38v-38h-266v38c58 2 86 11 86 61v398c0 50 -28 59 -86 61v38h266v-38c-58 -2 -86 -11 -86 -61v-398c0 -50 28 -59 86 -61zM695 497v-325c0 -124 -69 -182 -185 -182c-103 0 -170 43 -170 110c0 26 12 47 26 59h69v-40c0 -57 32 -88 81 -88c51 0 83 35 83 125v341
c0 50 -27 59 -84 61v38h266v-38c-58 -2 -86 -11 -86 -61z" />
    <glyph glyph-name="Jcircumflex.sc" horiz-adv-x="485" 
d="M375 497v-325c0 -124 -69 -182 -185 -182c-103 0 -170 43 -170 110c0 26 12 47 26 59h69v-40c0 -57 32 -88 81 -88c51 0 83 35 83 125v341c0 50 -27 59 -84 61v38h266v-38c-58 -2 -86 -11 -86 -61zM358 820l140 -173h-46l-128 103l-128 -103h-46l140 173h68z" />
    <glyph glyph-name="Kcommaaccent.sc" horiz-adv-x="651" 
d="M327 333l200 -229c47 -53 70 -63 108 -66v-38h-127c-28 16 -52 38 -84 77l-193 227l213 197c10 10 19 20 19 33c0 15 -9 21 -67 24v38h222v-38c-40 -1 -64 -15 -92 -41zM307 38v-38h-266v38c58 2 86 11 86 61v398c0 50 -28 59 -86 61v38h266v-38c-56 -2 -85 -11 -85 -61
v-398c0 -50 29 -59 85 -61zM359 -153h-48c-30 6 -42 25 -42 48c0 32 26 53 63 53c48 0 75 -33 75 -76c0 -59 -33 -102 -126 -102v33c51 0 78 16 78 44z" />
    <glyph glyph-name="Lacute.sc" horiz-adv-x="561" 
d="M222 497v-396c0 -46 25 -58 85 -58h47c73 0 91 36 143 130h33l-28 -173h-461v38c58 2 86 11 86 61v398c0 50 -28 59 -86 61v38h266v-38c-56 -2 -85 -11 -85 -61zM234 816h116l-151 -169h-39z" />
    <glyph glyph-name="Lcaron.sc" horiz-adv-x="561" 
d="M222 497v-396c0 -46 25 -58 85 -58h47c73 0 91 36 143 130h33l-28 -173h-461v38c58 2 86 11 86 61v398c0 50 -28 59 -86 61v38h266v-38c-56 -2 -85 -11 -85 -61zM499 596l-82 -205h-35l20 205h97z" />
    <glyph glyph-name="Lcommaaccent.sc" horiz-adv-x="561" 
d="M222 497v-396c0 -46 25 -58 85 -58h47c73 0 91 36 143 130h33l-28 -173h-461v38c58 2 86 11 86 61v398c0 50 -28 59 -86 61v38h266v-38c-56 -2 -85 -11 -85 -61zM310 -153h-48c-30 6 -42 25 -42 48c0 32 26 53 63 53c48 0 75 -33 75 -76c0 -59 -33 -102 -126 -102v33
c51 0 78 16 78 44z" />
    <glyph glyph-name="Ldot.sc" horiz-adv-x="561" 
d="M222 497v-396c0 -46 25 -58 85 -58h47c73 0 91 36 143 130h33l-28 -173h-461v38c58 2 86 11 86 61v398c0 50 -28 59 -86 61v38h266v-38c-56 -2 -85 -11 -85 -61zM461 271c-36 0 -65 30 -65 67s29 67 65 67s65 -30 65 -67s-29 -67 -65 -67z" />
    <glyph glyph-name="Lslash.sc" horiz-adv-x="570" 
d="M231 293v-192c0 -46 25 -58 85 -58h47c73 0 91 36 143 130h33l-28 -173h-461v38c58 2 86 11 86 61v164l-86 -29v43l86 29v191c0 50 -28 59 -86 61v38h266v-38c-56 -2 -85 -11 -85 -61v-161l141 49v-43z" />
    <glyph glyph-name="Nacute.sc" horiz-adv-x="709" 
d="M127 99v408c-34 39 -45 50 -86 51v38h154l342 -438v339c0 50 -29 59 -87 61v38h226v-38c-58 -2 -86 -11 -86 -61v-497h-40l-369 463v-364c0 -50 29 -59 86 -61v-38h-226v38c58 2 86 11 86 61zM406 816h116l-151 -169h-39z" />
    <glyph glyph-name="Ncaron.sc" horiz-adv-x="709" 
d="M127 99v408c-34 39 -45 50 -86 51v38h154l342 -438v339c0 50 -29 59 -87 61v38h226v-38c-58 -2 -86 -11 -86 -61v-497h-40l-369 463v-364c0 -50 29 -59 86 -61v-38h-226v38c58 2 86 11 86 61zM537 824l-140 -173h-68l-140 173h46l128 -103l128 103h46z" />
    <glyph glyph-name="Ncommaaccent.sc" horiz-adv-x="709" 
d="M127 99v408c-34 39 -45 50 -86 51v38h154l342 -438v339c0 50 -29 59 -87 61v38h226v-38c-58 -2 -86 -11 -86 -61v-497h-40l-369 463v-364c0 -50 29 -59 86 -61v-38h-226v38c58 2 86 11 86 61zM384 -153h-48c-30 6 -42 25 -42 48c0 32 26 53 63 53c48 0 75 -33 75 -76
c0 -59 -33 -102 -126 -102v33c51 0 78 16 78 44z" />
    <glyph glyph-name="Ntilde.sc" horiz-adv-x="709" 
d="M127 99v408c-34 39 -45 50 -86 51v38h154l342 -438v339c0 50 -29 59 -87 61v38h226v-38c-58 -2 -86 -11 -86 -61v-497h-40l-369 463v-364c0 -50 29 -59 86 -61v-38h-226v38c58 2 86 11 86 61zM510 796l37 -10c-45 -99 -71 -120 -118 -120c-60 0 -105 72 -147 72
c-31 0 -43 -21 -65 -62l-37 10c45 99 71 120 118 120c60 0 105 -72 147 -72c31 0 43 21 65 62z" />
    <glyph glyph-name="Eng.sc" horiz-adv-x="709" 
d="M508 52l-327 411v-364c0 -50 29 -59 86 -61v-38h-226v38c58 2 86 11 86 61v408c-34 39 -45 50 -86 51v38h154l342 -437v338c0 50 -29 59 -87 61v38h226v-38c-58 -2 -86 -11 -86 -61v-417c0 -68 -3 -106 -26 -146c-26 -46 -68 -78 -118 -111l-21 23l31 36
c43 50 52 89 52 170z" />
    <glyph glyph-name="Oacute.sc" horiz-adv-x="674" 
d="M347 40c117 0 175 111 175 253c0 140 -58 263 -195 263c-117 0 -175 -111 -175 -253c0 -140 58 -263 195 -263zM334 -10c-181 0 -286 138 -286 297c0 195 132 319 292 319c181 0 286 -138 286 -297c0 -195 -132 -319 -292 -319zM382 816h116l-151 -169h-39z" />
    <glyph glyph-name="Obreve.sc" horiz-adv-x="674" 
d="M347 40c117 0 175 111 175 253c0 140 -58 263 -195 263c-117 0 -175 -111 -175 -253c0 -140 58 -263 195 -263zM334 -10c-181 0 -286 138 -286 297c0 195 132 319 292 319c181 0 286 -138 286 -297c0 -195 -132 -319 -292 -319zM339 648c-90 0 -141 61 -141 168h39
c5 -72 48 -102 102 -102s97 30 102 102h39c0 -107 -51 -168 -141 -168z" />
    <glyph glyph-name="Ocircumflex.sc" horiz-adv-x="674" 
d="M347 40c117 0 175 111 175 253c0 140 -58 263 -195 263c-117 0 -175 -111 -175 -253c0 -140 58 -263 195 -263zM334 -10c-181 0 -286 138 -286 297c0 195 132 319 292 319c181 0 286 -138 286 -297c0 -195 -132 -319 -292 -319zM373 820l140 -173h-46l-128 103l-128 -103
h-46l140 173h68z" />
    <glyph glyph-name="Odieresis.sc" horiz-adv-x="674" 
d="M347 40c117 0 175 111 175 253c0 140 -58 263 -195 263c-117 0 -175 -111 -175 -253c0 -140 58 -263 195 -263zM334 -10c-181 0 -286 138 -286 297c0 195 132 319 292 319c181 0 286 -138 286 -297c0 -195 -132 -319 -292 -319zM183 732c0 33 27 60 61 60s61 -27 61 -60
c0 -35 -27 -62 -61 -62s-61 27 -61 62zM373 732c0 33 27 60 61 60s61 -27 61 -60c0 -35 -27 -62 -61 -62s-61 27 -61 62z" />
    <glyph glyph-name="Ograve.sc" horiz-adv-x="674" 
d="M347 40c117 0 175 111 175 253c0 140 -58 263 -195 263c-117 0 -175 -111 -175 -253c0 -140 58 -263 195 -263zM334 -10c-181 0 -286 138 -286 297c0 195 132 319 292 319c181 0 286 -138 286 -297c0 -195 -132 -319 -292 -319zM174 816h116l74 -169h-39z" />
    <glyph glyph-name="Ohungarumlaut.sc" horiz-adv-x="674" 
d="M347 40c117 0 175 111 175 253c0 140 -58 263 -195 263c-117 0 -175 -111 -175 -253c0 -140 58 -263 195 -263zM334 -10c-181 0 -286 138 -286 297c0 195 132 319 292 319c181 0 286 -138 286 -297c0 -195 -132 -319 -292 -319zM305 816h102l-129 -169h-40zM455 816h102
l-129 -169h-40z" />
    <glyph glyph-name="Omacron.sc" horiz-adv-x="674" 
d="M347 40c117 0 175 111 175 253c0 140 -58 263 -195 263c-117 0 -175 -111 -175 -253c0 -140 58 -263 195 -263zM334 -10c-181 0 -286 138 -286 297c0 195 132 319 292 319c181 0 286 -138 286 -297c0 -195 -132 -319 -292 -319zM208 678v58h262v-58h-262z" />
    <glyph glyph-name="Oslash.sc" horiz-adv-x="674" 
d="M334 -10c-60 0 -111 15 -153 40l-64 -90l-38 26l65 92c-63 55 -96 139 -96 229c0 195 132 319 292 319c62 0 116 -17 159 -45l57 81l38 -26l-59 -83c59 -56 91 -137 91 -224c0 -195 -132 -319 -292 -319zM152 303c0 -68 13 -130 40 -177l265 376c-31 34 -74 54 -130 54
c-117 0 -175 -111 -175 -253zM347 40c117 0 175 111 175 253c0 64 -12 123 -37 169l-264 -374c31 -30 72 -48 126 -48z" />
    <glyph glyph-name="Oslashacute.sc" horiz-adv-x="674" 
d="M334 -10c-60 0 -111 15 -153 40l-64 -90l-38 26l65 92c-63 55 -96 139 -96 229c0 195 132 319 292 319c62 0 116 -17 159 -45l57 81l38 -26l-59 -83c59 -56 91 -137 91 -224c0 -195 -132 -319 -292 -319zM152 303c0 -68 13 -130 40 -177l265 376c-31 34 -74 54 -130 54
c-117 0 -175 -111 -175 -253zM347 40c117 0 175 111 175 253c0 64 -12 123 -37 169l-264 -374c31 -30 72 -48 126 -48zM384 816h116l-151 -169h-39z" />
    <glyph glyph-name="Otilde.sc" horiz-adv-x="674" 
d="M347 40c117 0 175 111 175 253c0 140 -58 263 -195 263c-117 0 -175 -111 -175 -253c0 -140 58 -263 195 -263zM334 -10c-181 0 -286 138 -286 297c0 195 132 319 292 319c181 0 286 -138 286 -297c0 -195 -132 -319 -292 -319zM486 796l37 -10
c-45 -99 -71 -120 -118 -120c-60 0 -105 72 -147 72c-31 0 -43 -21 -65 -62l-37 10c45 99 71 120 118 120c60 0 105 -72 147 -72c31 0 43 21 65 62z" />
    <glyph glyph-name="OE.sc" horiz-adv-x="903" 
d="M832 0h-458c-225 0 -326 128 -326 283c0 203 139 313 313 313h467v-146h-30c-30 73 -54 103 -124 103h-155v-226h136c39 0 54 24 63 75h33v-193h-33c-9 51 -24 75 -63 75h-136v-183c0 -46 26 -58 85 -58h78c75 0 91 26 146 115h30zM425 43v510h-63
c-129 0 -209 -86 -209 -253c0 -135 67 -257 239 -257h33z" />
    <glyph glyph-name="Racute.sc" horiz-adv-x="640" 
d="M274 553h-53v-254h55c102 0 150 42 150 128c0 73 -46 126 -152 126zM306 0h-265v38c58 2 86 11 86 61v398c0 50 -28 59 -86 61v38h263c156 0 224 -68 224 -169c0 -92 -81 -145 -161 -155l139 -173c29 -37 63 -59 110 -61v-38h-132c-31 20 -50 41 -78 78l-138 180h-47
v-159c0 -50 29 -59 85 -61v-38zM339 816h116l-151 -169h-39z" />
    <glyph glyph-name="Rcaron.sc" horiz-adv-x="640" 
d="M274 553h-53v-254h55c102 0 150 42 150 128c0 73 -46 126 -152 126zM306 0h-265v38c58 2 86 11 86 61v398c0 50 -28 59 -86 61v38h263c156 0 224 -68 224 -169c0 -92 -81 -145 -161 -155l139 -173c29 -37 63 -59 110 -61v-38h-132c-31 20 -50 41 -78 78l-138 180h-47
v-159c0 -50 29 -59 85 -61v-38zM470 824l-140 -173h-68l-140 173h46l128 -103l128 103h46z" />
    <glyph glyph-name="Rcommaaccent.sc" horiz-adv-x="640" 
d="M274 553h-53v-254h55c102 0 150 42 150 128c0 73 -46 126 -152 126zM306 0h-265v38c58 2 86 11 86 61v398c0 50 -28 59 -86 61v38h263c156 0 224 -68 224 -169c0 -92 -81 -145 -161 -155l139 -173c29 -37 63 -59 110 -61v-38h-132c-31 20 -50 41 -78 78l-138 180h-47
v-159c0 -50 29 -59 85 -61v-38zM345 -153h-48c-30 6 -42 25 -42 48c0 32 26 53 63 53c48 0 75 -33 75 -76c0 -59 -33 -102 -126 -102v33c51 0 78 16 78 44z" />
    <glyph glyph-name="Sacute.sc" horiz-adv-x="512" 
d="M245 -10c-82 0 -153 27 -192 59l-6 140h38c25 -91 77 -153 164 -153c78 0 126 36 126 103c0 55 -38 82 -141 118c-118 40 -180 83 -180 182c0 96 71 167 194 167c72 0 136 -23 182 -54v-130h-35c-20 80 -69 138 -152 138c-71 0 -107 -39 -107 -90c0 -57 30 -82 135 -118
c127 -43 190 -89 190 -188c0 -114 -99 -174 -216 -174zM300 816h116l-151 -169h-39z" />
    <glyph glyph-name="Scaron.sc" horiz-adv-x="512" 
d="M245 -10c-82 0 -153 27 -192 59l-6 140h38c25 -91 77 -153 164 -153c78 0 126 36 126 103c0 55 -38 82 -141 118c-118 40 -180 83 -180 182c0 96 71 167 194 167c72 0 136 -23 182 -54v-130h-35c-20 80 -69 138 -152 138c-71 0 -107 -39 -107 -90c0 -57 30 -82 135 -118
c127 -43 190 -89 190 -188c0 -114 -99 -174 -216 -174zM426 824l-140 -173h-68l-140 173h46l128 -103l128 103h46z" />
    <glyph glyph-name="Scedilla.sc" horiz-adv-x="512" 
d="M151 -221l-6 33c72 0 117 15 117 46c0 30 -35 43 -93 45l36 89c-65 7 -120 30 -152 57l-6 140h38c25 -91 77 -153 164 -153c78 0 126 36 126 103c0 55 -38 82 -141 118c-118 40 -180 83 -180 182c0 96 71 167 194 167c72 0 136 -23 182 -54v-130h-35
c-20 80 -69 138 -152 138c-71 0 -107 -39 -107 -90c0 -57 30 -82 135 -118c127 -43 190 -89 190 -188c0 -114 -99 -174 -216 -174h-8l-15 -38c67 -1 109 -20 109 -74c0 -68 -80 -99 -180 -99z" />
    <glyph glyph-name="Scircumflex.sc" horiz-adv-x="512" 
d="M245 -10c-82 0 -153 27 -192 59l-6 140h38c25 -91 77 -153 164 -153c78 0 126 36 126 103c0 55 -38 82 -141 118c-118 40 -180 83 -180 182c0 96 71 167 194 167c72 0 136 -23 182 -54v-130h-35c-20 80 -69 138 -152 138c-71 0 -107 -39 -107 -90c0 -57 30 -82 135 -118
c127 -43 190 -89 190 -188c0 -114 -99 -174 -216 -174zM286 820l140 -173h-46l-128 103l-128 -103h-46l140 173h68z" />
    <glyph glyph-name="Scommaaccent.sc" horiz-adv-x="512" 
d="M245 -10c-82 0 -153 27 -192 59l-6 140h38c25 -91 77 -153 164 -153c78 0 126 36 126 103c0 55 -38 82 -141 118c-118 40 -180 83 -180 182c0 96 71 167 194 167c72 0 136 -23 182 -54v-130h-35c-20 80 -69 138 -152 138c-71 0 -107 -39 -107 -90c0 -57 30 -82 135 -118
c127 -43 190 -89 190 -188c0 -114 -99 -174 -216 -174zM273 -153h-48c-30 6 -42 25 -42 48c0 32 26 53 63 53c48 0 75 -33 75 -76c0 -59 -33 -102 -126 -102v33c51 0 78 16 78 44z" />
    <glyph glyph-name="Tbar.sc" horiz-adv-x="633" 
d="M48 596h537l13 -182h-32c-50 112 -61 140 -139 140h-63v-227h112v-42h-112v-186c0 -50 31 -59 89 -61v-38h-273v38c58 2 89 11 89 61v186h-112v42h112v227h-63c-78 0 -89 -28 -139 -140h-32z" />
    <glyph glyph-name="Tcaron.sc" horiz-adv-x="633" 
d="M48 596h537l13 -182h-32c-50 112 -61 140 -139 140h-63v-455c0 -50 31 -59 89 -61v-38h-273v38c58 2 89 11 89 61v455h-63c-78 0 -89 -28 -139 -140h-32zM490 824l-140 -173h-68l-140 173h46l128 -103l128 103h46z" />
    <glyph glyph-name="Thorn.sc" horiz-adv-x="565" 
d="M221 427v-252h58c102 0 153 34 153 125c0 80 -52 127 -154 127h-57zM221 470h78c167 0 236 -76 236 -167c0 -103 -73 -170 -223 -170h-91v-34c0 -50 41 -58 111 -61v-38h-291v38c58 2 86 11 86 61v398c0 50 -28 59 -86 61v38h266v-38c-58 -2 -86 -11 -86 -61v-27z" />
    <glyph glyph-name="Uacute.sc" horiz-adv-x="688" 
d="M201 497v-286c0 -103 56 -161 153 -161c112 0 175 45 175 168v279c0 50 -30 59 -87 61v38h226v-38c-57 -2 -85 -11 -85 -61v-297c0 -143 -109 -210 -234 -210c-148 0 -243 67 -243 211v296c0 50 -29 59 -86 61v38h266v-38c-57 -2 -85 -11 -85 -61zM406 816h116l-151 -169
h-39z" />
    <glyph glyph-name="Ubreve.sc" horiz-adv-x="688" 
d="M201 497v-286c0 -103 56 -161 153 -161c112 0 175 45 175 168v279c0 50 -30 59 -87 61v38h226v-38c-57 -2 -85 -11 -85 -61v-297c0 -143 -109 -210 -234 -210c-148 0 -243 67 -243 211v296c0 50 -29 59 -86 61v38h266v-38c-57 -2 -85 -11 -85 -61zM363 648
c-90 0 -141 61 -141 168h39c5 -72 48 -102 102 -102s97 30 102 102h39c0 -107 -51 -168 -141 -168z" />
    <glyph glyph-name="Ucircumflex.sc" horiz-adv-x="688" 
d="M201 497v-286c0 -103 56 -161 153 -161c112 0 175 45 175 168v279c0 50 -30 59 -87 61v38h226v-38c-57 -2 -85 -11 -85 -61v-297c0 -143 -109 -210 -234 -210c-148 0 -243 67 -243 211v296c0 50 -29 59 -86 61v38h266v-38c-57 -2 -85 -11 -85 -61zM397 820l140 -173h-46
l-128 103l-128 -103h-46l140 173h68z" />
    <glyph glyph-name="Udieresis.sc" horiz-adv-x="688" 
d="M201 497v-286c0 -103 56 -161 153 -161c112 0 175 45 175 168v279c0 50 -30 59 -87 61v38h226v-38c-57 -2 -85 -11 -85 -61v-297c0 -143 -109 -210 -234 -210c-148 0 -243 67 -243 211v296c0 50 -29 59 -86 61v38h266v-38c-57 -2 -85 -11 -85 -61zM207 732
c0 33 27 60 61 60s61 -27 61 -60c0 -35 -27 -62 -61 -62s-61 27 -61 62zM397 732c0 33 27 60 61 60s61 -27 61 -60c0 -35 -27 -62 -61 -62s-61 27 -61 62z" />
    <glyph glyph-name="Ugrave.sc" horiz-adv-x="688" 
d="M201 497v-286c0 -103 56 -161 153 -161c112 0 175 45 175 168v279c0 50 -30 59 -87 61v38h226v-38c-57 -2 -85 -11 -85 -61v-297c0 -143 -109 -210 -234 -210c-148 0 -243 67 -243 211v296c0 50 -29 59 -86 61v38h266v-38c-57 -2 -85 -11 -85 -61zM198 816h116l74 -169
h-39z" />
    <glyph glyph-name="Uhungarumlaut.sc" horiz-adv-x="688" 
d="M201 497v-286c0 -103 56 -161 153 -161c112 0 175 45 175 168v279c0 50 -30 59 -87 61v38h226v-38c-57 -2 -85 -11 -85 -61v-297c0 -143 -109 -210 -234 -210c-148 0 -243 67 -243 211v296c0 50 -29 59 -86 61v38h266v-38c-57 -2 -85 -11 -85 -61zM329 816h102l-129 -169
h-40zM479 816h102l-129 -169h-40z" />
    <glyph glyph-name="Umacron.sc" horiz-adv-x="688" 
d="M201 497v-286c0 -103 56 -161 153 -161c112 0 175 45 175 168v279c0 50 -30 59 -87 61v38h226v-38c-57 -2 -85 -11 -85 -61v-297c0 -143 -109 -210 -234 -210c-148 0 -243 67 -243 211v296c0 50 -29 59 -86 61v38h266v-38c-57 -2 -85 -11 -85 -61zM232 678v58h262v-58
h-262z" />
    <glyph glyph-name="Uogonek.sc" horiz-adv-x="688" 
d="M201 497v-286c0 -103 56 -161 153 -161c112 0 175 45 175 168v279c0 50 -30 59 -87 61v38h226v-38c-57 -2 -85 -11 -85 -61v-297c0 -108 -62 -173 -146 -198c-58 -25 -113 -58 -113 -106c0 -25 17 -43 49 -43s60 12 92 37l12 -17c-28 -35 -74 -75 -130 -75
c-51 0 -90 30 -90 82c0 48 36 83 85 110c-144 2 -236 69 -236 211v296c0 50 -29 59 -86 61v38h266v-38c-57 -2 -85 -11 -85 -61z" />
    <glyph glyph-name="Uring.sc" horiz-adv-x="688" 
d="M201 497v-286c0 -103 56 -161 153 -161c112 0 175 45 175 168v279c0 50 -30 59 -87 61v38h226v-38c-57 -2 -85 -11 -85 -61v-297c0 -143 -109 -210 -234 -210c-148 0 -243 67 -243 211v296c0 50 -29 59 -86 61v38h266v-38c-57 -2 -85 -11 -85 -61zM270 734
c0 52 38 91 93 91s93 -39 93 -91s-38 -91 -93 -91s-93 39 -93 91zM414 734c0 31 -17 54 -51 54s-51 -23 -51 -54s17 -54 51 -54s51 23 51 54z" />
    <glyph glyph-name="Utilde.sc" horiz-adv-x="688" 
d="M201 497v-286c0 -103 56 -161 153 -161c112 0 175 45 175 168v279c0 50 -30 59 -87 61v38h226v-38c-57 -2 -85 -11 -85 -61v-297c0 -143 -109 -210 -234 -210c-148 0 -243 67 -243 211v296c0 50 -29 59 -86 61v38h266v-38c-57 -2 -85 -11 -85 -61zM510 796l37 -10
c-45 -99 -71 -120 -118 -120c-60 0 -105 72 -147 72c-31 0 -43 -21 -65 -62l-37 10c45 99 71 120 118 120c60 0 105 -72 147 -72c31 0 43 21 65 62z" />
    <glyph glyph-name="Wacute.sc" horiz-adv-x="857" 
d="M595 140l125 344c5 15 10 27 10 37c0 26 -19 35 -78 37v38h190v-38c-24 -3 -43 -7 -52 -31l-199 -534h-28l-131 359l-131 -359h-28l-206 534c-10 22 -29 28 -52 31v38h236v-38c-57 -2 -77 -11 -77 -37c0 -10 4 -21 9 -35l127 -348l99 281l-38 108c-9 24 -28 28 -52 31v38
h228v-38c-60 -2 -79 -11 -79 -37c0 -10 4 -21 9 -37zM477 816h116l-151 -169h-39z" />
    <glyph glyph-name="Wcircumflex.sc" horiz-adv-x="857" 
d="M595 140l125 344c5 15 10 27 10 37c0 26 -19 35 -78 37v38h190v-38c-24 -3 -43 -7 -52 -31l-199 -534h-28l-131 359l-131 -359h-28l-206 534c-10 22 -29 28 -52 31v38h236v-38c-57 -2 -77 -11 -77 -37c0 -10 4 -21 9 -35l127 -348l99 281l-38 108c-9 24 -28 28 -52 31v38
h228v-38c-60 -2 -79 -11 -79 -37c0 -10 4 -21 9 -37zM468 820l140 -173h-46l-128 103l-128 -103h-46l140 173h68z" />
    <glyph glyph-name="Wgrave.sc" horiz-adv-x="857" 
d="M595 140l125 344c5 15 10 27 10 37c0 26 -19 35 -78 37v38h190v-38c-24 -3 -43 -7 -52 -31l-199 -534h-28l-131 359l-131 -359h-28l-206 534c-10 22 -29 28 -52 31v38h236v-38c-57 -2 -77 -11 -77 -37c0 -10 4 -21 9 -35l127 -348l99 281l-38 108c-9 24 -28 28 -52 31v38
h228v-38c-60 -2 -79 -11 -79 -37c0 -10 4 -21 9 -37zM269 816h116l74 -169h-39z" />
    <glyph glyph-name="Wdieresis.sc" horiz-adv-x="857" 
d="M595 140l125 344c5 15 10 27 10 37c0 26 -19 35 -78 37v38h190v-38c-24 -3 -43 -7 -52 -31l-199 -534h-28l-131 359l-131 -359h-28l-206 534c-10 22 -29 28 -52 31v38h236v-38c-57 -2 -77 -11 -77 -37c0 -10 4 -21 9 -35l127 -348l99 281l-38 108c-9 24 -28 28 -52 31v38
h228v-38c-60 -2 -79 -11 -79 -37c0 -10 4 -21 9 -37zM278 732c0 33 27 60 61 60s61 -27 61 -60c0 -35 -27 -62 -61 -62s-61 27 -61 62zM468 732c0 33 27 60 61 60s61 -27 61 -60c0 -35 -27 -62 -61 -62s-61 27 -61 62z" />
    <glyph glyph-name="Yacute.sc" horiz-adv-x="598" 
d="M320 285l128 200c10 15 16 28 16 41c0 23 -18 30 -76 32v38h195v-38c-25 -3 -38 -10 -52 -31l-188 -291v-137c0 -50 29 -59 85 -61v-38h-261v38c58 2 86 11 86 61v137l-186 291c-14 22 -28 28 -52 31v38h240v-38c-58 -2 -76 -9 -76 -32c0 -14 6 -26 16 -41zM362 816h116
l-151 -169h-39z" />
    <glyph glyph-name="Ycircumflex.sc" horiz-adv-x="598" 
d="M320 285l128 200c10 15 16 28 16 41c0 23 -18 30 -76 32v38h195v-38c-25 -3 -38 -10 -52 -31l-188 -291v-137c0 -50 29 -59 85 -61v-38h-261v38c58 2 86 11 86 61v137l-186 291c-14 22 -28 28 -52 31v38h240v-38c-58 -2 -76 -9 -76 -32c0 -14 6 -26 16 -41zM348 820
l140 -173h-46l-128 103l-128 -103h-46l140 173h68z" />
    <glyph glyph-name="Ydieresis.sc" horiz-adv-x="598" 
d="M320 285l128 200c10 15 16 28 16 41c0 23 -18 30 -76 32v38h195v-38c-25 -3 -38 -10 -52 -31l-188 -291v-137c0 -50 29 -59 85 -61v-38h-261v38c58 2 86 11 86 61v137l-186 291c-14 22 -28 28 -52 31v38h240v-38c-58 -2 -76 -9 -76 -32c0 -14 6 -26 16 -41zM155 732
c0 33 27 60 61 60s61 -27 61 -60c0 -35 -27 -62 -61 -62s-61 27 -61 62zM345 732c0 33 27 60 61 60s61 -27 61 -60c0 -35 -27 -62 -61 -62s-61 27 -61 62z" />
    <glyph glyph-name="Ygrave.sc" horiz-adv-x="598" 
d="M320 285l128 200c10 15 16 28 16 41c0 23 -18 30 -76 32v38h195v-38c-25 -3 -38 -10 -52 -31l-188 -291v-137c0 -50 29 -59 85 -61v-38h-261v38c58 2 86 11 86 61v137l-186 291c-14 22 -28 28 -52 31v38h240v-38c-58 -2 -76 -9 -76 -32c0 -14 6 -26 16 -41zM146 816h116
l74 -169h-39z" />
    <glyph glyph-name="Zacute.sc" horiz-adv-x="564" 
d="M156 44h199c74 0 94 36 144 130h33l-29 -174h-470v25l365 526h-184c-70 0 -82 -29 -122 -116h-30v161h455v-26zM341 816h116l-151 -169h-39z" />
    <glyph glyph-name="Zcaron.sc" horiz-adv-x="564" 
d="M156 44h199c74 0 94 36 144 130h33l-29 -174h-470v25l365 526h-184c-70 0 -82 -29 -122 -116h-30v161h455v-26zM472 824l-140 -173h-68l-140 173h46l128 -103l128 103h46z" />
    <glyph glyph-name="Zdotaccent.sc" horiz-adv-x="564" 
d="M156 44h199c74 0 94 36 144 130h33l-29 -174h-470v25l365 526h-184c-70 0 -82 -29 -122 -116h-30v161h455v-26zM298 666c-36 0 -65 30 -65 67s29 67 65 67s65 -30 65 -67s-29 -67 -65 -67z" />
    <glyph glyph-name="ampersand.sc" horiz-adv-x="605" 
d="M23 156c0 89 59 138 139 170c-26 30 -56 74 -56 133c0 84 64 147 159 147c101 0 155 -52 155 -125c0 -69 -59 -117 -147 -150l157 -177c14 28 21 59 21 92c0 40 -10 55 -43 55v37h175v-37c-68 0 -77 -12 -86 -62c-8 -42 -21 -81 -40 -115l36 -40c28 -31 53 -47 89 -47
v-37h-115c-24 13 -43 30 -65 54c-45 -41 -103 -64 -174 -64c-104 0 -205 55 -205 166zM252 41c48 0 90 16 123 42c-1 1 -1 1 -1 2l-191 217c-44 -23 -65 -71 -65 -127c0 -80 59 -134 134 -134zM181 487c0 -51 34 -91 66 -126l4 -5c62 25 93 62 93 126c0 50 -31 84 -82 84
c-49 0 -81 -29 -81 -79z" />
    <glyph glyph-name="caron.Slovak" horiz-adv-x="500" 
d="M308 761l-82 -205h-35l20 205h97z" />
    <glyph glyph-name="cedilla.alt" horiz-adv-x="500" 
d="M201 -48h33c64 0 109 -20 109 -74c0 -68 -80 -99 -180 -99l-6 33c72 0 117 15 117 46c0 30 -35 43 -93 45z" />
    <glyph glyph-name="grave.cap" horiz-adv-x="500" 
d="M153 910h120l74 -149h-39z" />
    <glyph glyph-name="acute.cap" horiz-adv-x="500" 
d="M227 910h120l-155 -149h-39z" />
    <glyph glyph-name="circumflex.cap" horiz-adv-x="500" 
d="M284 920l150 -159h-46l-138 90l-138 -90h-46l150 159h68z" />
    <glyph glyph-name="tilde.cap" horiz-adv-x="500" 
d="M396 890l37 -10c-45 -99 -71 -120 -118 -120c-60 0 -105 72 -147 72c-31 0 -43 -21 -65 -62l-37 10c45 99 71 120 118 120c60 0 105 -72 147 -72c31 0 43 21 65 62z" />
    <glyph glyph-name="macron.cap" horiz-adv-x="500" 
d="M109 783v62h282v-62h-282z" />
    <glyph glyph-name="breve.cap" horiz-adv-x="500" 
d="M250 758c-91 0 -152 57 -152 157h37c5 -67 61 -93 115 -93s110 26 115 93h37c0 -100 -61 -157 -152 -157z" />
    <glyph glyph-name="dotaccent.cap" horiz-adv-x="500" 
d="M250 767c-36 0 -65 30 -65 67s29 67 65 67s65 -30 65 -67s-29 -67 -65 -67z" />
    <glyph glyph-name="dieresis.cap" horiz-adv-x="500" 
d="M89 832c0 33 27 60 61 60s61 -27 61 -60c0 -35 -27 -62 -61 -62s-61 27 -61 62zM289 832c0 33 27 60 61 60s61 -27 61 -60c0 -35 -27 -62 -61 -62s-61 27 -61 62z" />
    <glyph glyph-name="ring.cap" horiz-adv-x="500" 
d="M157 835c0 52 38 91 93 91s93 -39 93 -91s-38 -91 -93 -91s-93 39 -93 91zM301 835c0 31 -17 54 -51 54s-51 -23 -51 -54s17 -54 51 -54s51 23 51 54z" />
    <glyph glyph-name="hungarumlaut.cap" horiz-adv-x="500" 
d="M155 910h106l-133 -149h-40zM305 910h106l-133 -149h-40z" />
    <glyph glyph-name="caron.cap" horiz-adv-x="500" 
d="M434 920l-150 -159h-68l-150 159h46l138 -90l138 90h46z" />
    <glyph glyph-name="exclamdown.cap" horiz-adv-x="292" 
d="M73 639c0 41 32 73 73 73s73 -32 73 -73s-32 -73 -73 -73s-73 32 -73 73zM168 499l43 -499h-131l43 499h45z" />
    <glyph glyph-name="questiondown.cap" horiz-adv-x="438" 
d="M120 132c0 -59 38 -96 102 -96c62 0 88 36 88 94v37h80c13 -12 21 -27 21 -48c0 -74 -85 -130 -187 -130c-117 0 -197 55 -197 167c0 83 48 136 121 190c54 39 77 70 77 130v32h29c9 -16 29 -54 29 -90c0 -56 -22 -99 -79 -146c-47 -39 -84 -69 -84 -140zM313 638
c0 -41 -32 -73 -73 -73s-73 32 -73 73s32 73 73 73s73 -32 73 -73z" />
    <glyph glyph-name="exclam.sc" horiz-adv-x="253" 
d="M187 596l-39 -417h-43l-39 417h121zM60 57c0 37 30 67 67 67s66 -30 66 -67c0 -38 -29 -67 -66 -67s-67 29 -67 67z" />
    <glyph glyph-name="exclamdown.sc" horiz-adv-x="253" 
d="M148 417l39 -417h-121l39 417h43zM60 539c0 38 30 67 67 67s66 -29 66 -67c0 -37 -29 -67 -66 -67s-67 30 -67 67z" />
    <glyph glyph-name="question.sc" horiz-adv-x="379" 
d="M271 487c0 47 -32 76 -79 76c-57 0 -79 -31 -79 -78v-34h-73c-12 10 -20 25 -20 44c0 64 73 111 166 111c104 0 173 -46 173 -142c0 -70 -44 -113 -104 -157c-48 -35 -68 -62 -68 -109v-27h-28c-10 15 -28 47 -28 82c0 43 18 80 66 118c41 33 74 58 74 116zM106 57
c0 37 30 67 67 67s66 -30 66 -67c0 -38 -29 -67 -66 -67s-67 29 -67 67z" />
    <glyph glyph-name="questiondown.sc" horiz-adv-x="379" 
d="M108 119c0 -47 32 -76 79 -76c57 0 79 31 79 78v34h73c12 -10 20 -25 20 -44c0 -64 -73 -111 -166 -111c-104 0 -173 46 -173 142c0 70 44 113 104 157c48 35 68 62 68 109v27h28c10 -15 28 -47 28 -82c0 -43 -18 -80 -66 -118c-41 -33 -74 -58 -74 -116zM273 549
c0 -37 -30 -67 -67 -67s-66 30 -66 67c0 38 29 67 66 67s67 -29 67 -67z" />
    <glyph glyph-name="guilsinglleft.cap" horiz-adv-x="298" 
d="M50 349v10l161 190h47l-115 -195l115 -195h-47z" />
    <glyph glyph-name="guilsinglright.cap" horiz-adv-x="298" 
d="M248 359v-10l-161 -190h-47l115 195l-115 195h47z" />
    <glyph glyph-name="guillemotleft.cap" horiz-adv-x="477" 
d="M50 349v10l161 190h47l-115 -195l115 -195h-47zM229 349v10l161 190h47l-115 -195l115 -195h-47z" />
    <glyph glyph-name="guillemotright.cap" horiz-adv-x="477" 
d="M248 359v-10l-161 -190h-47l115 195l-115 195h47zM427 359v-10l-161 -190h-47l115 195l-115 195h47z" />
    <glyph glyph-name="slash.cap" horiz-adv-x="398" 
d="M363 770l-266 -871h-62l266 871h62z" />
    <glyph glyph-name="backslash.cap" horiz-adv-x="398" 
d="M301 -101l-266 871h62l266 -871h-62z" />
    <glyph glyph-name="bar.cap" horiz-adv-x="257" 
d="M157 770v-871h-57v871h57z" />
    <glyph glyph-name="brokenbar.cap" horiz-adv-x="257" 
d="M157 770v-371h-57v371h57zM157 270v-371h-57v371h57z" />
    <glyph glyph-name="slash.sc" horiz-adv-x="379" 
d="M359 687l-277 -799h-62l277 799h62z" />
    <glyph glyph-name="backslash.sc" horiz-adv-x="379" 
d="M297 -112l-277 799h62l277 -799h-62z" />
    <glyph glyph-name="bar.sc" horiz-adv-x="257" 
d="M157 687v-799h-57v799h57z" />
    <glyph glyph-name="brokenbar.sc" horiz-adv-x="257" 
d="M157 225v-337h-57v337h57zM157 687v-337h-57v337h57z" />
    <glyph glyph-name="periodcentered.cap" horiz-adv-x="256" 
d="M55 356c0 41 32 73 73 73s73 -32 73 -73s-32 -73 -73 -73s-73 32 -73 73z" />
    <glyph glyph-name="bullet.cap" horiz-adv-x="354" 
d="M55 355c0 67 55 122 122 122s122 -55 122 -122s-55 -122 -122 -122s-122 55 -122 122z" />
    <glyph glyph-name="hyphen.cap" horiz-adv-x="360" 
d="M310 322h-260v76h260v-76z" />
    <glyph glyph-name="endash.cap" horiz-adv-x="580" 
d="M530 327h-480v66h480v-66z" />
    <glyph glyph-name="emdash.cap" horiz-adv-x="1000" 
d="M950 393v-66h-900v66h900z" />
    <glyph glyph-name="parenleft.cap" horiz-adv-x="338" 
d="M61 334c0 163 66 325 196 436h51c-127 -134 -164 -277 -164 -436s37 -302 164 -436h-51c-130 111 -196 273 -196 436z" />
    <glyph glyph-name="parenright.cap" horiz-adv-x="338" 
d="M277 334c0 -163 -66 -325 -196 -436h-51c127 134 164 277 164 436s-37 302 -164 436h51c130 -111 196 -273 196 -436z" />
    <glyph glyph-name="bracketleft.cap" horiz-adv-x="312" 
d="M154 678v-687c0 -52 33 -55 113 -60v-32h-182v871h182v-32c-80 -5 -113 -8 -113 -60z" />
    <glyph glyph-name="bracketright.cap" horiz-adv-x="312" 
d="M158 -9v687c0 52 -33 55 -113 60v32h182v-871h-182v32c80 5 113 8 113 60z" />
    <glyph glyph-name="braceleft.cap" horiz-adv-x="341" 
d="M50 327v16c48 10 83 36 83 100v199c0 79 68 128 163 128v-27c-47 -6 -91 -31 -91 -98v-198c0 -68 -24 -92 -91 -112c67 -20 91 -44 91 -112v-198c0 -67 44 -92 91 -98v-27c-95 0 -163 49 -163 128v199c0 64 -35 90 -83 100z" />
    <glyph glyph-name="braceright.cap" horiz-adv-x="341" 
d="M291 343v-16c-48 -10 -83 -36 -83 -100v-199c0 -79 -68 -128 -163 -128v27c47 6 91 31 91 98v198c0 68 24 92 91 112c-67 20 -91 44 -91 112v198c0 67 -44 92 -91 98v27c95 0 163 -49 163 -128v-199c0 -64 35 -90 83 -100z" />
    <glyph glyph-name="parenleft.sc" horiz-adv-x="332" 
d="M60 288c0 145 65 299 198 399h54c-130 -120 -168 -257 -168 -399s38 -279 168 -399h-54c-133 100 -198 254 -198 399z" />
    <glyph glyph-name="parenright.sc" horiz-adv-x="332" 
d="M272 288c0 -145 -65 -299 -198 -399h-54c130 120 168 257 168 399s-38 279 -168 399h54c133 -100 198 -254 198 -399z" />
    <glyph glyph-name="bracketleft.sc" horiz-adv-x="312" 
d="M154 595v-614c0 -52 33 -55 113 -60v-32h-182v798h182v-32c-80 -5 -113 -8 -113 -60z" />
    <glyph glyph-name="bracketright.sc" horiz-adv-x="312" 
d="M158 -19v614c0 52 -33 55 -113 60v32h182v-798h-182v32c80 5 113 8 113 60z" />
    <glyph glyph-name="braceleft.sc" horiz-adv-x="331" 
d="M104 288c67 -20 91 -44 91 -112v-162c0 -67 44 -92 91 -98v-27c-95 0 -163 49 -163 128v163c0 64 -35 90 -83 100v16c48 10 83 36 83 100v163c0 79 68 128 163 128v-27c-47 -6 -91 -31 -91 -98v-162c0 -68 -24 -92 -91 -112z" />
    <glyph glyph-name="braceright.sc" horiz-adv-x="331" 
d="M227 288c-67 20 -91 44 -91 112v162c0 67 -44 92 -91 98v27c95 0 163 -49 163 -128v-163c0 -64 35 -90 83 -100v-16c-48 -10 -83 -36 -83 -100v-163c0 -79 -68 -128 -163 -128v27c47 6 91 31 91 98v162c0 68 24 92 91 112z" />
    <glyph glyph-name="at.cap" horiz-adv-x="892" 
d="M606 144c-101 0 -111 98 -82 188h-6c-45 -107 -115 -187 -180 -187c-56 0 -93 45 -93 124c0 154 123 302 243 302c36 0 68 -11 90 -32l47 38h37l-27 -89l-50 -208c-9 -38 -14 -96 33 -96c79 0 161 95 161 243c0 171 -103 294 -300 294c-206 0 -361 -183 -361 -405
c0 -200 144 -337 349 -337c97 0 176 22 262 73l14 -30c-64 -55 -173 -90 -286 -90c-239 0 -407 152 -407 385c0 244 185 444 429 444c224 0 363 -139 363 -334c0 -175 -118 -283 -236 -283zM371 203c57 0 138 118 185 294c-13 26 -35 37 -60 37c-99 0 -167 -157 -167 -263
c0 -44 15 -68 42 -68z" />
    <glyph glyph-name="florin.op" horiz-adv-x="493" 
d="M89 282l6 42h86l8 60c23 173 81 273 195 273c72 0 99 -33 99 -73c0 -33 -22 -50 -49 -58h-19c-1 52 -12 92 -51 92c-35 0 -52 -35 -60 -93l-27 -201h113l-4 -42h-115l-23 -177c-23 -173 -81 -273 -195 -273c-72 0 -99 33 -99 73c0 33 22 50 49 58h19c1 -52 12 -92 51 -92
c35 0 52 35 60 93l42 318h-86z" />
    <glyph glyph-name="Euro.op" horiz-adv-x="633" 
d="M21 355v42h86c27 162 132 260 269 260c84 0 144 -22 188 -56v-144h-34c-23 101 -77 150 -157 150c-98 0 -153 -93 -167 -210h246l-13 -42h-236v-20c0 -16 0 -30 1 -45h218l-12 -42h-202c16 -119 68 -209 178 -209c95 0 137 57 169 161h36l-17 -160
c-55 -30 -116 -50 -191 -50c-162 0 -257 105 -278 258h-84v42h80v25c0 13 0 27 1 40h-81z" />
    <glyph glyph-name="dollar.op" horiz-adv-x="511" 
d="M166 -113l16 107c-56 7 -106 26 -135 53l-7 155h31c20 -71 57 -131 120 -154l37 244l-39 17c-77 32 -142 70 -142 173c0 98 77 175 205 175c11 0 21 -1 32 -2l16 99h45l-17 -105c46 -9 88 -25 116 -47v-141h-31c-14 63 -44 111 -93 133l-35 -224l32 -13
c90 -37 154 -74 154 -181c0 -119 -104 -186 -232 -186h-12l-16 -103h-45zM277 272l-6 2l-37 -235h13c88 0 142 43 142 110c0 69 -45 96 -112 123zM128 509c0 -57 32 -88 94 -113l21 -9l34 219c-10 1 -20 2 -30 2c-78 0 -119 -40 -119 -99z" />
    <glyph glyph-name="sterling.op" horiz-adv-x="610" 
d="M97 315v40h105l12 75c25 160 105 228 216 228c81 0 133 -33 133 -92c0 -27 -14 -50 -33 -59h-55v31c0 44 -12 75 -60 75c-61 0 -83 -65 -102 -178l-14 -80h150v-40h-156l-19 -115c-3 -21 -9 -45 -15 -65c53 -30 114 -58 178 -58c61 0 99 28 99 100h25
c7 -10 19 -33 19 -68c0 -87 -53 -119 -130 -119c-84 0 -164 50 -213 95c-26 -52 -67 -95 -129 -95c-64 0 -93 39 -93 89c0 56 42 96 103 96c19 0 38 -3 55 -8l23 148h-99zM102 35c30 0 52 24 63 85c-17 7 -33 12 -50 12c-37 0 -54 -24 -54 -53c0 -27 17 -44 41 -44z" />
    <glyph glyph-name="yen.op" horiz-adv-x="643" 
d="M89 297v40h134l-145 240c-14 23 -32 31 -60 34v37h264v-37c-68 -1 -87 -11 -87 -36c0 -15 6 -26 15 -41l130 -226l133 226c8 13 15 26 15 41c0 25 -18 35 -88 36v37h225v-37c-28 -3 -45 -10 -60 -34l-149 -240h136v-40h-161l-26 -42v-24h187v-42h-187v-84
c0 -57 34 -67 99 -68v-37h-291v37c66 1 101 11 101 68v84h-185v42h185v23l-26 43h-159z" />
    <glyph glyph-name="florin.lt" 
d="M190 310l6 42h86l12 87c23 173 81 273 195 273c72 0 99 -33 99 -73c0 -33 -22 -50 -49 -58h-19c-1 52 -12 92 -51 92c-35 0 -52 -35 -60 -93l-31 -228h113l-4 -42h-115l-27 -205c-23 -173 -81 -273 -195 -273c-72 0 -99 33 -99 73c0 33 22 50 49 58h19
c1 -52 12 -92 51 -92c35 0 52 35 60 93l46 346h-86z" />
    <glyph glyph-name="Euro.lt" 
d="M15 384v43h69c25 178 131 285 272 285c86 0 147 -23 192 -60v-154h-37c-24 110 -76 160 -159 160c-102 0 -152 -103 -164 -231h253l-14 -43h-242v-21c0 -17 0 -33 1 -49h224l-13 -43h-208c14 -129 62 -228 177 -228c97 0 138 59 170 172h40l-17 -171
c-57 -32 -119 -54 -196 -54c-167 0 -261 114 -281 281h-67v43h63v27c0 14 0 29 1 43h-64z" />
    <glyph glyph-name="dollar.lt" 
d="M195 -113l18 108c-57 9 -106 29 -137 56l-7 168h33c20 -74 58 -138 121 -164l44 263l-39 17c-83 35 -152 76 -152 188c0 106 82 189 217 189c13 0 27 -1 40 -2l18 104h45l-19 -111c48 -10 92 -27 120 -50v-153h-32c-16 68 -46 118 -98 143l-41 -241l36 -15
c96 -39 164 -80 164 -196c0 -129 -110 -201 -247 -201c-8 0 -15 0 -22 1l-17 -104h-45zM321 296l-12 5l-43 -257c7 -1 14 -1 22 -1c93 0 151 47 151 119c0 74 -47 104 -118 134zM162 552c0 -62 34 -96 100 -123l22 -10l40 237c-11 2 -23 3 -36 3c-81 0 -126 -44 -126 -107z
" />
    <glyph glyph-name="cent.lt" 
d="M203 -108l24 112c-96 35 -155 127 -155 245c0 162 99 291 267 291h1l29 132h44l-29 -135c82 -12 134 -56 134 -120c0 -35 -19 -54 -43 -64h-48v34c0 45 -15 79 -55 94l-86 -407c19 -5 39 -8 62 -8c72 0 120 31 160 85l19 -10c-31 -101 -108 -151 -214 -151
c-16 0 -31 1 -45 4l-21 -102h-44zM158 286c0 -90 31 -159 87 -194l85 398h-11c-94 0 -161 -81 -161 -204z" />
    <glyph glyph-name="sterling.lt" 
d="M89 341v43h108l12 82c25 173 108 246 221 246c83 0 138 -36 138 -99c0 -30 -14 -55 -33 -64h-59v36c0 47 -12 80 -62 80c-62 0 -85 -72 -104 -194l-14 -87h153v-43h-160l-19 -124c-3 -23 -9 -49 -15 -70c54 -33 117 -63 182 -63c63 0 104 22 104 108h23
c8 -11 20 -36 20 -73c0 -94 -55 -129 -134 -129c-86 0 -167 54 -217 103c-27 -56 -69 -103 -132 -103c-67 0 -96 42 -96 96c0 61 43 104 105 104c20 0 39 -3 57 -9l23 160h-101zM94 39c30 0 53 26 65 91c-18 8 -35 13 -52 13c-38 0 -55 -26 -55 -57c0 -29 17 -47 42 -47z
" />
    <glyph glyph-name="yen.lt" 
d="M76 316v44h132l-142 266c-13 24 -30 33 -56 37v39h256v-39c-65 -2 -82 -12 -82 -39c0 -16 5 -28 13 -44l123 -245l129 245c7 14 14 28 14 44c0 27 -17 37 -82 39v39h209v-39c-26 -4 -42 -12 -56 -37l-147 -266h135v-44h-159l-18 -34v-37h177v-44h-177v-89
c0 -61 36 -71 103 -73v-39h-302v39c68 2 104 12 104 73v89h-174v44h174v36l-19 35h-155z" />
    <glyph glyph-name="florin.ot" 
d="M209 282l6 42h86l8 60c23 173 81 273 195 273c72 0 99 -33 99 -73c0 -33 -22 -50 -49 -58h-19c-1 52 -12 92 -51 92c-35 0 -52 -35 -60 -93l-27 -201h113l-4 -42h-115l-23 -177c-23 -173 -81 -273 -195 -273c-72 0 -99 33 -99 73c0 33 22 50 49 58h19
c1 -52 12 -92 51 -92c35 0 52 35 60 93l42 318h-86z" />
    <glyph glyph-name="Euro.ot" 
d="M24 355v42h83c25 162 127 260 258 260c81 0 138 -22 180 -56v-144h-35c-21 101 -70 150 -148 150c-95 0 -144 -93 -156 -210h233l-15 -42h-221v-20c0 -16 0 -30 1 -45h204l-11 -42h-189c14 -119 60 -209 166 -209c92 0 130 57 161 161h36l-16 -160
c-53 -30 -111 -50 -184 -50c-155 0 -246 105 -266 258h-81v42h77v25c0 13 0 27 1 40h-78z" />
    <glyph glyph-name="dollar.ot" 
d="M210 -113l16 107c-56 7 -106 26 -135 53l-7 155h31c20 -71 57 -131 120 -154l37 244l-39 17c-77 32 -142 70 -142 173c0 98 77 175 205 175c11 0 21 -1 32 -2l16 99h45l-17 -105c46 -9 88 -25 116 -47v-141h-31c-14 63 -44 111 -93 133l-35 -224l32 -13
c90 -37 154 -74 154 -181c0 -119 -104 -186 -232 -186h-12l-16 -103h-45zM321 272l-6 2l-37 -235h13c88 0 142 43 142 110c0 69 -45 96 -112 123zM172 509c0 -57 32 -88 94 -113l21 -9l34 219c-10 1 -20 2 -30 2c-78 0 -119 -40 -119 -99z" />
    <glyph glyph-name="sterling.ot" 
d="M99 315v40h105l12 75c25 160 102 228 213 228c81 0 133 -33 133 -92c0 -27 -14 -50 -33 -59h-55v31c0 44 -12 75 -60 75c-61 0 -80 -65 -99 -178l-14 -80h150v-40h-156l-19 -115c-3 -21 -9 -45 -15 -65c53 -30 110 -58 174 -58c61 0 99 28 99 100h25c7 -10 19 -33 19 -68
c0 -87 -53 -119 -130 -119c-84 0 -160 50 -209 95c-26 -52 -67 -95 -129 -95c-64 0 -93 39 -93 89c0 56 42 96 103 96c19 0 38 -3 55 -8l23 148h-99zM104 35c30 0 52 24 63 85c-17 7 -33 12 -50 12c-37 0 -54 -24 -54 -53c0 -27 17 -44 41 -44z" />
    <glyph glyph-name="yen.ot" 
d="M78 307v40h117l-119 230c-11 20 -32 31 -60 34v37h259v-37c-68 -1 -87 -11 -87 -36c0 -15 7 -26 15 -42l117 -236l123 236c7 14 15 27 15 42c0 25 -18 35 -88 36v37h214v-37c-28 -3 -46 -7 -60 -34l-122 -230h119v-40h-141l-35 -66h176v-42h-177v-94c0 -57 34 -67 99 -68
v-37h-291v37c66 1 101 11 101 68v94h-175v42h173l-35 66h-138z" />
    <glyph glyph-name="zero.op" horiz-adv-x="628" 
d="M148 298c0 -146 58 -255 166 -255s166 109 166 255s-58 255 -166 255s-166 -109 -166 -255zM46 298c0 179 114 308 268 308s268 -129 268 -308s-114 -308 -268 -308s-268 129 -268 308z" />
    <glyph glyph-name="one.op" horiz-adv-x="427" 
d="M258 597h22v-493c0 -55 11 -58 119 -65v-39h-339v39c108 7 128 10 128 65v353h-138v36l31 4c95 12 128 32 177 100z" />
    <glyph glyph-name="two.op" horiz-adv-x="505" 
d="M141 80h184c56 0 84 3 128 79h27l-34 -159h-423v22l160 152c76 71 148 141 148 244c0 67 -41 113 -115 113c-75 0 -127 -53 -162 -109l-25 21c39 93 117 163 218 163c116 0 181 -72 181 -169c0 -140 -125 -221 -287 -357z" />
    <glyph glyph-name="three.op" horiz-adv-x="475" 
d="M246 286c120 -13 196 -90 196 -194c0 -123 -104 -207 -232 -207c-104 0 -191 39 -191 110c0 21 8 40 24 51h47c10 -63 48 -116 130 -116c75 0 129 55 129 142c0 106 -93 158 -225 158l-7 34c111 29 201 67 201 165c0 64 -44 100 -106 100c-65 0 -115 -40 -146 -94l-23 20
c33 80 99 151 205 151c104 0 165 -65 165 -153c0 -93 -97 -150 -167 -167z" />
    <glyph glyph-name="four.op" horiz-adv-x="573" 
d="M87 144h258v324zM438 -106h-93v201h-331v35l378 477h46v-463h121v-49h-121v-201z" />
    <glyph glyph-name="five.op" horiz-adv-x="468" 
d="M215 -70c87 0 138 56 138 150c0 125 -126 185 -286 196l52 320h292v-89h-261l-23 -148c159 -16 307 -86 307 -254c0 -135 -101 -220 -233 -220c-96 0 -182 39 -182 110c0 21 8 40 24 51h46c10 -63 48 -116 126 -116z" />
    <glyph glyph-name="six.op" horiz-adv-x="577" 
d="M470 680c-197 -56 -302 -181 -320 -318c43 49 110 81 179 81c120 0 204 -81 204 -207c0 -149 -101 -246 -239 -246c-152 0 -248 125 -248 287c0 230 151 392 404 434zM278 380c-51 0 -101 -21 -130 -42c-2 -18 -3 -46 -3 -59c0 -147 65 -242 157 -242
c89 0 136 66 136 169c0 109 -58 174 -160 174z" />
    <glyph glyph-name="seven.op" horiz-adv-x="480" 
d="M393 509h-247c-50 0 -69 -13 -96 -65h-36l42 152h410v-28l-290 -674h-89z" />
    <glyph glyph-name="eight.op" horiz-adv-x="550" 
d="M480 544c0 -81 -69 -141 -136 -163l35 -17c74 -38 127 -90 127 -178c0 -105 -70 -196 -231 -196c-137 0 -231 75 -231 188c0 88 66 149 150 178l-12 6c-67 34 -112 80 -112 166c0 102 72 184 205 184c124 0 205 -68 205 -168zM323 293l-104 50c-62 -39 -87 -100 -87 -165
c0 -84 57 -141 143 -141c87 0 146 48 146 128c0 64 -44 102 -98 128zM245 434l74 -39c59 36 79 86 79 149c0 75 -50 121 -123 121c-76 0 -120 -46 -120 -111c0 -59 31 -89 90 -120z" />
    <glyph glyph-name="nine.op" horiz-adv-x="577" 
d="M107 -84c197 56 302 181 320 318c-43 -49 -110 -81 -179 -81c-120 0 -204 81 -204 207c0 149 101 246 239 246c152 0 248 -125 248 -287c0 -230 -151 -392 -404 -434zM299 216c51 0 101 21 130 42c2 18 3 46 3 59c0 147 -65 242 -157 242c-89 0 -136 -66 -136 -169
c0 -109 58 -174 160 -174z" />
    <glyph glyph-name="zero.lt" 
d="M148 351c0 -157 24 -312 152 -312s152 155 152 312s-24 311 -152 311s-152 -154 -152 -311zM564 351c0 -201 -85 -361 -264 -361s-264 160 -264 361s85 361 264 361s264 -160 264 -361z" />
    <glyph glyph-name="one.lt" 
d="M337 712h22v-605c0 -55 34 -65 169 -65v-42h-445v42c141 0 178 10 178 65v465h-168v36l61 6c96 9 134 30 183 98z" />
    <glyph glyph-name="two.lt" 
d="M158 85h169c87 0 122 9 172 103h28l-42 -188h-455v22l181 184c140 141 176 203 176 287c0 89 -51 138 -143 138c-80 0 -130 -48 -175 -95l-24 23c43 77 119 153 237 153c132 0 209 -80 209 -201c0 -146 -158 -254 -333 -426z" />
    <glyph glyph-name="three.lt" 
d="M325 397c130 -13 214 -88 214 -189c0 -138 -117 -218 -254 -218c-153 0 -233 68 -233 140c0 35 24 60 46 71h56v-34c0 -83 49 -132 137 -132c92 0 145 55 145 142c0 106 -89 158 -210 158h-40l-7 34c120 29 215 71 215 169c0 64 -47 100 -114 100
c-70 0 -126 -43 -159 -97l-25 20c35 80 108 151 221 151s178 -65 178 -153c0 -93 -93 -145 -170 -162z" />
    <glyph glyph-name="four.lt" 
d="M90 232h261v331zM351 112v68h-334v38l381 484h48v-470h121v-52h-121v-68c0 -61 36 -71 104 -73v-39h-303v39c68 2 104 12 104 73z" />
    <glyph glyph-name="five.lt" 
d="M494 702v-95h-287l-26 -153c196 -9 347 -75 347 -242c0 -130 -95 -222 -237 -222c-147 0 -225 68 -225 140c0 35 22 60 44 71h59v-34c0 -83 43 -132 127 -132c93 0 142 57 142 142c0 134 -137 191 -321 192l54 333h323z" />
    <glyph glyph-name="six.lt" 
d="M487 679c-198 -56 -312 -180 -331 -317c44 49 113 81 183 81c123 0 212 -76 212 -207c0 -149 -103 -246 -244 -246c-164 0 -257 125 -257 287c0 230 157 392 416 434zM285 379c-52 0 -102 -23 -131 -44c-2 -17 -3 -44 -3 -57c0 -147 69 -241 162 -241
c90 0 140 62 140 167c0 111 -63 175 -168 175z" />
    <glyph glyph-name="seven.lt" 
d="M466 607h-292c-50 0 -69 -13 -96 -65h-36l42 160h455v-28l-285 -674h-109z" />
    <glyph glyph-name="eight.lt" 
d="M517 544c0 -81 -71 -139 -140 -161l35 -17c78 -38 133 -92 133 -180c0 -105 -74 -196 -241 -196c-143 0 -241 75 -241 188c0 88 68 147 156 176l-12 6c-69 34 -116 82 -116 168c0 102 74 184 213 184c130 0 213 -68 213 -168zM354 291l-108 50c-66 -39 -91 -98 -91 -163
c0 -84 59 -141 149 -141c91 0 152 48 152 128c0 64 -46 100 -102 126zM272 436l78 -39c61 36 83 84 83 147c0 75 -52 121 -129 121c-80 0 -126 -46 -126 -111c0 -59 33 -87 94 -118z" />
    <glyph glyph-name="nine.lt" 
d="M113 22c198 56 312 180 331 317c-44 -49 -113 -81 -183 -81c-123 0 -212 76 -212 207c0 149 103 246 244 246c164 0 257 -125 257 -287c0 -230 -157 -392 -416 -434zM315 322c52 0 102 23 131 44c2 17 3 44 3 57c0 147 -69 241 -162 241c-90 0 -140 -62 -140 -167
c0 -111 63 -175 168 -175z" />
    <glyph glyph-name="zero.ot" 
d="M300 43c108 0 161 109 161 255s-53 255 -161 255s-161 -109 -161 -255s53 -255 161 -255zM300 -10c-154 0 -263 129 -263 308s109 308 263 308s263 -129 263 -308s-109 -308 -263 -308z" />
    <glyph glyph-name="one.ot" 
d="M343 597h22v-490c0 -55 34 -65 169 -65v-42h-439v42c141 0 178 10 178 65v350h-168v36l61 6c96 9 128 30 177 98z" />
    <glyph glyph-name="two.ot" 
d="M175 80h198c59 0 89 3 134 79h25l-36 -159h-445v22l168 152c79 72 165 148 165 246c0 67 -43 113 -119 113c-81 0 -145 -55 -181 -111l-27 21c42 93 123 163 230 163c122 0 191 -72 191 -169c0 -140 -132 -221 -303 -357z" />
    <glyph glyph-name="three.ot" 
d="M301 281c127 -13 209 -85 209 -189c0 -123 -110 -207 -246 -207c-110 0 -202 39 -202 110c0 21 9 40 26 51h49c10 -63 51 -115 141 -115c81 0 140 55 140 142c0 105 -101 157 -245 157l-8 34c119 29 219 65 219 164c0 66 -48 103 -117 103c-70 0 -122 -42 -156 -96
l-23 20c35 80 104 151 217 151c110 0 175 -65 175 -153c0 -93 -105 -155 -179 -172z" />
    <glyph glyph-name="four.ot" 
d="M100 144h258v324zM451 -106h-93v201h-331v35l378 477h46v-463h121v-49h-121v-201z" />
    <glyph glyph-name="five.ot" 
d="M282 -69c90 0 143 56 143 150c0 125 -131 184 -298 195l54 320h305v-89h-272l-24 -148c166 -16 320 -86 320 -253c0 -135 -105 -220 -243 -220c-100 0 -190 39 -190 110c0 21 8 40 25 51h47c10 -63 51 -116 133 -116z" />
    <glyph glyph-name="six.ot" 
d="M485 680c-202 -56 -314 -181 -332 -318c44 49 113 81 184 81c123 0 213 -81 213 -207c0 -149 -104 -246 -245 -246c-156 0 -255 125 -255 287c0 230 155 392 415 434zM284 383c-53 0 -104 -24 -133 -45c-2 -18 -3 -46 -3 -59c0 -147 70 -242 165 -242
c91 0 142 64 142 169c0 111 -64 177 -171 177z" />
    <glyph glyph-name="seven.ot" 
d="M483 509h-298c-50 0 -69 -13 -96 -65h-36l42 152h461v-28l-301 -674h-89z" />
    <glyph glyph-name="eight.ot" 
d="M515 544c0 -81 -71 -141 -140 -163l36 -17c77 -38 131 -90 131 -178c0 -105 -72 -196 -238 -196c-140 0 -237 75 -237 188c0 88 68 149 154 178l-12 6c-69 34 -115 80 -115 166c0 102 74 184 210 184c128 0 211 -68 211 -168zM354 293l-107 50c-64 -39 -90 -100 -90 -165
c0 -84 59 -141 147 -141c90 0 151 48 151 128c0 64 -46 102 -101 128zM274 434l76 -39c60 36 81 86 81 149c0 75 -51 121 -127 121c-78 0 -123 -46 -123 -111c0 -59 32 -89 93 -120z" />
    <glyph glyph-name="nine.ot" 
d="M115 -84c202 56 314 181 332 318c-44 -49 -113 -81 -184 -81c-123 0 -213 81 -213 207c0 149 104 246 245 246c156 0 255 -125 255 -287c0 -230 -155 -392 -415 -434zM316 213c53 0 104 24 133 45c2 18 3 46 3 59c0 147 -70 242 -165 242c-91 0 -142 -64 -142 -169
c0 -111 64 -177 171 -177z" />
    </font>
</defs>
</svg>
